<?xml version="1.0" encoding="UTF-8" standalone="no"?>
<!-- Created with Sodipodi ("http://www.sodipodi.com/") -->
<svg
   xmlns:dc="http://purl.org/dc/elements/1.1/"
   xmlns:cc="http://web.resource.org/cc/"
   xmlns:rdf="http://www.w3.org/1999/02/22-rdf-syntax-ns#"
   xmlns:svg="http://www.w3.org/2000/svg"
   xmlns="http://www.w3.org/2000/svg"
   xmlns:xlink="http://www.w3.org/1999/xlink"
   xmlns:sodipodi="http://sodipodi.sourceforge.net/DTD/sodipodi-0.dtd"
   xmlns:inkscape="http://www.inkscape.org/namespaces/inkscape"
   height="22"
   id="svg1089"
   sodipodi:docbase="C:\ms4w\Apache\htdocs\i3geo\imagens\visual\azul"
   sodipodi:docname="area.svg"
   sodipodi:version="0.32"
   space="preserve"
   width="22"
   inkscape:version="0.45.1"
   inkscape:output_extension="org.inkscape.output.svg.inkscape"
   version="1.0"
   inkscape:export-filename="C:\ms4w\Apache\htdocs\i3geo\imagens\visual\azul\area.png"
   inkscape:export-xdpi="90"
   inkscape:export-ydpi="90">
  <metadata
     id="metadata3">
    <rdf:RDF>
      <cc:Work
         rdf:about="">
        <dc:title>magnifying glass</dc:title>
        <dc:description />
        <dc:subject>
          <rdf:Bag>
            <rdf:li>multiplying</rdf:li>
            <rdf:li>magnifying</rdf:li>
            <rdf:li>eye</rdf:li>
            <rdf:li>tool</rdf:li>
            <rdf:li>loupe</rdf:li>
            <rdf:li>glass</rdf:li>
          </rdf:Bag>
        </dc:subject>
        <dc:publisher>
          <cc:Agent
             rdf:about="http://www.openclipart.org/">
            <dc:title>Open Clip Art Library</dc:title>
          </cc:Agent>
        </dc:publisher>
        <dc:creator>
          <cc:Agent>
            <dc:title>Tom&amp;Atilde;&amp;iexcl;&amp;Aring;&amp;iexcl; Kratochv&amp;Atilde;&amp;shy;la</dc:title>
          </cc:Agent>
        </dc:creator>
        <dc:rights>
          <cc:Agent>
            <dc:title>Tom&amp;Atilde;&amp;iexcl;&amp;Aring;&amp;iexcl; Kratochv&amp;Atilde;&amp;shy;la</dc:title>
          </cc:Agent>
        </dc:rights>
        <dc:date />
        <dc:format>image/svg+xml</dc:format>
        <dc:type
           rdf:resource="http://purl.org/dc/dcmitype/StillImage" />
        <cc:license
           rdf:resource="http://web.resource.org/cc/PublicDomain" />
        <dc:language>en</dc:language>
      </cc:Work>
      <cc:License
         rdf:about="http://web.resource.org/cc/PublicDomain">
        <cc:permits
           rdf:resource="http://web.resource.org/cc/Reproduction" />
        <cc:permits
           rdf:resource="http://web.resource.org/cc/Distribution" />
        <cc:permits
           rdf:resource="http://web.resource.org/cc/DerivativeWorks" />
      </cc:License>
    </rdf:RDF>
  </metadata>
  <defs
     id="defs1091">
    <linearGradient
       id="linearGradient4810">
      <stop
         id="stop4811"
         offset="0.0000000"
         style="stop-color:#ffffff;stop-opacity:0.0000000;" />
      <stop
         id="stop4812"
         offset="1.0000000"
         style="stop-color:#ffffff;stop-opacity:0.68041235;" />
    </linearGradient>
    <linearGradient
       id="linearGradient2931">
      <stop
         id="stop2932"
         offset="0.0000000"
         style="stop-color:#ffffff;stop-opacity:1.0000000;" />
      <stop
         id="stop2933"
         offset="1.0000000"
         style="stop-color:#ffffff;stop-opacity:0.0000000;" />
    </linearGradient>
    <linearGradient
       id="linearGradient9837">
      <stop
         id="stop9838"
         offset="0.0000000"
         style="stop-color:#f8f5da;stop-opacity:1.0000000;" />
      <stop
         id="stop9839"
         offset="1.0000000"
         style="stop-color:#ffffff;stop-opacity:1.0000000;" />
    </linearGradient>
    <linearGradient
       id="linearGradient37404">
      <stop
         id="stop37406"
         offset="0.0000000"
         style="stop-color:#3f86ff;stop-opacity:1.0000000;" />
      <stop
         id="stop37412"
         offset="0.38000000"
         style="stop-color:#9fe1ff;stop-opacity:1.0000000;" />
      <stop
         id="stop37408"
         offset="1.0000000"
         style="stop-color:#ffffff;stop-opacity:1.0000000;" />
    </linearGradient>
    <linearGradient
       inkscape:collect="always"
       xlink:href="#linearGradient37404"
       id="linearGradient11756"
       x1="0.21578404"
       y1="11.148622"
       x2="21.782246"
       y2="11.148622"
       gradientUnits="userSpaceOnUse" />
    <linearGradient
       inkscape:collect="always"
       xlink:href="#linearGradient2931"
       id="linearGradient40872"
       gradientUnits="userSpaceOnUse"
       gradientTransform="scale(1.806421,0.553581)"
       x1="145.63139"
       y1="712.78033"
       x2="145.63139"
       y2="772.31848" />
    <radialGradient
       inkscape:collect="always"
       xlink:href="#linearGradient4810"
       id="radialGradient40874"
       gradientUnits="userSpaceOnUse"
       gradientTransform="scale(2.175919,0.459576)"
       cx="124.36100"
       cy="1082.2069"
       fx="125.14262"
       fy="1084.0195"
       r="54.577564" />
  </defs>
  <sodipodi:namedview
     id="base"
     width="22px"
     height="22px"
     inkscape:zoom="9.5789401"
     inkscape:cx="23.971495"
     inkscape:cy="7.8592334"
     inkscape:window-width="758"
     inkscape:window-height="579"
     inkscape:window-x="277"
     inkscape:window-y="76"
     inkscape:current-layer="svg1089" />
  <rect
     height="21.425793"
     id="rect36642"
     rx="1.5514623"
     ry="1.8960879"
     style="fill:url(#linearGradient11756);fill-opacity:1.0;fill-rule:nonzero;stroke:#007cdb;stroke-width:0.389;stroke-linecap:round;stroke-linejoin:round;stroke-miterlimit:4;stroke-opacity:1;stroke-dasharray:none"
     width="21.177462"
     x="0.41028404"
     y="0.43572599" />
  <path
     style="opacity:0.74761903;fill:none;fill-opacity:1;fill-rule:evenodd;stroke:#ff0000;stroke-width:0.2;stroke-linecap:butt;stroke-linejoin:miter;stroke-miterlimit:4;stroke-dasharray:none;stroke-opacity:1"
     d="M 3.6051411,12.218915 C 3.6051411,12.113932 3.6051411,11.770618 3.6051411,11.554545 C 3.6051411,11.317181 3.5989601,11.068716 3.6420501,10.853265 C 3.7056081,10.535477 3.8572871,10.2229 3.9742351,9.9305292 C 4.0886601,9.6444692 4.2569851,9.4263232 4.4540581,9.2292502 C 4.6809211,9.0023874 4.7517561,8.6743973 5.0446091,8.5279706 C 5.1729401,8.4638052 5.2906721,8.3803328 5.4137041,8.3065139 C 5.7984811,8.0756474 6.2351781,8.1219667 6.6686251,8.1219667 C 7.1238421,8.1219667 7.5790581,8.1219667 8.0342751,8.1219667 C 8.4746911,8.1219667 8.9969951,8.1824575 9.3999241,8.0481478 C 9.8142391,7.9100426 10.186641,7.5134744 10.507208,7.2730494 C 10.654846,7.162321 10.802484,7.0515927 10.950121,6.9408643 C 11.007513,6.8978209 11.073153,6.8670454 11.134669,6.830136 C 11.84998,6.4009492 12.170776,5.8669663 12.611047,5.2799392 C 12.921379,4.866162 13.527145,4.4751892 14.013606,4.3941124 C 14.161243,4.3695061 14.308881,4.3448998 14.456519,4.3202935 C 15.307279,4.1784997 15.963309,4.5645597 16.523448,4.9846636 C 16.648723,5.0786197 16.744905,5.2061203 16.855633,5.3168486 C 17.358992,5.820208 17.232071,6.8007626 17.07709,7.4206872 C 16.890523,8.1669529 16.034563,8.9729844 15.563802,9.5614352 C 15.14674,10.082762 14.825217,10.981458 15.08398,11.628364 C 15.133192,11.751395 15.182405,11.874427 15.231617,11.997458 C 15.534754,12.755301 16.499297,13.560413 17.07709,14.138206 C 17.453268,14.514384 17.483094,15.19566 17.483094,15.688403 C 17.483094,16.279754 17.416755,16.426428 17.150909,16.869505 C 16.777431,17.491968 15.562041,17.866648 14.899432,18.087517 C 13.917382,18.414867 12.401085,17.971141 11.429944,17.755332 C 11.333115,17.733815 11.233094,17.730726 11.134669,17.718423 C 10.880903,17.686702 9.9789301,17.153236 9.7690191,16.943324 C 9.3804151,16.554721 8.9154941,16.237438 8.5140971,15.836041 C 7.9582011,15.280144 7.6158981,14.531838 7.0746291,13.990568 C 6.7207231,13.636663 6.2838431,13.434389 5.8935271,13.141651 C 5.5378771,12.874914 5.0165041,12.777839 4.6386051,12.5511 C 4.4620071,12.445141 4.2525311,12.431882 4.1218731,12.366553 C 4.1028801,12.357056 3.9486831,12.331915 3.9373261,12.329643"
     id="path2197" />
</svg>
