<?xml version="1.0" encoding="UTF-8" standalone="no"?>
<!-- Created with Inkscape (http://www.inkscape.org/) -->
<svg
   xmlns:dc="http://purl.org/dc/elements/1.1/"
   xmlns:cc="http://web.resource.org/cc/"
   xmlns:rdf="http://www.w3.org/1999/02/22-rdf-syntax-ns#"
   xmlns:svg="http://www.w3.org/2000/svg"
   xmlns="http://www.w3.org/2000/svg"
   xmlns:xlink="http://www.w3.org/1999/xlink"
   xmlns:sodipodi="http://sodipodi.sourceforge.net/DTD/sodipodi-0.dtd"
   xmlns:inkscape="http://www.inkscape.org/namespaces/inkscape"
   height="16"
   id="svg3675"
   inkscape:version="0.45.1"
   sodipodi:docbase="C:\ms4w\Apache\htdocs\i3geo\imagens\temas\default"
   sodipodi:docname="folder-s.svg"
   sodipodi:version="0.32"
   width="18"
   inkscape:output_extension="org.inkscape.output.svg.inkscape"
   version="1.0"
   inkscape:export-filename="C:\ms4w\Apache\htdocs\i3geo\imagens\temas\default\folder-s.gif"
   inkscape:export-xdpi="84"
   inkscape:export-ydpi="84">
  <metadata
     id="metadata3">
    <rdf:RDF>
      <cc:Work
         rdf:about="">
        <dc:title>Save</dc:title>
        <dc:description />
        <dc:subject>
          <rdf:Bag>
            <rdf:li>icon</rdf:li>
          </rdf:Bag>
        </dc:subject>
        <dc:publisher>
          <cc:Agent
             rdf:about="http://www.openclipart.org">
            <dc:title>Open Clip Art Library</dc:title>
          </cc:Agent>
        </dc:publisher>
        <dc:creator>
          <cc:Agent>
            <dc:title>Cédric bosdonnat</dc:title>
          </cc:Agent>
        </dc:creator>
        <dc:rights>
          <cc:Agent>
            <dc:title>Cédric bosdonnat</dc:title>
          </cc:Agent>
        </dc:rights>
        <dc:date />
        <dc:format>image/svg+xml</dc:format>
        <dc:type
           rdf:resource="http://purl.org/dc/dcmitype/StillImage" />
        <cc:license
           rdf:resource="http://web.resource.org/cc/PublicDomain" />
        <dc:language>en</dc:language>
      </cc:Work>
      <cc:License
         rdf:about="http://web.resource.org/cc/PublicDomain">
        <cc:permits
           rdf:resource="http://web.resource.org/cc/Reproduction" />
        <cc:permits
           rdf:resource="http://web.resource.org/cc/Distribution" />
        <cc:permits
           rdf:resource="http://web.resource.org/cc/DerivativeWorks" />
      </cc:License>
    </rdf:RDF>
  </metadata>
  <defs
     id="defs3">
    <linearGradient
       id="linearGradient5200">
      <stop
         style="stop-color:#000000;stop-opacity:0;"
         offset="0"
         id="stop5202" />
      <stop
         style="stop-color:#000000;stop-opacity:0.41237113;"
         offset="1"
         id="stop5204" />
    </linearGradient>
    <linearGradient
       id="linearGradient6884">
      <stop
         id="stop6885"
         offset="0"
         style="stop-color:#abe4dd;stop-opacity:0.13265306;" />
      <stop
         id="stop6886"
         offset="1"
         style="stop-color:#0042f7;stop-opacity:1;" />
    </linearGradient>
    <linearGradient
       inkscape:collect="always"
       xlink:href="#linearGradient5200"
       id="linearGradient4151"
       gradientUnits="userSpaceOnUse"
       gradientTransform="translate(16.356134,5.6330919)"
       spreadMethod="reflect"
       x1="-15.79402"
       y1="4.1376262"
       x2="-1.1931106"
       y2="4.1376262" />
    <linearGradient
       inkscape:collect="always"
       xlink:href="#linearGradient6884"
       id="linearGradient3145"
       x1="0.10117644"
       y1="9.3168888"
       x2="14.723556"
       y2="9.3168888"
       gradientUnits="userSpaceOnUse" />
  </defs>
  <sodipodi:namedview
     bordercolor="#666666"
     borderopacity="1.0"
     id="base"
     inkscape:current-layer="layer1"
     inkscape:cx="6.4740172"
     inkscape:cy="9.2430692"
     inkscape:document-units="px"
     inkscape:pageopacity="0.0"
     inkscape:pageshadow="2"
     inkscape:window-height="753"
     inkscape:window-width="1152"
     inkscape:window-x="0"
     inkscape:window-y="84"
     inkscape:zoom="26.327273"
     pagecolor="#ffffff"
     width="18px"
     height="16px" />
  <g
     inkscape:groupmode="layer"
     id="layer2"
     inkscape:label="borda">
    <path
       style="opacity:1;fill:url(#linearGradient4151);fill-opacity:1;fill-rule:evenodd;stroke:none;stroke-width:0.68637216;stroke-linecap:round;stroke-linejoin:round;stroke-miterlimit:4;stroke-dashoffset:0;stroke-opacity:1;display:inline"
       d="M 2.1998838,3.6643419 C 1.1870828,3.6528796 0.53452484,4.7527517 0.66422284,5.6802333 C 0.63783484,8.62756 0.54859484,11.576606 0.56385784,14.52289 C 0.67242184,15.345602 1.4878888,16.019229 2.3242958,15.882961 C 6.1660798,15.870713 10.009697,15.908411 13.850329,15.863705 C 14.764226,15.720246 15.258845,14.705482 15.138642,13.850661 C 15.135792,11.356832 15.187364,8.8610656 15.14841,6.3684428 C 15.03909,5.5316312 14.202359,4.8602713 13.35604,5.0105341 C 10.793572,5.0305533 8.2311028,5.0505726 5.6686338,5.0705919 C 5.2254128,4.5582652 5.2395238,3.4491535 4.2456948,3.6694524 C 3.5639658,3.6449232 2.8818078,3.6796332 2.1998838,3.6643419 z M 2.1998838,4.3518419 C 2.9838718,4.4932725 4.0545578,4.0580476 4.6494728,4.5899291 C 4.7480798,5.3346382 5.2358048,5.9798086 6.0705768,5.7495711 C 8.6306438,5.7471551 11.190562,5.7027657 13.750662,5.7004152 C 14.513674,5.8218719 14.531554,6.740668 14.478025,7.3428091 C 14.460625,9.696347 14.476373,12.051009 14.435058,14.403826 C 14.354789,15.092069 13.607186,15.303598 13.020699,15.195347 C 9.3343358,15.19315 5.6479628,15.20123 1.9616058,15.19112 C 1.1862778,15.086883 1.1775548,14.150605 1.2386538,13.551513 C 1.2765648,10.754841 1.2784828,7.9562662 1.3417048,5.1608158 C 1.4107978,4.7470559 1.7585688,4.3519785 2.1998838,4.3518419 z "
       id="path2274"
       sodipodi:nodetypes="cccccccccccccccccccccc" />
  </g>
  <g
     id="layer1"
     inkscape:groupmode="layer"
     inkscape:label="Layer 1"
     style="display:inline">
    <path
       d="M 1.7500779,3.5491757 L 3.9953168,3.5491757 C 4.4161058,3.5711764 4.6351981,3.8862563 4.6342592,4.3269451 C 4.6344872,4.7246984 4.9097537,4.9340424 5.2400272,4.9340424 L 13.219983,4.8867368 C 13.872148,4.8867368 14.389624,5.4861005 14.380244,6.2306025 L 14.346881,13.740735 C 14.337502,14.485237 13.804924,15.084602 13.152759,15.084602 L 1.6047493,15.084602 C 0.95258472,15.084602 0.4351085,14.485237 0.44448804,13.740735 L 0.55595539,4.8930414 C 0.56533493,4.1485394 1.0979133,3.5491757 1.7500779,3.5491757 z "
       id="path1198"
       sodipodi:nodetypes="cccccccccccc"
       style="opacity:1;fill:url(#linearGradient3145);fill-opacity:1.0;fill-rule:evenodd;stroke:#000000;stroke-width:0.68637216;stroke-linecap:round;stroke-linejoin:round;stroke-miterlimit:4;stroke-dashoffset:0;stroke-opacity:1"
       inkscape:export-xdpi="84"
       inkscape:export-ydpi="84" />
    <path
       style="opacity:1;fill:#000000;fill-opacity:0.00552488;fill-rule:evenodd;stroke:#000000;stroke-width:0.82081926;stroke-linecap:butt;stroke-linejoin:miter;stroke-miterlimit:3.5999999;stroke-dasharray:none;stroke-opacity:0.39226523"
       d="M 0.39024387,5.9448019 C 1.2589742,5.9698631 5.4116379,5.9448019 7.7327315,5.9448019 C 9.5091632,5.9448019 13.400517,5.9448019 13.698503,5.9448019 C 13.851471,5.9448019 14.00444,5.9448019 14.157408,5.9448019"
       id="path3136" />
  </g>
</svg>
