<?xml version="1.0" encoding="UTF-8" standalone="no"?>
<!-- Created with Sodipodi ("http://www.sodipodi.com/") -->
<svg
   xmlns:dc="http://purl.org/dc/elements/1.1/"
   xmlns:cc="http://web.resource.org/cc/"
   xmlns:rdf="http://www.w3.org/1999/02/22-rdf-syntax-ns#"
   xmlns:svg="http://www.w3.org/2000/svg"
   xmlns="http://www.w3.org/2000/svg"
   xmlns:xlink="http://www.w3.org/1999/xlink"
   xmlns:sodipodi="http://sodipodi.sourceforge.net/DTD/sodipodi-0.dtd"
   xmlns:inkscape="http://www.inkscape.org/namespaces/inkscape"
   height="22"
   id="svg1089"
   sodipodi:docbase="C:\ms4w\Apache\htdocs\i3geo\imagens\visual\default"
   sodipodi:docname="redesenha.svg"
   sodipodi:version="0.32"
   space="preserve"
   width="22"
   inkscape:version="0.45.1"
   inkscape:output_extension="org.inkscape.output.svg.inkscape"
   version="1.0"
   inkscape:export-filename="C:\ms4w\Apache\htdocs\i3geo\imagens\visual\default\redesenha.gif"
   inkscape:export-xdpi="90"
   inkscape:export-ydpi="90">
  <metadata
     id="metadata3">
    <rdf:RDF>
      <cc:Work
         rdf:about="">
        <dc:title>magnifying glass</dc:title>
        <dc:description />
        <dc:subject>
          <rdf:Bag>
            <rdf:li>multiplying</rdf:li>
            <rdf:li>magnifying</rdf:li>
            <rdf:li>eye</rdf:li>
            <rdf:li>tool</rdf:li>
            <rdf:li>loupe</rdf:li>
            <rdf:li>glass</rdf:li>
          </rdf:Bag>
        </dc:subject>
        <dc:publisher>
          <cc:Agent
             rdf:about="http://www.openclipart.org/">
            <dc:title>Open Clip Art Library</dc:title>
          </cc:Agent>
        </dc:publisher>
        <dc:creator>
          <cc:Agent>
            <dc:title>Tom&amp;Atilde;&amp;iexcl;&amp;Aring;&amp;iexcl; Kratochv&amp;Atilde;&amp;shy;la</dc:title>
          </cc:Agent>
        </dc:creator>
        <dc:rights>
          <cc:Agent>
            <dc:title>Tom&amp;Atilde;&amp;iexcl;&amp;Aring;&amp;iexcl; Kratochv&amp;Atilde;&amp;shy;la</dc:title>
          </cc:Agent>
        </dc:rights>
        <dc:date />
        <dc:format>image/svg+xml</dc:format>
        <dc:type
           rdf:resource="http://purl.org/dc/dcmitype/StillImage" />
        <cc:license
           rdf:resource="http://web.resource.org/cc/PublicDomain" />
        <dc:language>en</dc:language>
      </cc:Work>
      <cc:License
         rdf:about="http://web.resource.org/cc/PublicDomain">
        <cc:permits
           rdf:resource="http://web.resource.org/cc/Reproduction" />
        <cc:permits
           rdf:resource="http://web.resource.org/cc/Distribution" />
        <cc:permits
           rdf:resource="http://web.resource.org/cc/DerivativeWorks" />
      </cc:License>
    </rdf:RDF>
  </metadata>
  <defs
     id="defs1091">
    <linearGradient
       id="linearGradient5291">
      <stop
         style="stop-color:#460be6;stop-opacity:1;"
         offset="0"
         id="stop5293" />
      <stop
         style="stop-color:#000000;stop-opacity:0;"
         offset="1"
         id="stop5295" />
    </linearGradient>
    <linearGradient
       id="linearGradient2078">
      <stop
         id="stop2080"
         offset="0.0000000"
         style="stop-color:#cad8f4;stop-opacity:1.0000000;" />
      <stop
         id="stop2082"
         offset="1.0000000"
         style="stop-color:#d4ffce;stop-opacity:1.0000000;" />
    </linearGradient>
    <linearGradient
       gradientTransform="matrix(0.968115,0,0,1.032935,1.34375,1)"
       gradientUnits="userSpaceOnUse"
       id="linearGradient2084"
       x1="16.887327"
       x2="60.902569"
       xlink:href="#linearGradient2078"
       y1="6.2155557"
       y2="65.818466" />
    <linearGradient
       id="linearGradient2116">
      <stop
         id="stop2118"
         offset="0.0000000"
         style="stop-color:#abb7ce;stop-opacity:1.0000000;" />
      <stop
         id="stop2120"
         offset="1.0000000"
         style="stop-color:#8dba87;stop-opacity:1.0000000;" />
    </linearGradient>
    <linearGradient
       gradientTransform="matrix(0.968115,0,0,1.032935,3,2)"
       gradientUnits="userSpaceOnUse"
       id="linearGradient2114"
       x1="16.887327"
       x2="60.902569"
       xlink:href="#linearGradient2116"
       y1="6.2155557"
       y2="65.818466" />
    <linearGradient
       id="linearGradient37404">
      <stop
         id="stop37406"
         offset="0.0000000"
         style="stop-color:#3f86ff;stop-opacity:1.0000000;" />
      <stop
         id="stop37412"
         offset="0.38000000"
         style="stop-color:#9fe1ff;stop-opacity:1.0000000;" />
      <stop
         id="stop37408"
         offset="1.0000000"
         style="stop-color:#ffffff;stop-opacity:1.0000000;" />
    </linearGradient>
    <linearGradient
       inkscape:collect="always"
       xlink:href="#linearGradient37404"
       id="linearGradient11756"
       x1="0.21578404"
       y1="11.148622"
       x2="21.782246"
       y2="11.148622"
       gradientUnits="userSpaceOnUse" />
    <linearGradient
       inkscape:collect="always"
       xlink:href="#linearGradient5291"
       id="linearGradient5297"
       x1="3.34375"
       y1="32.808624"
       x2="60.65625"
       y2="32.808624"
       gradientUnits="userSpaceOnUse" />
  </defs>
  <sodipodi:namedview
     id="base"
     width="22px"
     height="22px"
     inkscape:zoom="3.3866668"
     inkscape:cx="17.419779"
     inkscape:cy="9.9455271"
     inkscape:window-width="758"
     inkscape:window-height="579"
     inkscape:window-x="277"
     inkscape:window-y="76"
     inkscape:current-layer="svg1089" />
  <rect
     height="21.425793"
     id="rect36642"
     rx="1.5514623"
     ry="1.8960879"
     style="fill:url(#linearGradient11756);fill-opacity:1.0;fill-rule:nonzero;stroke:#007cdb;stroke-width:0.389;stroke-linecap:round;stroke-linejoin:round;stroke-miterlimit:4;stroke-opacity:1;stroke-dasharray:none"
     width="21.177462"
     x="0.41028404"
     y="0.43572599" />
  <g
     id="layer1"
     transform="matrix(0.3199324,0,0,0.2958306,0.9826367,1.295188)"
     style="fill-opacity:1.0;fill:url(#linearGradient5297)">
    <path
       d="M 22.871808,3.6702632 C 22.730194,3.8955823 28.840808,15.271755 28.965133,15.507056 C 29.089457,15.742357 35.025754,27.188095 35.291694,27.198075 C 35.48008,27.205147 38.340274,22.560014 40.39376,19.268008 C 46.371501,22.097134 50.539582,28.133328 50.539582,35.186453 C 50.539582,44.971225 42.598319,52.912487 32.813547,52.912487 C 23.028776,52.912489 15.087513,44.971225 15.087513,35.186453 C 15.087513,31.136792 16.501903,27.443355 18.790155,24.457538 C 15.782485,20.575631 12.814873,19.103059 10.685159,18.480831 C 7.1639818,23.146174 5,28.894398 5,35.186453 C 5,50.55026 17.449742,63 32.813547,63 C 48.177355,63 60.65625,50.550259 60.65625,35.186453 C 60.65625,24.516701 54.563483,15.36446 45.729063,10.725692 C 47.585168,7.7685948 49.527366,4.7873934 49.460859,4.6615218 C 49.336535,4.4262212 36.432273,4.0301007 36.166334,4.0201191 C 35.900395,4.0101377 23.013422,3.4449442 22.871808,3.6702632 z "
       id="path2112"
       style="fill:url(#linearGradient5297);fill-opacity:1.0;stroke:none;stroke-width:0.375;stroke-miterlimit:4;stroke-opacity:1" />
    <path
       d="M 21.215558,2.6702632 C 21.073944,2.8955823 27.184558,14.271755 27.308883,14.507056 C 27.433207,14.742357 33.369504,26.188095 33.635444,26.198075 C 33.82383,26.205147 36.684024,21.560014 38.73751,18.268008 C 44.715251,21.097134 48.883332,27.133328 48.883332,34.186453 C 48.883332,43.971225 40.942069,51.912487 31.157297,51.912487 C 21.372526,51.912489 13.431263,43.971225 13.431263,34.186453 C 13.431263,30.136792 14.845653,26.443355 17.133905,23.457538 C 14.126235,19.575631 11.158623,18.103059 9.028909,17.480831 C 5.5077318,22.146174 3.34375,27.894398 3.34375,34.186453 C 3.34375,49.55026 15.793492,62 31.157297,62 C 46.521105,62 59,49.550259 59,34.186453 C 59,23.516701 52.907233,14.36446 44.072813,9.7256916 C 45.928918,6.7685948 47.871116,3.7873934 47.804609,3.6615218 C 47.680285,3.4262212 34.776023,3.0301007 34.510084,3.0201191 C 34.244145,3.0101377 21.357172,2.4449442 21.215558,2.6702632 z "
       id="path1301"
       style="fill:url(#linearGradient5297);fill-opacity:1.0;stroke:none;stroke-width:0.375;stroke-miterlimit:4;stroke-opacity:1" />
    <path
       d="M 22.666667,3.5 C 22.666667,3.5 30.5,4 32,4 C 33.5,4 38.5,3 41.5,4 C 44.5,5 46,5 42.5,5 C 39,5 24,4.5 24,4.5 C 24,4.5 31,13.5 31,17.5 C 31,21.5 22.666667,3.5 22.666667,3.5 z "
       id="path2136"
       style="fill:url(#linearGradient5297);fill-opacity:1.0;fill-rule:evenodd;stroke:none;stroke-width:1px;stroke-linecap:butt;stroke-linejoin:miter;stroke-opacity:1" />
    <path
       d="M 9.3333333,18.833333 C 9.3333333,18.833333 11.5,19 11,20 C 10.5,21 5,33 8,41.5 C 11,50 5,37 5,37 C 5,37 2.6666667,27.166667 9.3333333,18.833333 z "
       id="path2138"
       style="fill:url(#linearGradient5297);fill-opacity:1.0;fill-rule:evenodd;stroke:none;stroke-width:1px;stroke-linecap:butt;stroke-linejoin:miter;stroke-opacity:1" />
  </g>
</svg>
