<?xml version="1.0" encoding="UTF-8" standalone="no"?>
<!-- Created with Sodipodi ("http://www.sodipodi.com/") -->
<svg
   xmlns:dc="http://purl.org/dc/elements/1.1/"
   xmlns:cc="http://web.resource.org/cc/"
   xmlns:rdf="http://www.w3.org/1999/02/22-rdf-syntax-ns#"
   xmlns:svg="http://www.w3.org/2000/svg"
   xmlns="http://www.w3.org/2000/svg"
   xmlns:xlink="http://www.w3.org/1999/xlink"
   xmlns:sodipodi="http://sodipodi.sourceforge.net/DTD/sodipodi-0.dtd"
   xmlns:inkscape="http://www.inkscape.org/namespaces/inkscape"
   height="22"
   id="svg1089"
   sodipodi:docbase="C:\ms4w\Apache\htdocs\i3geo\imagens\visual\laranja"
   sodipodi:docname="area.svg"
   sodipodi:version="0.32"
   space="preserve"
   width="22"
   inkscape:version="0.45.1"
   inkscape:output_extension="org.inkscape.output.svg.inkscape"
   version="1.0"
   inkscape:export-filename="C:\ms4w\Apache\htdocs\i3geo\imagens\visual\laranja\zoomli.png"
   inkscape:export-xdpi="90"
   inkscape:export-ydpi="90">
  <metadata
     id="metadata3">
    <rdf:RDF>
      <cc:Work
         rdf:about="">
        <dc:title>magnifying glass</dc:title>
        <dc:description />
        <dc:subject>
          <rdf:Bag>
            <rdf:li>multiplying</rdf:li>
            <rdf:li>magnifying</rdf:li>
            <rdf:li>eye</rdf:li>
            <rdf:li>tool</rdf:li>
            <rdf:li>loupe</rdf:li>
            <rdf:li>glass</rdf:li>
          </rdf:Bag>
        </dc:subject>
        <dc:publisher>
          <cc:Agent
             rdf:about="http://www.openclipart.org/">
            <dc:title>Open Clip Art Library</dc:title>
          </cc:Agent>
        </dc:publisher>
        <dc:creator>
          <cc:Agent>
            <dc:title>Tom&amp;Atilde;&amp;iexcl;&amp;Aring;&amp;iexcl; Kratochv&amp;Atilde;&amp;shy;la</dc:title>
          </cc:Agent>
        </dc:creator>
        <dc:rights>
          <cc:Agent>
            <dc:title>Tom&amp;Atilde;&amp;iexcl;&amp;Aring;&amp;iexcl; Kratochv&amp;Atilde;&amp;shy;la</dc:title>
          </cc:Agent>
        </dc:rights>
        <dc:date />
        <dc:format>image/svg+xml</dc:format>
        <dc:type
           rdf:resource="http://purl.org/dc/dcmitype/StillImage" />
        <cc:license
           rdf:resource="http://web.resource.org/cc/PublicDomain" />
        <dc:language>en</dc:language>
      </cc:Work>
      <cc:License
         rdf:about="http://web.resource.org/cc/PublicDomain">
        <cc:permits
           rdf:resource="http://web.resource.org/cc/Reproduction" />
        <cc:permits
           rdf:resource="http://web.resource.org/cc/Distribution" />
        <cc:permits
           rdf:resource="http://web.resource.org/cc/DerivativeWorks" />
      </cc:License>
    </rdf:RDF>
  </metadata>
  <defs
     id="defs1091">
    <linearGradient
       id="linearGradient37404">
      <stop
         id="stop37406"
         offset="0"
         style="stop-color:#ffd23f;stop-opacity:1;" />
      <stop
         id="stop37408"
         offset="1.0000000"
         style="stop-color:#ffffff;stop-opacity:1.0000000;" />
    </linearGradient>
    <linearGradient
       inkscape:collect="always"
       xlink:href="#linearGradient37404"
       id="linearGradient11756"
       x1="0.21578404"
       y1="11.148622"
       x2="21.782246"
       y2="11.148622"
       gradientUnits="userSpaceOnUse" />
  </defs>
  <sodipodi:namedview
     id="base"
     width="22px"
     height="22px"
     inkscape:zoom="13.546667"
     inkscape:cx="17.419779"
     inkscape:cy="9.9455271"
     inkscape:window-width="758"
     inkscape:window-height="579"
     inkscape:window-x="277"
     inkscape:window-y="76"
     inkscape:current-layer="svg1089" />
  <rect
     height="21.425793"
     id="rect36642"
     rx="1.5514623"
     ry="1.8960879"
     style="fill:url(#linearGradient11756);fill-opacity:1.0;fill-rule:nonzero;stroke:#db9900;stroke-width:0.389;stroke-linecap:round;stroke-linejoin:round;stroke-miterlimit:4;stroke-opacity:1;stroke-dasharray:none"
     width="21.177462"
     x="0.41028404"
     y="0.43572599" />
  <path
     style="opacity:0.74761903;fill:#db9900;fill-opacity:1;fill-rule:evenodd;stroke:#ff0000;stroke-width:0.2;stroke-linecap:butt;stroke-linejoin:miter;stroke-miterlimit:4;stroke-dasharray:none;stroke-opacity:1"
     d="M 3.691098,11.751199 C 3.691098,11.646216 3.691098,11.302902 3.691098,11.086829 C 3.691098,10.849465 3.684917,10.601 3.728007,10.385549 C 3.791565,10.067761 3.943244,9.7551835 4.060192,9.4628125 C 4.174617,9.1767525 4.342942,8.9586065 4.540015,8.7615335 C 4.766878,8.5346707 4.837713,8.2066806 5.130566,8.0602539 C 5.258897,7.9960885 5.376629,7.9126161 5.499661,7.8387972 C 5.884438,7.6079307 6.321135,7.65425 6.754582,7.65425 C 7.209799,7.65425 7.665015,7.65425 8.120232,7.65425 C 8.560648,7.65425 9.082952,7.7147408 9.485881,7.5804311 C 9.9001962,7.4423259 10.272598,7.0457577 10.593166,6.8053327 C 10.740804,6.6946043 10.888442,6.583876 11.036079,6.4731476 C 11.093471,6.4301042 11.159111,6.3993287 11.220627,6.3624193 C 11.935938,5.9332325 12.256734,5.3992496 12.697005,4.8122225 C 13.007337,4.3984453 13.613103,4.0074725 14.099564,3.9263957 C 14.247201,3.9017894 14.394839,3.8771831 14.542477,3.8525768 C 15.393237,3.710783 16.049267,4.096843 16.609406,4.5169469 C 16.734681,4.610903 16.830863,4.7384036 16.941591,4.8491319 C 17.44495,5.3524913 17.318029,6.3330459 17.163048,6.9529705 C 16.976481,7.6992362 16.120521,8.5052677 15.64976,9.0937185 C 15.232698,9.6150455 14.911175,10.513742 15.169938,11.160648 C 15.21915,11.283679 15.268363,11.406711 15.317575,11.529742 C 15.620712,12.287585 16.585255,13.092697 17.163048,13.67049 C 17.539226,14.046668 17.569052,14.727944 17.569052,15.220687 C 17.569052,15.812038 17.502713,15.958712 17.236867,16.401789 C 16.863389,17.024252 15.647999,17.398932 14.98539,17.619801 C 14.00334,17.947151 12.487043,17.503425 11.515902,17.287616 C 11.419073,17.266099 11.319052,17.26301 11.220627,17.250707 C 10.966861,17.218986 10.064887,16.68552 9.8549762,16.475608 C 9.466372,16.087005 9.001451,15.769722 8.600054,15.368325 C 8.044158,14.812428 7.701855,14.064122 7.160586,13.522852 C 6.80668,13.168947 6.3698,12.966673 5.979484,12.673935 C 5.623834,12.407198 5.102461,12.310123 4.724562,12.083384 C 4.547964,11.977425 4.338488,11.964166 4.20783,11.898837 C 4.188837,11.88934 4.03464,11.864199 4.023283,11.861927"
     id="path2197" />
</svg>
