<?xml version="1.0" encoding="UTF-8" standalone="no"?>
<!-- Created with Inkscape (http://www.inkscape.org/) -->
<svg
   xmlns:dc="http://purl.org/dc/elements/1.1/"
   xmlns:cc="http://web.resource.org/cc/"
   xmlns:rdf="http://www.w3.org/1999/02/22-rdf-syntax-ns#"
   xmlns:svg="http://www.w3.org/2000/svg"
   xmlns="http://www.w3.org/2000/svg"
   xmlns:xlink="http://www.w3.org/1999/xlink"
   xmlns:sodipodi="http://sodipodi.sourceforge.net/DTD/sodipodi-0.dtd"
   xmlns:inkscape="http://www.inkscape.org/namespaces/inkscape"
   height="14"
   id="svg548"
   inkscape:version="0.45.1"
   sodipodi:docbase="C:\ms4w\Apache\htdocs\i3geo\imagens\visual\laranja"
   sodipodi:docname="cmdLink.svg"
   sodipodi:version="0.32"
   width="14"
   inkscape:output_extension="org.inkscape.output.svg.inkscape"
   version="1.0"
   inkscape:export-filename="C:\ms4w\Apache\htdocs\i3geo\imagens\temas\default\cmdLink.gif"
   inkscape:export-xdpi="90"
   inkscape:export-ydpi="90">
  <metadata
     id="metadata3">
    <rdf:RDF>
      <cc:Work
         rdf:about="">
        <dc:title>Clipart by Nicu Buculei - antenna</dc:title>
        <dc:description />
        <dc:subject>
          <rdf:Bag>
            <rdf:li>hash</rdf:li>
            <rdf:li />
            <rdf:li>diagrams</rdf:li>
            <rdf:li>computer</rdf:li>
          </rdf:Bag>
        </dc:subject>
        <dc:publisher>
          <cc:Agent
             rdf:about="http://www.openclipart.org">
            <dc:title>Nicu Buculei</dc:title>
          </cc:Agent>
        </dc:publisher>
        <dc:creator>
          <cc:Agent>
            <dc:title>Nicu Buculei</dc:title>
          </cc:Agent>
        </dc:creator>
        <dc:rights>
          <cc:Agent>
            <dc:title>Nicu Buculei</dc:title>
          </cc:Agent>
        </dc:rights>
        <dc:date />
        <dc:format>image/svg+xml</dc:format>
        <dc:type
           rdf:resource="http://purl.org/dc/dcmitype/StillImage" />
        <cc:license
           rdf:resource="http://web.resource.org/cc/PublicDomain" />
        <dc:language>en</dc:language>
      </cc:Work>
      <cc:License
         rdf:about="http://web.resource.org/cc/PublicDomain">
        <cc:permits
           rdf:resource="http://web.resource.org/cc/Reproduction" />
        <cc:permits
           rdf:resource="http://web.resource.org/cc/Distribution" />
        <cc:permits
           rdf:resource="http://web.resource.org/cc/DerivativeWorks" />
      </cc:License>
    </rdf:RDF>
  </metadata>
  <defs
     id="defs550">
    <linearGradient
       id="linearGradient1164">
      <stop
         id="stop1165"
         offset="0.000000"
         style="stop-color:#263d42;stop-opacity:1;" />
      <stop
         id="stop1166"
         offset="1.000000"
         style="stop-color:#9acde7;stop-opacity:1;" />
    </linearGradient>
    <linearGradient
       gradientUnits="objectBoundingBox"
       id="linearGradient1167"
       spreadMethod="reflect"
       x1="0.47572812"
       x2="-0.13106795"
       xlink:href="#linearGradient1164"
       y1="0.60155678"
       y2="-0.1250001" />
  </defs>
  <sodipodi:namedview
     id="base"
     inkscape:cx="7.3055743"
     inkscape:cy="5.1949931"
     inkscape:window-height="635"
     inkscape:window-width="758"
     inkscape:window-x="281"
     inkscape:window-y="78"
     inkscape:zoom="12.36"
     showgrid="true"
     width="14px"
     height="14px"
     inkscape:current-layer="svg548" />
  <g
     transform="matrix(2.7244233e-2,0,0,3.4118817e-2,3.0975952,0.3041874)"
     style="stroke:#000000;stroke-width:4.29749012;stroke-dasharray:none;stroke-opacity:1"
     id="g770">
    <path
       style="fill:#b3b2b3;fill-opacity:1;fill-rule:evenodd;stroke:#000000;stroke-width:4.29749012;stroke-linecap:butt;stroke-linejoin:bevel;stroke-dasharray:none;stroke-opacity:1"
       sodipodi:nodetypes="ccccc"
       id="path743"
       d="M 299.842,180.38 L 177.215,74.367 L 250.791,71.9936 L 385.285,162.183 C 385.285,162.183 353.639,191.456 299.842,180.38 z " />
    <g
       style="stroke:#000000;stroke-width:4.29749012;stroke-dasharray:none;stroke-opacity:1"
       id="g761">
      <path
         style="fill:#b3b2b3;fill-opacity:1;fill-rule:evenodd;stroke:#000000;stroke-width:4.29749012;stroke-linecap:butt;stroke-linejoin:bevel;stroke-dasharray:none;stroke-opacity:1"
         sodipodi:nodetypes="ccccc"
         id="path744"
         d="M 176.424,74.367 L 178.006,238.924 L 300.633,364.715 L 301.424,181.962 L 176.424,74.367 z " />
      <g
         style="stroke:#000000;stroke-width:4.29749012;stroke-dasharray:none;stroke-opacity:1"
         id="g754">
        <path
           style="fill:#cccccc;fill-opacity:1;fill-rule:evenodd;stroke:#000000;stroke-width:4.29749012;stroke-linecap:butt;stroke-linejoin:bevel;stroke-dasharray:none;stroke-opacity:1"
           sodipodi:nodetypes="ccccccc"
           id="path742"
           d="M 302.216,181.171 C 302.216,181.171 328.323,184.335 348.102,180.38 C 375,170.095 386.076,163.766 386.076,163.766 L 386.867,342.563 C 386.867,342.563 371.835,353.639 353.64,360.759 C 323.576,367.088 300.633,364.715 300.633,364.715 L 302.216,181.171 z " />
        <g
           style="stroke:#000000;stroke-width:4.29749012;stroke-dasharray:none;stroke-opacity:1"
           id="g749">
          <path
             transform="translate(-1.58226,0)"
             style="fill:none;fill-opacity:1;fill-rule:evenodd;stroke:#000000;stroke-width:4.29749012;stroke-linecap:butt;stroke-linejoin:miter;stroke-dasharray:none;stroke-opacity:1"
             id="path745"
             d="M 315.665,205.696 C 315.665,205.696 378.956,192.247 378.956,193.038 C 378.956,193.829 378.165,218.354 378.165,218.354 C 378.165,218.354 316.456,231.804 315.665,231.804 C 314.874,231.804 314.874,207.278 315.665,205.696 z " />
          <path
             style="fill:#000100;fill-opacity:1;fill-rule:evenodd;stroke:#000000;stroke-width:4.29749012;stroke-linecap:butt;stroke-linejoin:miter;stroke-dasharray:none;stroke-opacity:1"
             sodipodi:nodetypes="ccccc"
             id="path746"
             d="M 323.576,246.835 L 370.253,237.342 L 370.253,241.298 L 323.576,251.582 L 323.576,246.835 z " />
          <path
             style="fill:#00b300;fill-opacity:1;fill-rule:evenodd;stroke:#000000;stroke-width:4.29749012;stroke-linecap:butt;stroke-linejoin:miter;stroke-dasharray:none;stroke-opacity:1"
             sodipodi:nodetypes="ccccc"
             id="path747"
             d="M 360.76,268.987 L 372.627,267.405 L 372.627,279.272 L 360.76,281.646 L 360.76,268.987 z " />
          <path
             style="fill:#b3b3b3;fill-opacity:1;fill-rule:evenodd;stroke:#000000;stroke-width:4.29749012;stroke-linecap:butt;stroke-linejoin:miter;stroke-dasharray:none;stroke-opacity:1"
             sodipodi:nodetypes="ccccc"
             id="path748"
             d="M 365.506,298.259 L 373.418,297.468 L 373.418,306.962 L 365.506,308.544 L 365.506,298.259 z " />
        </g>
      </g>
    </g>
  </g>
  <g
     id="g801"
     style="stroke:#000000;stroke-width:4.29749012;stroke-dasharray:none;stroke-opacity:1"
     transform="matrix(2.3667693e-2,0,0,2.8721528e-2,-0.5803945,0.7862686)">
    <path
       d="M 119.557,425.383 L 119.557,438.102 L 435.832,344.83 L 436.68,329.568 L 119.557,425.383 z "
       id="path607"
       sodipodi:nodetypes="ccccc"
       style="font-size:12px;fill:#b3b3b3;fill-rule:evenodd;stroke:#000000;stroke-width:4.29749012;stroke-dasharray:none;stroke-opacity:1"
       transform="translate(-0.847921,19.50222)" />
    <g
       id="g798"
       style="stroke:#000000;stroke-width:4.29749012;stroke-dasharray:none;stroke-opacity:1">
      <path
         d="M 166.193,347.374 L 119.557,426.231 L 436.68,329.568 L 345.104,298.194 L 166.193,347.374 z "
         id="path606"
         sodipodi:nodetypes="ccccc"
         style="font-size:12px;fill:#cccccc;fill-rule:evenodd;stroke:#000000;stroke-width:4.29749012;stroke-dasharray:none;stroke-opacity:1"
         transform="translate(-0.847921,19.50222)" />
      <path
         d="M 139.059,335.503 C 139.059,335.503 127.188,354.157 132.275,369.42 C 136.515,388.075 150.082,392.314 153.474,392.314 C 156.866,392.314 377.177,334.884 377.177,334.884 C 377.177,334.884 383.26,322.784 386.652,303.282 C 379.869,279.54 367.15,276.996 352.735,276.996 C 328.993,263.43 353.584,276.996 353.584,276.996 L 139.059,335.503 z "
         id="path605"
         sodipodi:nodetypes="cccccccc"
         style="fill:#cccccc;fill-opacity:1;fill-rule:evenodd;stroke:#000000;stroke-width:4.29749012;stroke-linecap:butt;stroke-linejoin:miter;stroke-dasharray:none;stroke-opacity:1"
         transform="matrix(0.708121,0,0,0.825311,71.30738,59.20586)" />
    </g>
  </g>
  <path
     style="fill:#b3b3b3;fill-opacity:1;fill-rule:evenodd;stroke:#000000;stroke-width:0.11204607;stroke-linecap:butt;stroke-linejoin:miter;stroke-dasharray:none;stroke-opacity:1"
     sodipodi:nodetypes="cccccccc"
     id="path602"
     d="M 9.3735271,1.2654701 C 9.3735271,1.2898231 8.8717957,1.1193465 8.3500178,1.0706385 C 8.109199,1.0949935 0.98493706,2.6779776 0.92473355,2.6779776 C 1.0250751,2.6536246 0.70398025,2.6779776 0.62370653,2.8971602 C 0.54343282,3.1163428 0.54343282,10.641601 0.54343282,10.641601 C 0.54343282,10.641601 0.54343518,10.860805 0.66384457,11.031266 C 0.84445984,11.12869 1.3260997,11.153046 1.1454844,11.153046 L 9.3735271,1.2654701 z " />
  <g
     style="fill:#ffffc1;fill-opacity:1;stroke:#000000;stroke-width:4.29749012;stroke-dasharray:none;stroke-opacity:1"
     id="g806"
     transform="matrix(2.3667693e-2,0,0,2.8721528e-2,-0.5803945,0.7862686)">
    <path
       transform="matrix(0.995445,0,0,0.910163,2.817975,-20.11005)"
       style="fill:#ffffc1;fill-opacity:1;fill-rule:evenodd;stroke:#000000;stroke-width:4.29749012;stroke-linecap:butt;stroke-linejoin:miter;stroke-dasharray:none;stroke-opacity:1"
       sodipodi:nodetypes="ccccccccc"
       id="path600"
       d="M 71.2332,108.009 L 418.873,40.4261 C 423.961,43.8178 429.049,41.2741 431.593,51.4492 C 434.137,61.6241 430.745,304.978 430.745,304.978 C 430.745,304.978 432.44,312.609 426.505,316.849 C 420.569,321.088 79.6699,416.904 79.6699,416.904 C 79.6699,416.904 69.4946,421.143 63.5593,412.664 C 55.0803,410.121 60.2025,124.37 60.2025,124.37 C 60.2025,124.37 61.0271,110.72 71.2332,108.009 z " />
    <g
       style="fill:#ffffc1;fill-opacity:1;stroke:#000000;stroke-width:4.29749012;stroke-dasharray:none;stroke-opacity:1"
       id="g795">
      <path
         style="fill:#ffffc1;fill-opacity:1;fill-rule:evenodd;stroke:#000000;stroke-width:4.29749012;stroke-linecap:butt;stroke-linejoin:miter;stroke-dasharray:none;stroke-opacity:1"
         sodipodi:nodetypes="ccccccccccc"
         id="path603"
         d="M 89.0318,98.0844 L 394.284,38.7303 C 394.284,38.7303 401.915,36.1865 407.851,45.5137 C 413.786,54.8408 412.09,59.0804 412.09,59.0804 L 412.09,234.6 C 411.242,243.927 412.938,240.535 407.851,250.711 C 397.675,254.102 105.142,333.807 105.142,333.807 C 105.142,333.807 105.142,335.503 94.9673,333.807 C 84.7922,332.111 81.4005,316.001 81.4005,315.153 C 81.4005,314.305 78.0088,115.891 78.0088,115.891 C 78.0088,115.891 79.7048,101.476 89.0318,98.0844 z " />
      <path
         style="fill:#ffffc1;fill-opacity:1;fill-rule:evenodd;stroke:#000000;stroke-width:4.29749012;stroke-linecap:butt;stroke-linejoin:miter;stroke-dasharray:none;stroke-opacity:1"
         sodipodi:nodetypes="ccccc"
         id="path604"
         d="M 368.846,266.821 L 398.523,258.342 L 398.523,271.909 C 398.523,271.909 368.846,279.54 368.846,280.388 C 368.846,281.236 368.846,266.821 368.846,266.821 z " />
    </g>
  </g>
</svg>
