<?xml version="1.0" encoding="UTF-8" standalone="no"?>
<!-- Created with Sodipodi ("http://www.sodipodi.com/") -->
<svg
   xmlns:dc="http://purl.org/dc/elements/1.1/"
   xmlns:cc="http://web.resource.org/cc/"
   xmlns:rdf="http://www.w3.org/1999/02/22-rdf-syntax-ns#"
   xmlns:svg="http://www.w3.org/2000/svg"
   xmlns="http://www.w3.org/2000/svg"
   xmlns:xlink="http://www.w3.org/1999/xlink"
   xmlns:sodipodi="http://sodipodi.sourceforge.net/DTD/sodipodi-0.dtd"
   xmlns:inkscape="http://www.inkscape.org/namespaces/inkscape"
   height="22"
   id="svg1089"
   sodipodi:docbase="C:\ms4w\Apache\htdocs\i3geo\imagens\visual\laranja"
   sodipodi:docname="imprime.svg"
   sodipodi:version="0.32"
   space="preserve"
   width="22"
   inkscape:version="0.45.1"
   inkscape:output_extension="org.inkscape.output.svg.inkscape"
   version="1.0"
   inkscape:export-filename="C:\ms4w\Apache\htdocs\i3geo\imagens\visual\laranja\imprime.gif"
   inkscape:export-xdpi="90"
   inkscape:export-ydpi="90">
  <metadata
     id="metadata3">
    <rdf:RDF>
      <cc:Work
         rdf:about="">
        <dc:title>magnifying glass</dc:title>
        <dc:description />
        <dc:subject>
          <rdf:Bag>
            <rdf:li>multiplying</rdf:li>
            <rdf:li>magnifying</rdf:li>
            <rdf:li>eye</rdf:li>
            <rdf:li>tool</rdf:li>
            <rdf:li>loupe</rdf:li>
            <rdf:li>glass</rdf:li>
          </rdf:Bag>
        </dc:subject>
        <dc:publisher>
          <cc:Agent
             rdf:about="http://www.openclipart.org/">
            <dc:title>Open Clip Art Library</dc:title>
          </cc:Agent>
        </dc:publisher>
        <dc:creator>
          <cc:Agent>
            <dc:title>Tom&amp;Atilde;&amp;iexcl;&amp;Aring;&amp;iexcl; Kratochv&amp;Atilde;&amp;shy;la</dc:title>
          </cc:Agent>
        </dc:creator>
        <dc:rights>
          <cc:Agent>
            <dc:title>Tom&amp;Atilde;&amp;iexcl;&amp;Aring;&amp;iexcl; Kratochv&amp;Atilde;&amp;shy;la</dc:title>
          </cc:Agent>
        </dc:rights>
        <dc:date />
        <dc:format>image/svg+xml</dc:format>
        <dc:type
           rdf:resource="http://purl.org/dc/dcmitype/StillImage" />
        <cc:license
           rdf:resource="http://web.resource.org/cc/PublicDomain" />
        <dc:language>en</dc:language>
      </cc:Work>
      <cc:License
         rdf:about="http://web.resource.org/cc/PublicDomain">
        <cc:permits
           rdf:resource="http://web.resource.org/cc/Reproduction" />
        <cc:permits
           rdf:resource="http://web.resource.org/cc/Distribution" />
        <cc:permits
           rdf:resource="http://web.resource.org/cc/DerivativeWorks" />
      </cc:License>
    </rdf:RDF>
  </metadata>
  <defs
     id="defs1091">
    <linearGradient
       id="linearGradient7993"
       x1="52.245804"
       x2="51.166566"
       xlink:href="#linearGradient2529"
       y1="354.08058"
       y2="302.0385"
       gradientTransform="scale(1.5701124,0.6368971)"
       gradientUnits="userSpaceOnUse" />
    <linearGradient
       id="linearGradient7984"
       x1="29.820843"
       x2="29.820843"
       xlink:href="#linearGradient2541"
       y1="788.43972"
       y2="772.75572"
       gradientTransform="scale(2.8227189,0.3542684)"
       gradientUnits="userSpaceOnUse" />
    <linearGradient
       id="linearGradient1568">
      <stop
         id="stop1569"
         offset="0.0000000"
         style="stop-color:#dedede;stop-opacity:1.0000000;" />
      <stop
         id="stop1574"
         offset="0.42928788"
         style="stop-color:#ababab;stop-opacity:1.0000000;" />
      <stop
         id="stop3320"
         offset="0.58570588"
         style="stop-color:#e3e3e3;stop-opacity:1.0000000;" />
      <stop
         id="stop1570"
         offset="1.0000000"
         style="stop-color:#ffffff;stop-opacity:1.0000000;" />
    </linearGradient>
    <linearGradient
       id="linearGradient7992"
       x1="43.817415"
       x2="43.648368"
       xlink:href="#linearGradient1568"
       y1="556.82405"
       y2="527.86148"
       gradientTransform="scale(1.9505475,0.5126766)"
       gradientUnits="userSpaceOnUse" />
    <linearGradient
       id="linearGradient7980"
       x1="45.9103"
       x2="61.89532"
       xlink:href="#linearGradient1492"
       y1="179.99638"
       y2="312.35285"
       gradientTransform="scale(1.260685,0.7932196)"
       gradientUnits="userSpaceOnUse" />
    <linearGradient
       id="linearGradient2529">
      <stop
         id="stop2530"
         offset="0.0000000"
         style="stop-color:#ffffff;stop-opacity:0.0000000;" />
      <stop
         id="stop2532"
         offset="1.0000000"
         style="stop-color:#ffffff;stop-opacity:1.0000000;" />
    </linearGradient>
    <linearGradient
       id="linearGradient7987"
       x1="30.167488"
       x2="30.167488"
       xlink:href="#linearGradient2529"
       y1="558.52251"
       y2="506.45761"
       gradientTransform="scale(2.3125735,0.4324187)"
       gradientUnits="userSpaceOnUse" />
    <linearGradient
       id="linearGradient2541">
      <stop
         id="stop2542"
         offset="0.0000000"
         style="stop-color:#000000;stop-opacity:0.0000000;" />
      <stop
         id="stop2543"
         offset="1.0000000"
         style="stop-color:#000000;stop-opacity:1.0000000;" />
    </linearGradient>
    <linearGradient
       id="linearGradient7975"
       x1="28.147951"
       x2="28.547578"
       xlink:href="#linearGradient2541"
       y1="796.80418"
       y2="754.34387"
       gradientTransform="scale(2.8227189,0.3542684)"
       gradientUnits="userSpaceOnUse" />
    <linearGradient
       id="linearGradient3418"
       x1="57.077743"
       x2="66.950995"
       xlink:href="#linearGradient1806"
       y1="353.53793"
       y2="518.57755"
       gradientTransform="scale(1.5082338,0.6630272)"
       gradientUnits="userSpaceOnUse" />
    <linearGradient
       id="linearGradient1492">
      <stop
         id="stop1493"
         offset="0.0000000"
         style="stop-color:#c6c6c6;stop-opacity:1.0000000;" />
      <stop
         id="stop1496"
         offset="0.34923077"
         style="stop-color:#f1f1f1;stop-opacity:1.0000000;" />
      <stop
         id="stop1494"
         offset="1.0000000"
         style="stop-color:#f0f0f0;stop-opacity:1.0000000;" />
    </linearGradient>
    <linearGradient
       id="linearGradient1495"
       x1="68.963922"
       x2="68.779375"
       xlink:href="#linearGradient1492"
       y1="359.4857"
       y2="530.17453"
       gradientTransform="scale(1.5082338,0.6630272)"
       gradientUnits="userSpaceOnUse" />
    <linearGradient
       id="linearGradient1806">
      <stop
         id="stop1807"
         offset="0.0000000"
         style="stop-color:#000000;stop-opacity:0.52941179;" />
      <stop
         id="stop3276"
         offset="0.64777780"
         style="stop-color:#000000;stop-opacity:0.073446326;" />
      <stop
         id="stop1808"
         offset="1.0000000"
         style="stop-color:#000000;stop-opacity:0.0000000;" />
    </linearGradient>
    <radialGradient
       cx="24.825565"
       cy="176.56437"
       fx="27.010122"
       fy="137.43433"
       id="radialGradient1505"
       r="51.667703"
       xlink:href="#linearGradient1806"
       gradientUnits="userSpaceOnUse" />
    <linearGradient
       id="linearGradient1851">
      <stop
         id="stop1852"
         offset="0.0000000"
         style="stop-color:#000000;stop-opacity:0.37241378;" />
      <stop
         id="stop1854"
         offset="0.50000000"
         style="stop-color:#000000;stop-opacity:0.11034483;" />
      <stop
         id="stop1853"
         offset="1.0000000"
         style="stop-color:#adadad;stop-opacity:0.0000000;" />
    </linearGradient>
    <radialGradient
       cx="-289.0914"
       cy="598.36652"
       fx="-285.65439"
       fy="552.23833"
       id="radialGradient1875"
       r="125.20509"
       xlink:href="#linearGradient1851"
       gradientUnits="userSpaceOnUse" />
    <linearGradient
       id="linearGradient37404">
      <stop
         id="stop37406"
         offset="0"
         style="stop-color:#ffca3f;stop-opacity:1;" />
      <stop
         id="stop37412"
         offset="0.38"
         style="stop-color:#ffe29f;stop-opacity:1;" />
      <stop
         id="stop37408"
         offset="1.0000000"
         style="stop-color:#ffffff;stop-opacity:1.0000000;" />
    </linearGradient>
    <linearGradient
       inkscape:collect="always"
       xlink:href="#linearGradient37404"
       id="linearGradient11756"
       x1="0.21578404"
       y1="11.148622"
       x2="21.782246"
       y2="11.148622"
       gradientUnits="userSpaceOnUse" />
    <linearGradient
       inkscape:collect="always"
       xlink:href="#linearGradient1806"
       id="linearGradient2243"
       gradientUnits="userSpaceOnUse"
       gradientTransform="scale(1.5082338,0.6630272)"
       x1="57.077743"
       y1="353.53793"
       x2="66.950995"
       y2="518.57755" />
  </defs>
  <sodipodi:namedview
     id="base"
     width="22px"
     height="22px"
     inkscape:zoom="9.5789401"
     inkscape:cx="35.517138"
     inkscape:cy="0.42159084"
     inkscape:window-width="1152"
     inkscape:window-height="817"
     inkscape:window-x="0"
     inkscape:window-y="20"
     inkscape:current-layer="svg1089" />
  <rect
     height="21.425793"
     id="rect36642"
     rx="1.5514623"
     ry="1.8960879"
     style="fill:url(#linearGradient11756);fill-opacity:1.0;fill-rule:nonzero;stroke:#db9900;stroke-width:0.389;stroke-linecap:round;stroke-linejoin:round;stroke-miterlimit:4;stroke-opacity:1;stroke-dasharray:none"
     width="21.177462"
     x="0.41028404"
     y="0.43572599" />
  <g
     transform="matrix(0.1083057,0,0,9.8125922e-2,-70.810953,27.194159)"
     id="g2209"
     style="fill:#000000;fill-opacity:1">
    <path
       transform="matrix(-0.735026,0,0,8.992934e-2,533.4424,-153.9485)"
       style="fill:#000000;fill-opacity:1;fill-rule:evenodd;stroke:none;stroke-width:1pt;stroke-linecap:butt;stroke-linejoin:miter;stroke-opacity:1"
       id="path2211"
       d="M -163.88631,598.36652 C -163.88631,529.21766 -219.94254,473.16143 -289.0914,473.16143 C -358.24026,473.16143 -414.29649,529.21766 -414.29649,598.36652 C -414.29649,667.51538 -358.24026,723.57161 -289.0914,723.57161 C -219.94254,723.57161 -163.88631,667.51538 -163.88631,598.36652 L -163.88631,598.36652 z " />
    <g
       transform="matrix(1.319219,0,0,1.319219,649.5874,-493.9582)"
       id="g2213"
       style="fill:#000000;fill-opacity:1">
      <path
         transform="matrix(1.240473,0,0,0.211621,43.41989,251.0407)"
         style="fill:#000000;fill-opacity:1;fill-rule:evenodd;stroke-width:1pt"
         id="path2215"
         d="M 82.055313,175.83524 C 82.055313,144.82826 56.919187,119.69213 25.912205,119.69213 C -5.0947781,119.69213 -30.230904,144.82826 -30.230904,175.83524 C -30.230904,206.84222 -5.0947781,231.97835 25.912204,231.97835 C 56.919187,231.97835 82.055313,206.84222 82.055313,175.83524 z " />
      <path
         style="fill:#000000;fill-opacity:1;fill-rule:evenodd;stroke:url(#linearGradient2243);stroke-width:0.88744164;stroke-linecap:butt;stroke-linejoin:miter;stroke-miterlimit:4;stroke-opacity:1"
         id="path2217"
         d="M 3.2500331,255.46971 L 3.2500331,270.70424 C 3.2500331,278.43049 12.992711,285.93877 20.71896,285.93877 L 38.187887,285.93877 L 55.656814,285.93877 L 73.125742,285.93877 L 90.594669,285.93877 L 108.0636,285.93877 L 125.53252,285.93877 C 133.25877,285.93877 143.00145,278.43049 143.00145,270.70424 L 143.00145,255.46971 C 143.00145,240.01722 123.51609,225.00066 108.0636,225.00066 L 90.594669,225.00066 L 73.125742,225.00066 L 55.656814,225.00066 L 38.187887,225.00066 C 22.735391,225.00066 3.2500331,240.01722 3.2500331,255.46971 z " />
      <path
         style="fill:#000000;fill-opacity:1;fill-rule:evenodd;stroke:none;stroke-width:0.96216879pt;stroke-linecap:butt;stroke-linejoin:miter;stroke-opacity:1"
         id="path2219"
         d="M 17.212645,241.84174 C 17.212645,248.80335 20.908256,248.78096 28.973768,248.78096 L 119.26374,248.78096 C 126.92653,248.78096 132.70539,249.81157 130.74472,242.49425 C 128.59364,234.46627 115.98528,227.52979 106.74954,227.52979 L 40.618531,227.52979 C 31.653252,227.52979 17.212645,234.50226 17.212645,241.84174 z " />
      <rect
         y="269.68863"
         x="23.968994"
         width="100.34477"
         style="fill:#000000;fill-opacity:1;fill-rule:evenodd;stroke:none;stroke-width:1pt;stroke-linecap:butt;stroke-linejoin:miter;stroke-opacity:1"
         ry="2.1980269"
         rx="2.1980269"
         id="rect2221"
         height="12.593878" />
      <path
         style="fill:#000000;fill-opacity:1;fill-rule:evenodd;stroke:#000000;stroke-width:3.75;stroke-linecap:round;stroke-linejoin:round;stroke-miterlimit:4;stroke-opacity:1"
         id="path2223"
         d="M 32.99701,233.12575 L 114.06698,233.12575" />
      <path
         style="fill:#000000;fill-opacity:1;fill-rule:evenodd;stroke:none;stroke-width:0.96216879pt;stroke-linecap:butt;stroke-linejoin:miter;stroke-opacity:1"
         id="path2225"
         d="M 20.659826,241.62015 C 20.659826,248.16043 24.131776,248.1394 31.709157,248.1394 L 116.53472,248.1394 C 123.73375,248.1394 129.16287,249.10764 127.32086,242.23316 C 125.29997,234.69104 113.45467,228.17436 104.77789,228.17436 L 42.649172,228.17436 C 34.226477,228.17436 20.659826,234.72486 20.659826,241.62015 z " />
      <rect
         y="188.44431"
         x="38.538994"
         width="72.017281"
         style="fill:#000000;fill-opacity:1;fill-rule:evenodd;stroke:#000000;stroke-width:0.62537003;stroke-linecap:butt;stroke-linejoin:miter;stroke-miterlimit:4;stroke-opacity:0.509434"
         ry="0"
         rx="0"
         id="rect2227"
         height="45.081188" />
      <path
         style="fill:#000000;fill-opacity:1;fill-rule:evenodd;stroke:#000000;stroke-width:0.56359118;stroke-linecap:butt;stroke-linejoin:miter;stroke-miterlimit:4;stroke-opacity:0.3899371"
         id="path2229"
         d="M 30.9307,274.57019 L 25.185399,298.39376 L 123.33534,298.39376 L 118.16457,274.57019 L 30.9307,274.57019 z " />
      <path
         style="fill:#000000;fill-opacity:1;fill-rule:evenodd;stroke:none;stroke-width:0.95537262pt;stroke-linecap:butt;stroke-linejoin:miter;stroke-opacity:1"
         id="path2231"
         d="M 36.263481,270.96752 L 32.050889,293.06751 L 116.1333,293.06751 L 113.16585,270.96752 L 36.263481,270.96752 z " />
      <rect
         y="269.68863"
         x="23.968994"
         width="100.34477"
         style="fill:#000000;fill-opacity:1;fill-rule:evenodd;stroke:none;stroke-width:1pt;stroke-linecap:butt;stroke-linejoin:miter;stroke-opacity:1"
         ry="2.1980269"
         rx="2.1980269"
         id="rect2233"
         height="12.593878" />
      <path
         style="fill:#000000;fill-opacity:1;fill-rule:evenodd;stroke:none;stroke-width:0.47325239;stroke-linecap:butt;stroke-linejoin:miter;stroke-miterlimit:4;stroke-opacity:0.31446539"
         id="path2235"
         d="M 38.538994,207.81117 L 38.538994,233.65881 L 110.55627,233.65881 L 110.55627,207.81117 C 81.675462,194.81104 71.482344,224.87384 38.538994,207.81117 z " />
    </g>
  </g>
  <g
     id="g5461"
     transform="matrix(0.1083057,0,0,9.8125922e-2,-69.871392,27.298554)">
    <path
       d="M -163.88631,598.36652 C -163.88631,529.21766 -219.94254,473.16143 -289.0914,473.16143 C -358.24026,473.16143 -414.29649,529.21766 -414.29649,598.36652 C -414.29649,667.51538 -358.24026,723.57161 -289.0914,723.57161 C -219.94254,723.57161 -163.88631,667.51538 -163.88631,598.36652 L -163.88631,598.36652 z "
       id="path3953"
       style="fill:url(#radialGradient1875);fill-opacity:1;fill-rule:evenodd;stroke:none;stroke-width:1pt;stroke-linecap:butt;stroke-linejoin:miter;stroke-opacity:1"
       transform="matrix(-0.735026,0,0,8.992934e-2,533.4424,-153.9485)" />
    <g
       id="g3334"
       transform="matrix(1.319219,0,0,1.319219,649.5874,-493.9582)">
      <path
         d="M 82.055313,175.83524 C 82.055313,144.82826 56.919187,119.69213 25.912205,119.69213 C -5.0947781,119.69213 -30.230904,144.82826 -30.230904,175.83524 C -30.230904,206.84222 -5.0947781,231.97835 25.912204,231.97835 C 56.919187,231.97835 82.055313,206.84222 82.055313,175.83524 z "
         id="path8072"
         style="fill:url(#radialGradient1505);fill-opacity:1;fill-rule:evenodd;stroke-width:1pt"
         transform="matrix(1.240473,0,0,0.211621,43.41989,251.0407)" />
      <path
         d="M 3.2500331,255.46971 L 3.2500331,270.70424 C 3.2500331,278.43049 12.992711,285.93877 20.71896,285.93877 L 38.187887,285.93877 L 55.656814,285.93877 L 73.125742,285.93877 L 90.594669,285.93877 L 108.0636,285.93877 L 125.53252,285.93877 C 133.25877,285.93877 143.00145,278.43049 143.00145,270.70424 L 143.00145,255.46971 C 143.00145,240.01722 123.51609,225.00066 108.0636,225.00066 L 90.594669,225.00066 L 73.125742,225.00066 L 55.656814,225.00066 L 38.187887,225.00066 C 22.735391,225.00066 3.2500331,240.01722 3.2500331,255.46971 z "
         id="rect7969"
         style="fill:url(#linearGradient1495);fill-opacity:1;fill-rule:evenodd;stroke:url(#linearGradient3418);stroke-width:0.88744164;stroke-linecap:butt;stroke-linejoin:miter;stroke-miterlimit:4;stroke-opacity:1" />
      <path
         d="M 17.212645,241.84174 C 17.212645,248.80335 20.908256,248.78096 28.973768,248.78096 L 119.26374,248.78096 C 126.92653,248.78096 132.70539,249.81157 130.74472,242.49425 C 128.59364,234.46627 115.98528,227.52979 106.74954,227.52979 L 40.618531,227.52979 C 31.653252,227.52979 17.212645,234.50226 17.212645,241.84174 z "
         id="path7972"
         style="fill:#000000;fill-opacity:0.52201257;fill-rule:evenodd;stroke:none;stroke-width:0.96216879pt;stroke-linecap:butt;stroke-linejoin:miter;stroke-opacity:1" />
      <rect
         height="12.593878"
         id="rect7973"
         rx="2.1980269"
         ry="2.1980269"
         style="fill:url(#linearGradient7975);fill-opacity:1;fill-rule:evenodd;stroke:none;stroke-width:1pt;stroke-linecap:butt;stroke-linejoin:miter;stroke-opacity:1"
         width="100.34477"
         x="23.968994"
         y="269.68863" />
      <path
         d="M 32.99701,233.12575 L 114.06698,233.12575"
         id="path7971"
         style="fill:none;fill-opacity:0.75;fill-rule:evenodd;stroke:#000000;stroke-width:3.75;stroke-linecap:round;stroke-linejoin:round;stroke-miterlimit:4;stroke-opacity:1" />
      <path
         d="M 20.659826,241.62015 C 20.659826,248.16043 24.131776,248.1394 31.709157,248.1394 L 116.53472,248.1394 C 123.73375,248.1394 129.16287,249.10764 127.32086,242.23316 C 125.29997,234.69104 113.45467,228.17436 104.77789,228.17436 L 42.649172,228.17436 C 34.226477,228.17436 20.659826,234.72486 20.659826,241.62015 z "
         id="path7986"
         style="fill:url(#linearGradient7987);fill-opacity:1;fill-rule:evenodd;stroke:none;stroke-width:0.96216879pt;stroke-linecap:butt;stroke-linejoin:miter;stroke-opacity:1" />
      <rect
         height="45.081188"
         id="rect7979"
         rx="0"
         ry="0"
         style="fill:url(#linearGradient7980);fill-opacity:1;fill-rule:evenodd;stroke:#000000;stroke-width:0.62537003;stroke-linecap:butt;stroke-linejoin:miter;stroke-miterlimit:4;stroke-opacity:0.509434"
         width="72.017281"
         x="38.538994"
         y="188.44431" />
      <path
         d="M 30.9307,274.57019 L 25.185399,298.39376 L 123.33534,298.39376 L 118.16457,274.57019 L 30.9307,274.57019 z "
         id="rect7981"
         style="fill:#888888;fill-opacity:1;fill-rule:evenodd;stroke:#000000;stroke-width:0.56359118;stroke-linecap:butt;stroke-linejoin:miter;stroke-miterlimit:4;stroke-opacity:0.3899371" />
      <path
         d="M 36.263481,270.96752 L 32.050889,293.06751 L 116.1333,293.06751 L 113.16585,270.96752 L 36.263481,270.96752 z "
         id="rect7989"
         style="fill:url(#linearGradient7992);fill-opacity:1;fill-rule:evenodd;stroke:none;stroke-width:0.95537262pt;stroke-linecap:butt;stroke-linejoin:miter;stroke-opacity:1" />
      <rect
         height="12.593878"
         id="rect7982"
         rx="2.1980269"
         ry="2.1980269"
         style="fill:url(#linearGradient7984);fill-opacity:1;fill-rule:evenodd;stroke:none;stroke-width:1pt;stroke-linecap:butt;stroke-linejoin:miter;stroke-opacity:1"
         width="100.34477"
         x="23.968994"
         y="269.68863" />
      <path
         d="M 38.538994,207.81117 L 38.538994,233.65881 L 110.55627,233.65881 L 110.55627,207.81117 C 81.675462,194.81104 71.482344,224.87384 38.538994,207.81117 z "
         id="rect7996"
         style="fill:url(#linearGradient7993);fill-opacity:1;fill-rule:evenodd;stroke:none;stroke-width:0.47325239;stroke-linecap:butt;stroke-linejoin:miter;stroke-miterlimit:4;stroke-opacity:0.31446539" />
    </g>
  </g>
</svg>
