<?xml version="1.0" encoding="UTF-8" standalone="no"?>
<!-- Created with Sodipodi ("http://www.sodipodi.com/") -->
<svg
   xmlns:dc="http://purl.org/dc/elements/1.1/"
   xmlns:cc="http://web.resource.org/cc/"
   xmlns:rdf="http://www.w3.org/1999/02/22-rdf-syntax-ns#"
   xmlns:svg="http://www.w3.org/2000/svg"
   xmlns="http://www.w3.org/2000/svg"
   xmlns:xlink="http://www.w3.org/1999/xlink"
   xmlns:sodipodi="http://sodipodi.sourceforge.net/DTD/sodipodi-0.dtd"
   xmlns:inkscape="http://www.inkscape.org/namespaces/inkscape"
   height="22"
   id="svg1089"
   sodipodi:docbase="C:\ms4w\Apache\htdocs\i3geo\imagens\visual\folha"
   sodipodi:docname="inserexy.svg"
   sodipodi:version="0.32"
   space="preserve"
   width="22"
   inkscape:version="0.45.1"
   inkscape:output_extension="org.inkscape.output.svg.inkscape"
   version="1.0"
   inkscape:export-filename="C:\ms4w\Apache\htdocs\i3geo\imagens\visual\folha\inserexy.gif"
   inkscape:export-xdpi="90"
   inkscape:export-ydpi="90">
  <metadata
     id="metadata3">
    <rdf:RDF>
      <cc:Work
         rdf:about="">
        <dc:title>magnifying glass</dc:title>
        <dc:description />
        <dc:subject>
          <rdf:Bag>
            <rdf:li>multiplying</rdf:li>
            <rdf:li>magnifying</rdf:li>
            <rdf:li>eye</rdf:li>
            <rdf:li>tool</rdf:li>
            <rdf:li>loupe</rdf:li>
            <rdf:li>glass</rdf:li>
          </rdf:Bag>
        </dc:subject>
        <dc:publisher>
          <cc:Agent
             rdf:about="http://www.openclipart.org/">
            <dc:title>Open Clip Art Library</dc:title>
          </cc:Agent>
        </dc:publisher>
        <dc:creator>
          <cc:Agent>
            <dc:title>Tom&amp;Atilde;&amp;iexcl;&amp;Aring;&amp;iexcl; Kratochv&amp;Atilde;&amp;shy;la</dc:title>
          </cc:Agent>
        </dc:creator>
        <dc:rights>
          <cc:Agent>
            <dc:title>Tom&amp;Atilde;&amp;iexcl;&amp;Aring;&amp;iexcl; Kratochv&amp;Atilde;&amp;shy;la</dc:title>
          </cc:Agent>
        </dc:rights>
        <dc:date />
        <dc:format>image/svg+xml</dc:format>
        <dc:type
           rdf:resource="http://purl.org/dc/dcmitype/StillImage" />
        <cc:license
           rdf:resource="http://web.resource.org/cc/PublicDomain" />
        <dc:language>en</dc:language>
      </cc:Work>
      <cc:License
         rdf:about="http://web.resource.org/cc/PublicDomain">
        <cc:permits
           rdf:resource="http://web.resource.org/cc/Reproduction" />
        <cc:permits
           rdf:resource="http://web.resource.org/cc/Distribution" />
        <cc:permits
           rdf:resource="http://web.resource.org/cc/DerivativeWorks" />
      </cc:License>
    </rdf:RDF>
  </metadata>
  <defs
     id="defs1091">
    <linearGradient
       id="linearGradient1497"
       x1="741.63899"
       x2="622.33327"
       xlink:href="#linearGradient1492"
       y1="169.44361"
       y2="287.73826"
       gradientTransform="scale(0.9552926,1.0467997)"
       gradientUnits="userSpaceOnUse" />
    <linearGradient
       id="linearGradient1492">
      <stop
         id="stop1493"
         offset="0.0000000"
         style="stop-color:#dadada;stop-opacity:1.0000000;" />
      <stop
         id="stop1496"
         offset="0.34923077"
         style="stop-color:#f1f1f1;stop-opacity:1.0000000;" />
      <stop
         id="stop1494"
         offset="1.0000000"
         style="stop-color:#f0f0f0;stop-opacity:1.0000000;" />
    </linearGradient>
    <linearGradient
       id="linearGradient1495"
       x1="728.96644"
       x2="351.7063"
       xlink:href="#linearGradient1492"
       y1="230.07422"
       y2="689.86002"
       gradientTransform="scale(0.955425,1.0466546)"
       gradientUnits="userSpaceOnUse" />
    <linearGradient
       inkscape:collect="always"
       xlink:href="#linearGradient1507"
       id="linearGradient10311"
       gradientUnits="userSpaceOnUse"
       gradientTransform="scale(0.9446888,1.0585496)"
       x1="201.38964"
       y1="843.20789"
       x2="547.80806"
       y2="383.7653" />
    <linearGradient
       inkscape:collect="always"
       xlink:href="#linearGradient1507"
       id="linearGradient10309"
       gradientUnits="userSpaceOnUse"
       gradientTransform="scale(0.9446888,1.0585496)"
       x1="201.38964"
       y1="843.20789"
       x2="547.80806"
       y2="383.7653" />
    <linearGradient
       inkscape:collect="always"
       xlink:href="#linearGradient1507"
       id="linearGradient10307"
       gradientUnits="userSpaceOnUse"
       gradientTransform="scale(0.9446888,1.0585496)"
       x1="201.38964"
       y1="843.20789"
       x2="547.80806"
       y2="383.7653" />
    <linearGradient
       id="linearGradient1507">
      <stop
         id="stop1508"
         offset="0.0000000"
         style="stop-color:#000000;stop-opacity:0.095505618;" />
      <stop
         id="stop1510"
         offset="1.0000000"
         style="stop-color:#000000;stop-opacity:0.0000000;" />
    </linearGradient>
    <linearGradient
       id="linearGradient1506"
       x1="201.38964"
       x2="547.80806"
       xlink:href="#linearGradient1507"
       y1="843.20789"
       y2="383.7653"
       gradientTransform="scale(0.9446888,1.0585496)"
       gradientUnits="userSpaceOnUse" />
    <linearGradient
       id="linearGradient9837">
      <stop
         id="stop9838"
         offset="0.0000000"
         style="stop-color:#f8f5da;stop-opacity:1.0000000;" />
      <stop
         id="stop9839"
         offset="1.0000000"
         style="stop-color:#ffffff;stop-opacity:1.0000000;" />
    </linearGradient>
    <linearGradient
       gradientTransform="matrix(0.233253,0,0,0.2386644,-56.968709,25.262576)"
       gradientUnits="userSpaceOnUse"
       id="linearGradient11084"
       inkscape:collect="always"
       x1="111.99757"
       x2="-29.110085"
       xlink:href="#linearGradient9837"
       y1="125.16961"
       y2="-21.865551" />
    <linearGradient
       id="linearGradient4810">
      <stop
         id="stop4811"
         offset="0.0000000"
         style="stop-color:#ffffff;stop-opacity:0.0000000;" />
      <stop
         id="stop4812"
         offset="1.0000000"
         style="stop-color:#ffffff;stop-opacity:0.68041235;" />
    </linearGradient>
    <radialGradient
       cx="124.36100"
       cy="1082.2069"
       fx="125.14262"
       fy="1084.0195"
       gradientTransform="scale(2.175919,0.459576)"
       gradientUnits="userSpaceOnUse"
       id="radialGradient5444"
       inkscape:collect="always"
       r="54.577564"
       xlink:href="#linearGradient4810" />
    <linearGradient
       id="linearGradient2931">
      <stop
         id="stop2932"
         offset="0.0000000"
         style="stop-color:#ffffff;stop-opacity:1.0000000;" />
      <stop
         id="stop2933"
         offset="1.0000000"
         style="stop-color:#ffffff;stop-opacity:0.0000000;" />
    </linearGradient>
    <linearGradient
       gradientTransform="scale(1.806421,0.553581)"
       gradientUnits="userSpaceOnUse"
       id="linearGradient5443"
       inkscape:collect="always"
       x1="145.63139"
       x2="145.63139"
       xlink:href="#linearGradient2931"
       y1="712.78033"
       y2="772.31848" />
    <linearGradient
       id="linearGradient37404">
      <stop
         id="stop37406"
         offset="0"
         style="stop-color:#ffc73f;stop-opacity:1;" />
      <stop
         id="stop37412"
         offset="0.38"
         style="stop-color:#ffe59f;stop-opacity:1;" />
      <stop
         id="stop37408"
         offset="1.0000000"
         style="stop-color:#ffffff;stop-opacity:1.0000000;" />
    </linearGradient>
    <linearGradient
       inkscape:collect="always"
       xlink:href="#linearGradient37404"
       id="linearGradient11756"
       x1="0.21578404"
       y1="11.148622"
       x2="21.782246"
       y2="11.148622"
       gradientUnits="userSpaceOnUse" />
    <linearGradient
       inkscape:collect="always"
       xlink:href="#linearGradient2931"
       id="linearGradient10906"
       gradientUnits="userSpaceOnUse"
       gradientTransform="scale(1.806421,0.553581)"
       x1="145.63139"
       y1="712.78033"
       x2="145.63139"
       y2="772.31848" />
    <radialGradient
       inkscape:collect="always"
       xlink:href="#linearGradient4810"
       id="radialGradient10908"
       gradientUnits="userSpaceOnUse"
       gradientTransform="scale(2.175919,0.459576)"
       cx="124.36100"
       cy="1082.2069"
       fx="125.14262"
       fy="1084.0195"
       r="54.577564" />
  </defs>
  <sodipodi:namedview
     id="base"
     width="22px"
     height="22px"
     inkscape:zoom="6.7733334"
     inkscape:cx="13.307423"
     inkscape:cy="1.365498"
     inkscape:window-width="758"
     inkscape:window-height="579"
     inkscape:window-x="145"
     inkscape:window-y="173"
     inkscape:current-layer="svg1089" />
  <g
     id="g10278"
     transform="matrix(0.157614,0,0,0.1448693,-1.9914811,-0.710272)">
    <path
       style="fill:#ffffff;fill-rule:evenodd;stroke-width:0.42649043;stroke-opacity:0.36477984"
       sodipodi:nodetypes="cccccccccccccccc"
       id="path930"
       d="M 17.159384,6.3292894 L 17.159384,43.068526 L 17.159384,79.807768 L 17.159384,116.547 L 17.159384,153.28624 L 50.687024,153.28624 L 84.214664,153.28624 L 117.7423,153.28624 L 151.26994,153.28624 L 151.26994,116.547 L 151.26994,79.807768 L 151.26994,43.068526 L 117.7423,6.3292894 L 84.214664,6.3292894 L 50.687024,6.3292894 L 17.159384,6.3292894 z " />
    <g
       transform="matrix(0.304171,0,0,0.297572,-36.70399,-112.488)"
       style="fill:url(#linearGradient1506)"
       id="g1552">
      <path
         style="fill:url(#linearGradient10307);fill-opacity:0.75;fill-rule:evenodd;stroke-width:0.95407495pt"
         sodipodi:nodetypes="cccccccccccccccc"
         id="path1505"
         d="M 173.35959,408.8126 L 173.35959,531.0736 L 173.35959,653.3346 L 173.35959,775.5956 L 173.35959,897.8566 L 282.12187,897.8566 L 390.88417,897.8566 L 499.64646,897.8566 L 608.40874,897.8566 L 608.40874,775.5956 L 608.40874,653.3346 L 608.40874,531.0736 L 499.64646,408.8126 L 390.88417,408.8126 L 282.12187,408.8126 L 173.35959,408.8126 z " />
      <path
         style="fill:url(#linearGradient10309);fill-opacity:0.75;fill-rule:evenodd;stroke-width:0.95407495pt"
         id="path1538"
         d="M 170.125,407.1875 C 170.125,571.82292 170.125,736.45833 170.125,901.09375 C 317.30208,901.09375 464.47917,901.09375 611.65625,901.09375 C 611.65625,777.33333 611.65625,653.57292 611.65625,529.8125 C 574.80918,488.38978 537.97604,446.95335 501.09375,405.5625 C 390.77083,405.5625 280.44792,405.5625 170.125,405.5625 C 170.125,405.89583 170.125,406.97917 170.125,407.1875 z " />
      <path
         style="fill:url(#linearGradient10311);fill-opacity:0.75;fill-rule:evenodd;stroke-width:0.95407495pt"
         id="path1543"
         d="M 166.875,403.9375 C 166.875,570.73958 166.875,737.54167 166.875,904.34375 C 316.21875,904.34375 465.5625,904.34375 614.90625,904.34375 C 614.90625,779.08333 614.90625,653.82292 614.90625,528.5625 C 577.45517,486.47298 540.01754,444.37017 502.53125,402.3125 C 390.64583,402.3125 278.76042,402.3125 166.875,402.3125 C 166.875,402.64583 166.875,403.72917 166.875,403.9375 z " />
    </g>
    <path
       transform="matrix(0.296689,0,0,0.296689,-71.19601,-34.05825)"
       style="fill:url(#linearGradient1495);fill-opacity:1;fill-rule:evenodd;stroke:#000000;stroke-width:1.4375;stroke-opacity:0.36477984"
       sodipodi:nodetypes="cccccccccccccccc"
       id="rect900"
       d="M 297.99034,136.74154 L 297.99034,260.57234 L 297.99034,384.40315 L 297.99034,508.23395 L 297.99034,632.06475 L 410.99634,632.06475 L 524.00235,632.06475 L 637.00835,632.06475 L 750.01435,632.06475 L 750.01435,508.23395 L 750.01435,384.40315 L 750.01435,260.57234 L 637.00835,136.74154 L 524.00235,136.74154 L 410.99634,136.74154 L 297.99034,136.74154 z " />
    <path
       style="fill:none;fill-rule:evenodd;stroke:#ffffff;stroke-width:1.70000005;stroke-opacity:1"
       sodipodi:nodetypes="cccccc"
       id="path2674"
       d="M 27.756512,17.344397 L 27.756512,144.68535 L 141.79201,144.68535 L 142.35856,38.608763 L 121.46305,17.344397 L 27.756512,17.344397 z " />
    <path
       transform="matrix(0.296689,0,0,0.296689,-71.19601,-34.05825)"
       style="fill:url(#linearGradient1497);fill-opacity:1;fill-rule:evenodd;stroke-width:0.95407495pt"
       sodipodi:nodetypes="cccc"
       id="path906"
       d="M 750.01435,260.57234 C 715.9446,250.48602 671.79788,251.91624 638.44792,257.66516 C 644.20618,220.71628 644.92597,174.41021 637.00835,136.74154 L 750.01435,260.57234 z " />
  </g>
  <g
     transform="matrix(0.1680453,0,0,0.2022541,2.7329462,4.0954321)"
     id="g2186"
     style="fill:#000000;fill-opacity:1">
    <path
       transform="matrix(0.228884,-0.113495,0.113495,0.228884,-68.50043,-44.07814)"
       style="fill:#000000;fill-opacity:1;fill-rule:evenodd;stroke:none;stroke-width:4.89278936;stroke-linecap:butt;stroke-linejoin:miter;stroke-miterlimit:4;stroke-opacity:1"
       sodipodi:nodetypes="ccccc"
       id="path2188"
       d="M 263.75,501.11218 L 263.26117,626.72459 C 271.36068,631.29161 281.27089,629.13164 284.75252,623.02151 L 282.5,502.36218 L 263.75,501.11218 z " />
    <path
       transform="matrix(0.228884,-0.113495,0.113495,0.228884,-68.50043,-44.07814)"
       style="fill:#000000;fill-opacity:1;fill-rule:evenodd;stroke:none;stroke-width:1pt;stroke-linecap:butt;stroke-linejoin:miter;stroke-opacity:1"
       sodipodi:nodetypes="ccccc"
       id="path2190"
       d="M 265.37352,538.01031 L 265.7583,627.58301 L 273.77475,630.62011 L 270.68998,537.71983 L 265.37352,538.01031 z " />
    <path
       style="fill:#000000;fill-opacity:1;fill-rule:evenodd;stroke:none;stroke-width:4.89278936;stroke-linecap:butt;stroke-linejoin:miter;stroke-miterlimit:4;stroke-opacity:1"
       sodipodi:nodetypes="cccccccccc"
       id="path2192"
       d="M 47.853127,40.988541 C 56.075476,56.812966 54.497479,53.979028 62.722794,69.801236 C 65.614559,70.858668 67.807508,68.960539 68.214838,66.085789 C 60.150963,50.544829 62.377631,54.378767 54.317596,38.835824 C 52.452933,39.609814 49.713423,40.204129 47.853127,40.988541 z M 49.593395,41.622707 C 50.683882,41.168118 51.77437,40.713528 52.864857,40.258938 C 60.765236,55.502991 58.760514,50.4846 66.634314,65.739971 C 66.871792,67.986508 65.553877,68.885605 63.629154,68.852678 C 55.69286,53.551472 57.52969,56.923913 49.593395,41.622707 z " />
    <path
       transform="matrix(0.228884,-0.113495,0.113495,0.228884,-68.50043,-44.07814)"
       style="fill:#000000;fill-opacity:1;stroke:none;stroke-width:4.89278936;stroke-linecap:round;stroke-linejoin:bevel;stroke-miterlimit:4;stroke-opacity:1"
       id="path2194"
       d="M 266.25,361.26166 C 215.88,361.26166 175,378.34505 175,399.39423 C 175,403.53049 176.74525,407.46554 179.6875,411.18066 C 181.43767,420.67385 183.55201,434.3984 183.3125,446.85194 C 164.43916,456.32637 152.90625,468.84725 152.90625,482.59255 C 152.90625,512.12465 205.92967,536.08211 271.25,536.08214 C 336.57032,536.08214 389.59376,512.12466 389.59375,482.59255 C 389.59375,467.81002 376.14852,454.57147 354.625,444.94531 C 351.71542,434.2813 350.02631,422.82075 351.875,412.2553 C 355.39117,408.23677 357.5,403.93193 357.5,399.39423 C 357.5,398.81798 357.34188,398.26562 357.28125,397.69559 C 357.36116,397.57026 357.41834,397.43882 357.5,397.31427 C 357.44366,397.13929 357.27081,396.99722 357.1875,396.82895 C 354.00151,376.98464 314.53966,361.26166 266.25,361.26166 z " />
    <path
       transform="matrix(0.256132,-0.127006,0.153507,0.309576,-92.66068,-79.75977)"
       style="fill:#000000;fill-opacity:1;stroke:none;stroke-width:2.05213642;stroke-linecap:round;stroke-linejoin:bevel;stroke-miterlimit:4;stroke-opacity:1"
       sodipodi:type="arc"
       sodipodi:ry="23.75"
       sodipodi:rx="77.5"
       sodipodi:cy="417.36218"
       sodipodi:cx="258.75"
       id="path2196"
       d="M 336.25 417.36218 A 77.5 23.75 0 1 1  181.25,417.36218 A 77.5 23.75 0 1 1  336.25 417.36218 z" />
    <path
       transform="matrix(0.228884,-0.113495,0.113495,0.228884,-68.50043,-44.07814)"
       style="fill:#000000;fill-opacity:1;fill-rule:evenodd;stroke:none;stroke-width:4.89278936;stroke-linecap:butt;stroke-linejoin:miter;stroke-miterlimit:4;stroke-opacity:1"
       sodipodi:nodetypes="ccccccccc"
       id="path2198"
       d="M 348.54157,411.25942 C 326.15065,427.59874 289.69574,431.77062 257.71875,430.84375 C 241.73026,430.38032 226.5582,428.15413 214.25,424.59375 C 201.9418,421.03337 190.72405,418.18039 186.29912,412.92579 L 184.375,413.9375 C 189.95007,420.5579 200.09726,425.57601 212.90625,429.28125 C 225.71524,432.98649 241.23849,435.27593 257.59375,435.75 C 290.30426,436.69813 326.32842,430.50443 350.1875,413.09375 L 348.54157,411.25942 z " />
    <path
       transform="matrix(0.228884,-0.113495,0.113495,0.228884,-68.50043,-44.07814)"
       style="fill:#000000;fill-opacity:1;fill-rule:evenodd;stroke:none;stroke-width:4.89278936;stroke-linecap:butt;stroke-linejoin:miter;stroke-miterlimit:4;stroke-opacity:1"
       sodipodi:nodetypes="ccccccc"
       id="path2200"
       d="M 351.45088,447.13671 C 332.11482,464.05577 298.58377,475.22314 267.15625,475.53125 C 235.72873,475.83936 204.38333,466.48027 186.34772,449.64703 L 185.16457,450.48423 C 204.62896,468.65099 234.89627,480.75439 267.21875,480.4375 C 299.54123,480.12061 331.8924,467.07926 352.55634,448.99832 L 351.45088,447.13671 z " />
    <path
       transform="matrix(0.228884,-0.113495,0.113495,0.228884,-68.50043,-44.07814)"
       style="fill:#000000;fill-opacity:1;fill-rule:evenodd;stroke:none;stroke-width:1pt;stroke-linecap:butt;stroke-linejoin:miter;stroke-opacity:1"
       sodipodi:nodetypes="ccc"
       id="path2202"
       d="M 157.5,487.36218 C 204.01668,522.54648 331.42487,527.56909 386.25,482.36218 C 378.33176,545.59131 185.36558,554.84125 157.5,487.36218 z " />
    <path
       style="fill:#000000;fill-opacity:1;stroke:none;stroke-width:4.89278936;stroke-linecap:round;stroke-linejoin:bevel;stroke-miterlimit:4;stroke-opacity:1"
       sodipodi:nodetypes="cccccccccccccccccccccccccccccccc"
       id="path2204"
       d="M 33.31823,7.925271 C 27.215884,11.044142 21.20592,15.038942 17.459858,20.916861 C 15.909772,23.341527 14.73512,28.45236 19.100117,29.562094 C 21.103833,30.646438 20.541915,32.411847 21.795175,34.234322 C 22.93948,35.958635 24.866038,37.092702 22.791698,38.750178 C 20.825671,41.93431 19.04413,47.092568 21.46568,50.387341 C 24.305049,54.044199 29.350987,54.417249 33.674482,54.296096 C 43.510136,53.782469 52.915078,50.093273 61.188863,44.917575 C 67.01792,41.080696 72.737539,36.400227 75.792011,29.971363 C 77.375191,26.756307 77.463894,22.323064 74.512347,19.846313 C 71.528442,17.299724 67.393066,16.903866 63.619015,16.987519 C 61.976677,14.783236 58.7598,12.489943 59.104992,9.5691842 C 59.411426,7.4278307 58.985334,5.3889748 57.202566,4.3823833 C 53.135243,2.2487783 48.275091,3.062337 43.984172,3.9816103 C 40.290194,4.8714406 36.720836,6.2420975 33.31823,7.925271 z M 33.875065,9.048233 C 39.75458,6.2254347 46.216107,3.9323746 52.827216,4.3959927 C 55.250918,4.5884597 58.492905,5.714923 58.598104,8.5748892 C 58.028039,10.364457 58.765097,12.06418 59.652578,13.610363 C 60.617852,15.220044 61.833115,16.576598 63.261167,17.77754 C 65.134419,17.993188 66.958374,18.117125 68.836337,18.602079 C 71.983508,19.092749 75.452803,21.186266 75.630017,24.692122 C 75.778639,29.281869 72.721638,33.694705 69.762569,36.904845 C 62.726075,44.07204 53.6165,48.844901 44.055597,51.752455 C 38.282749,53.350356 31.978353,54.163016 26.137532,52.246241 C 23.306342,51.377078 21.003388,48.628354 21.396869,45.56628 C 21.612112,42.644524 23.270903,40.083437 24.838068,37.736859 C 24.837824,36.153761 23.44324,34.843731 22.784323,33.444992 C 21.811946,31.989412 21.065589,30.284732 19.8868,28.996132 C 17.485785,28.162991 16.655344,25.40881 17.688898,23.282068 C 19.887216,18.2858 24.409437,14.813081 28.851983,11.877822 C 30.473423,10.844502 32.152697,9.9025167 33.875065,9.048233 z " />
  </g>
  <g
     id="g8582"
     transform="matrix(0.1680453,0,0,0.2022541,3.4013003,3.2591616)">
    <path
       d="M 263.75,501.11218 L 263.26117,626.72459 C 271.36068,631.29161 281.27089,629.13164 284.75252,623.02151 L 282.5,502.36218 L 263.75,501.11218 z "
       id="path1684"
       sodipodi:nodetypes="ccccc"
       style="fill:#9e9d9b;fill-opacity:1;fill-rule:evenodd;stroke:none;stroke-width:4.89278936;stroke-linecap:butt;stroke-linejoin:miter;stroke-miterlimit:4;stroke-opacity:1"
       transform="matrix(0.228884,-0.113495,0.113495,0.228884,-68.50043,-44.07814)" />
    <path
       d="M 265.37352,538.01031 L 265.7583,627.58301 L 273.77475,630.62011 L 270.68998,537.71983 L 265.37352,538.01031 z "
       id="path4813"
       sodipodi:nodetypes="ccccc"
       style="fill:#ffffff;fill-opacity:1;fill-rule:evenodd;stroke:none;stroke-width:1pt;stroke-linecap:butt;stroke-linejoin:miter;stroke-opacity:1"
       transform="matrix(0.228884,-0.113495,0.113495,0.228884,-68.50043,-44.07814)" />
    <path
       d="M 47.853127,40.988541 C 56.075476,56.812966 54.497479,53.979028 62.722794,69.801236 C 65.614559,70.858668 67.807508,68.960539 68.214838,66.085789 C 60.150963,50.544829 62.377631,54.378767 54.317596,38.835824 C 52.452933,39.609814 49.713423,40.204129 47.853127,40.988541 z M 49.593395,41.622707 C 50.683882,41.168118 51.77437,40.713528 52.864857,40.258938 C 60.765236,55.502991 58.760514,50.4846 66.634314,65.739971 C 66.871792,67.986508 65.553877,68.885605 63.629154,68.852678 C 55.69286,53.551472 57.52969,56.923913 49.593395,41.622707 z "
       id="path6692"
       sodipodi:nodetypes="cccccccccc"
       style="fill:#000000;fill-opacity:1;fill-rule:evenodd;stroke:none;stroke-width:4.89278936;stroke-linecap:butt;stroke-linejoin:miter;stroke-miterlimit:4;stroke-opacity:1" />
    <path
       d="M 266.25,361.26166 C 215.88,361.26166 175,378.34505 175,399.39423 C 175,403.53049 176.74525,407.46554 179.6875,411.18066 C 181.43767,420.67385 183.55201,434.3984 183.3125,446.85194 C 164.43916,456.32637 152.90625,468.84725 152.90625,482.59255 C 152.90625,512.12465 205.92967,536.08211 271.25,536.08214 C 336.57032,536.08214 389.59376,512.12466 389.59375,482.59255 C 389.59375,467.81002 376.14852,454.57147 354.625,444.94531 C 351.71542,434.2813 350.02631,422.82075 351.875,412.2553 C 355.39117,408.23677 357.5,403.93193 357.5,399.39423 C 357.5,398.81798 357.34188,398.26562 357.28125,397.69559 C 357.36116,397.57026 357.41834,397.43882 357.5,397.31427 C 357.44366,397.13929 357.27081,396.99722 357.1875,396.82895 C 354.00151,376.98464 314.53966,361.26166 266.25,361.26166 z "
       id="path1061"
       style="fill:#0000ff;fill-opacity:1;stroke:none;stroke-width:4.89278936;stroke-linecap:round;stroke-linejoin:bevel;stroke-miterlimit:4;stroke-opacity:1"
       transform="matrix(0.228884,-0.113495,0.113495,0.228884,-68.50043,-44.07814)" />
    <path
       d="M 336.25 417.36218 A 77.5 23.75 0 1 1  181.25,417.36218 A 77.5 23.75 0 1 1  336.25 417.36218 z"
       id="path2309"
       sodipodi:cx="258.75"
       sodipodi:cy="417.36218"
       sodipodi:rx="77.5"
       sodipodi:ry="23.75"
       sodipodi:type="arc"
       style="fill:url(#linearGradient10906);fill-opacity:1;stroke:none;stroke-width:2.05213642;stroke-linecap:round;stroke-linejoin:bevel;stroke-miterlimit:4;stroke-opacity:1"
       transform="matrix(0.256132,-0.127006,0.153507,0.309576,-92.66068,-79.75977)" />
    <path
       d="M 348.54157,411.25942 C 326.15065,427.59874 289.69574,431.77062 257.71875,430.84375 C 241.73026,430.38032 226.5582,428.15413 214.25,424.59375 C 201.9418,421.03337 190.72405,418.18039 186.29912,412.92579 L 184.375,413.9375 C 189.95007,420.5579 200.09726,425.57601 212.90625,429.28125 C 225.71524,432.98649 241.23849,435.27593 257.59375,435.75 C 290.30426,436.69813 326.32842,430.50443 350.1875,413.09375 L 348.54157,411.25942 z "
       id="path2935"
       sodipodi:nodetypes="ccccccccc"
       style="fill:#000000;fill-opacity:1;fill-rule:evenodd;stroke:none;stroke-width:4.89278936;stroke-linecap:butt;stroke-linejoin:miter;stroke-miterlimit:4;stroke-opacity:1"
       transform="matrix(0.228884,-0.113495,0.113495,0.228884,-68.50043,-44.07814)" />
    <path
       d="M 351.45088,447.13671 C 332.11482,464.05577 298.58377,475.22314 267.15625,475.53125 C 235.72873,475.83936 204.38333,466.48027 186.34772,449.64703 L 185.16457,450.48423 C 204.62896,468.65099 234.89627,480.75439 267.21875,480.4375 C 299.54123,480.12061 331.8924,467.07926 352.55634,448.99832 L 351.45088,447.13671 z "
       id="path3557"
       sodipodi:nodetypes="ccccccc"
       style="fill:#000000;fill-opacity:1;fill-rule:evenodd;stroke:none;stroke-width:4.89278936;stroke-linecap:butt;stroke-linejoin:miter;stroke-miterlimit:4;stroke-opacity:1"
       transform="matrix(0.228884,-0.113495,0.113495,0.228884,-68.50043,-44.07814)" />
    <path
       d="M 157.5,487.36218 C 204.01668,522.54648 331.42487,527.56909 386.25,482.36218 C 378.33176,545.59131 185.36558,554.84125 157.5,487.36218 z "
       id="path4179"
       sodipodi:nodetypes="ccc"
       style="fill:url(#radialGradient10908);fill-opacity:1;fill-rule:evenodd;stroke:none;stroke-width:1pt;stroke-linecap:butt;stroke-linejoin:miter;stroke-opacity:1"
       transform="matrix(0.228884,-0.113495,0.113495,0.228884,-68.50043,-44.07814)" />
    <path
       d="M 33.31823,7.925271 C 27.215884,11.044142 21.20592,15.038942 17.459858,20.916861 C 15.909772,23.341527 14.73512,28.45236 19.100117,29.562094 C 21.103833,30.646438 20.541915,32.411847 21.795175,34.234322 C 22.93948,35.958635 24.866038,37.092702 22.791698,38.750178 C 20.825671,41.93431 19.04413,47.092568 21.46568,50.387341 C 24.305049,54.044199 29.350987,54.417249 33.674482,54.296096 C 43.510136,53.782469 52.915078,50.093273 61.188863,44.917575 C 67.01792,41.080696 72.737539,36.400227 75.792011,29.971363 C 77.375191,26.756307 77.463894,22.323064 74.512347,19.846313 C 71.528442,17.299724 67.393066,16.903866 63.619015,16.987519 C 61.976677,14.783236 58.7598,12.489943 59.104992,9.5691842 C 59.411426,7.4278307 58.985334,5.3889748 57.202566,4.3823833 C 53.135243,2.2487783 48.275091,3.062337 43.984172,3.9816103 C 40.290194,4.8714406 36.720836,6.2420975 33.31823,7.925271 z M 33.875065,9.048233 C 39.75458,6.2254347 46.216107,3.9323746 52.827216,4.3959927 C 55.250918,4.5884597 58.492905,5.714923 58.598104,8.5748892 C 58.028039,10.364457 58.765097,12.06418 59.652578,13.610363 C 60.617852,15.220044 61.833115,16.576598 63.261167,17.77754 C 65.134419,17.993188 66.958374,18.117125 68.836337,18.602079 C 71.983508,19.092749 75.452803,21.186266 75.630017,24.692122 C 75.778639,29.281869 72.721638,33.694705 69.762569,36.904845 C 62.726075,44.07204 53.6165,48.844901 44.055597,51.752455 C 38.282749,53.350356 31.978353,54.163016 26.137532,52.246241 C 23.306342,51.377078 21.003388,48.628354 21.396869,45.56628 C 21.612112,42.644524 23.270903,40.083437 24.838068,37.736859 C 24.837824,36.153761 23.44324,34.843731 22.784323,33.444992 C 21.811946,31.989412 21.065589,30.284732 19.8868,28.996132 C 17.485785,28.162991 16.655344,25.40881 17.688898,23.282068 C 19.887216,18.2858 24.409437,14.813081 28.851983,11.877822 C 30.473423,10.844502 32.152697,9.9025167 33.875065,9.048233 z "
       id="path6693"
       sodipodi:nodetypes="cccccccccccccccccccccccccccccccc"
       style="fill:#000000;fill-opacity:1;stroke:none;stroke-width:4.89278936;stroke-linecap:round;stroke-linejoin:bevel;stroke-miterlimit:4;stroke-opacity:1" />
  </g>
</svg>
