<?xml version="1.0" standalone="no"?>
<!DOCTYPE svg PUBLIC "-//W3C//DTD SVG 20010904//EN"
 "http://www.w3.org/TR/2001/REC-SVG-20010904/DTD/svg10.dtd">
<svg version="1.0" xmlns="http://www.w3.org/2000/svg"
 width="150.000000pt" height="150.000000pt" viewBox="0 0 150.000000 150.000000"
 preserveAspectRatio="xMidYMid meet">
<metadata>
Created by potrace 1.11, written by Peter Selinger 2001-2013
</metadata>
<g transform="translate(0.000000,150.000000) scale(0.100000,-0.100000)"
fill="#000000" stroke="none">
<path d="M770 1159 c-25 -5 -92 -13 -150 -18 -140 -12 -218 -27 -304 -58 -207
-75 -316 -188 -316 -328 0 -52 5 -70 34 -118 34 -55 34 -58 19 -85 -44 -77 50
-138 155 -101 26 9 45 6 112 -16 95 -32 214 -54 289 -55 36 0 71 -8 100 -22
33 -17 69 -24 128 -26 75 -4 87 -2 128 22 25 15 55 40 67 57 12 16 54 45 93
64 95 47 167 112 201 180 14 30 29 55 33 55 15 0 104 96 122 132 12 23 19 58
19 91 0 75 -27 113 -110 155 -69 34 -168 51 -310 52 -37 0 -76 7 -90 15 -28
16 -146 18 -220 4z m535 -209 c35 -22 48 -49 34 -71 -8 -11 -11 -11 -20 4 -6
10 -24 34 -41 53 -34 38 -22 44 27 14z"/>
</g>
</svg>
