<?xml version="1.0" encoding="UTF-8" standalone="no"?>
<!-- Created with Sodipodi ("http://www.sodipodi.com/") -->
<svg
   xmlns:dc="http://purl.org/dc/elements/1.1/"
   xmlns:cc="http://web.resource.org/cc/"
   xmlns:rdf="http://www.w3.org/1999/02/22-rdf-syntax-ns#"
   xmlns:svg="http://www.w3.org/2000/svg"
   xmlns="http://www.w3.org/2000/svg"
   xmlns:xlink="http://www.w3.org/1999/xlink"
   xmlns:sodipodi="http://sodipodi.sourceforge.net/DTD/sodipodi-0.dtd"
   xmlns:inkscape="http://www.inkscape.org/namespaces/inkscape"
   height="22"
   id="svg1089"
   sodipodi:docbase="C:\ms4w\Apache\htdocs\i3geo\imagens"
   sodipodi:docname="selext.svg"
   sodipodi:version="0.32"
   space="preserve"
   width="22"
   inkscape:version="0.45.1"
   inkscape:output_extension="org.inkscape.output.svg.inkscape"
   version="1.0"
   inkscape:export-filename="C:\ms4w\Apache\htdocs\i3geo\imagens\selpt.png"
   inkscape:export-xdpi="90"
   inkscape:export-ydpi="90">
  <metadata
     id="metadata3">
    <rdf:RDF>
      <cc:Work
         rdf:about="">
        <dc:title>magnifying glass</dc:title>
        <dc:description />
        <dc:subject>
          <rdf:Bag>
            <rdf:li>multiplying</rdf:li>
            <rdf:li>magnifying</rdf:li>
            <rdf:li>eye</rdf:li>
            <rdf:li>tool</rdf:li>
            <rdf:li>loupe</rdf:li>
            <rdf:li>glass</rdf:li>
          </rdf:Bag>
        </dc:subject>
        <dc:publisher>
          <cc:Agent
             rdf:about="http://www.openclipart.org/">
            <dc:title>Open Clip Art Library</dc:title>
          </cc:Agent>
        </dc:publisher>
        <dc:creator>
          <cc:Agent>
            <dc:title>Tom&amp;Atilde;&amp;iexcl;&amp;Aring;&amp;iexcl; Kratochv&amp;Atilde;&amp;shy;la</dc:title>
          </cc:Agent>
        </dc:creator>
        <dc:rights>
          <cc:Agent>
            <dc:title>Tom&amp;Atilde;&amp;iexcl;&amp;Aring;&amp;iexcl; Kratochv&amp;Atilde;&amp;shy;la</dc:title>
          </cc:Agent>
        </dc:rights>
        <dc:date />
        <dc:format>image/svg+xml</dc:format>
        <dc:type
           rdf:resource="http://purl.org/dc/dcmitype/StillImage" />
        <cc:license
           rdf:resource="http://web.resource.org/cc/PublicDomain" />
        <dc:language>en</dc:language>
      </cc:Work>
      <cc:License
         rdf:about="http://web.resource.org/cc/PublicDomain">
        <cc:permits
           rdf:resource="http://web.resource.org/cc/Reproduction" />
        <cc:permits
           rdf:resource="http://web.resource.org/cc/Distribution" />
        <cc:permits
           rdf:resource="http://web.resource.org/cc/DerivativeWorks" />
      </cc:License>
    </rdf:RDF>
  </metadata>
  <defs
     id="defs1091">
    <linearGradient
       id="linearGradient1497"
       x1="741.63899"
       x2="622.33327"
       xlink:href="#linearGradient1492"
       y1="169.44361"
       y2="287.73826"
       gradientTransform="scale(0.9552926,1.0467997)"
       gradientUnits="userSpaceOnUse" />
    <linearGradient
       id="linearGradient1492">
      <stop
         id="stop1493"
         offset="0.0000000"
         style="stop-color:#dadada;stop-opacity:1.0000000;" />
      <stop
         id="stop1496"
         offset="0.34923077"
         style="stop-color:#f1f1f1;stop-opacity:1.0000000;" />
      <stop
         id="stop1494"
         offset="1.0000000"
         style="stop-color:#f0f0f0;stop-opacity:1.0000000;" />
    </linearGradient>
    <linearGradient
       id="linearGradient1495"
       x1="728.96644"
       x2="351.7063"
       xlink:href="#linearGradient1492"
       y1="230.07422"
       y2="689.86002"
       gradientTransform="scale(0.955425,1.0466546)"
       gradientUnits="userSpaceOnUse" />
    <linearGradient
       inkscape:collect="always"
       xlink:href="#linearGradient1507"
       id="linearGradient10311"
       gradientUnits="userSpaceOnUse"
       gradientTransform="scale(0.9446888,1.0585496)"
       x1="201.38964"
       y1="843.20789"
       x2="547.80806"
       y2="383.7653" />
    <linearGradient
       inkscape:collect="always"
       xlink:href="#linearGradient1507"
       id="linearGradient10309"
       gradientUnits="userSpaceOnUse"
       gradientTransform="scale(0.9446888,1.0585496)"
       x1="201.38964"
       y1="843.20789"
       x2="547.80806"
       y2="383.7653" />
    <linearGradient
       inkscape:collect="always"
       xlink:href="#linearGradient1507"
       id="linearGradient10307"
       gradientUnits="userSpaceOnUse"
       gradientTransform="scale(0.9446888,1.0585496)"
       x1="201.38964"
       y1="843.20789"
       x2="547.80806"
       y2="383.7653" />
    <linearGradient
       id="linearGradient1507">
      <stop
         id="stop1508"
         offset="0.0000000"
         style="stop-color:#000000;stop-opacity:0.095505618;" />
      <stop
         id="stop1510"
         offset="1.0000000"
         style="stop-color:#000000;stop-opacity:0.0000000;" />
    </linearGradient>
    <linearGradient
       id="linearGradient1506"
       x1="201.38964"
       x2="547.80806"
       xlink:href="#linearGradient1507"
       y1="843.20789"
       y2="383.7653"
       gradientTransform="scale(0.9446888,1.0585496)"
       gradientUnits="userSpaceOnUse" />
    <linearGradient
       id="linearGradient37404">
      <stop
         id="stop37406"
         offset="0"
         style="stop-color:#ffd23f;stop-opacity:1;" />
      <stop
         id="stop37408"
         offset="1.0000000"
         style="stop-color:#ffffff;stop-opacity:1.0000000;" />
    </linearGradient>
    <linearGradient
       inkscape:collect="always"
       xlink:href="#linearGradient37404"
       id="linearGradient11756"
       x1="0.21578404"
       y1="11.148622"
       x2="21.782246"
       y2="11.148622"
       gradientUnits="userSpaceOnUse" />
    <linearGradient
       inkscape:collect="always"
       xlink:href="#linearGradient1492"
       id="linearGradient2203"
       gradientUnits="userSpaceOnUse"
       gradientTransform="matrix(4.4671717e-2,0,0,4.4992632e-2,-13.360607,-5.5704477)"
       x1="741.63899"
       y1="169.44361"
       x2="622.33327"
       y2="287.73826" />
    <linearGradient
       inkscape:collect="always"
       xlink:href="#linearGradient1492"
       id="linearGradient2207"
       gradientUnits="userSpaceOnUse"
       gradientTransform="matrix(4.4677909e-2,0,0,4.4986395e-2,-13.360607,-5.5704477)"
       x1="728.96644"
       y1="230.07422"
       x2="351.7063"
       y2="689.86002" />
  </defs>
  <sodipodi:namedview
     id="base"
     width="22px"
     height="22px"
     inkscape:zoom="27.093334"
     inkscape:cx="12.114319"
     inkscape:cy="10.310157"
     inkscape:window-width="1152"
     inkscape:window-height="817"
     inkscape:window-x="0"
     inkscape:window-y="20"
     inkscape:current-layer="svg1089" />
  <g
     id="g2214">
    <path
       style="fill:#ffffff;fill-rule:evenodd;stroke-width:0.42649043;stroke-opacity:0.36477984"
       sodipodi:nodetypes="cccccccccccccccc"
       id="path930"
       d="M 0.56544005,0.28046682 L 0.56544005,5.6028543 L 0.56544005,10.925243 L 0.56544005,16.247629 L 0.56544005,21.570017 L 5.8498655,21.570017 L 11.134291,21.570017 L 16.418716,21.570017 L 21.703141,21.570017 L 21.703141,16.247629 L 21.703141,10.925243 L 21.703141,5.6028543 L 16.418716,0.28046682 L 11.134291,0.28046682 L 5.8498655,0.28046682 L 0.56544005,0.28046682 z " />
    <g
       transform="matrix(4.7941608e-2,0,0,4.3109047e-2,-7.9241818,-16.932511)"
       style="fill:url(#linearGradient1506)"
       id="g1552">
      <path
         style="fill:url(#linearGradient10307);fill-opacity:0.75;fill-rule:evenodd;stroke-width:0.95407495pt"
         sodipodi:nodetypes="cccccccccccccccc"
         id="path1505"
         d="M 173.35959,408.8126 L 173.35959,531.0736 L 173.35959,653.3346 L 173.35959,775.5956 L 173.35959,897.8566 L 282.12187,897.8566 L 390.88417,897.8566 L 499.64646,897.8566 L 608.40874,897.8566 L 608.40874,775.5956 L 608.40874,653.3346 L 608.40874,531.0736 L 499.64646,408.8126 L 390.88417,408.8126 L 282.12187,408.8126 L 173.35959,408.8126 z " />
      <path
         style="fill:url(#linearGradient10309);fill-opacity:0.75;fill-rule:evenodd;stroke-width:0.95407495pt"
         id="path1538"
         d="M 170.125,407.1875 C 170.125,571.82292 170.125,736.45833 170.125,901.09375 C 317.30208,901.09375 464.47917,901.09375 611.65625,901.09375 C 611.65625,777.33333 611.65625,653.57292 611.65625,529.8125 C 574.80918,488.38978 537.97604,446.95335 501.09375,405.5625 C 390.77083,405.5625 280.44792,405.5625 170.125,405.5625 C 170.125,405.89583 170.125,406.97917 170.125,407.1875 z " />
      <path
         style="fill:url(#linearGradient10311);fill-opacity:0.75;fill-rule:evenodd;stroke-width:0.95407495pt"
         id="path1543"
         d="M 166.875,403.9375 C 166.875,570.73958 166.875,737.54167 166.875,904.34375 C 316.21875,904.34375 465.5625,904.34375 614.90625,904.34375 C 614.90625,779.08333 614.90625,653.82292 614.90625,528.5625 C 577.45517,486.47298 540.01754,444.37017 502.53125,402.3125 C 390.64583,402.3125 278.76042,402.3125 166.875,402.3125 C 166.875,402.64583 166.875,403.72917 166.875,403.9375 z " />
    </g>
    <path
       style="fill:url(#linearGradient2207);fill-opacity:1;fill-rule:evenodd;stroke:#000000;stroke-width:0.06444584;stroke-opacity:0.36477984"
       sodipodi:nodetypes="cccccccccccccccc"
       id="rect900"
       d="M 0.5741186,0.30685793 L 0.5741186,5.6292454 L 0.5741186,10.951633 L 0.5741186,16.274021 L 0.5741186,21.596408 L 5.8585436,21.596408 L 11.142969,21.596408 L 16.427394,21.596408 L 21.711819,21.596408 L 21.711819,16.274021 L 21.711819,10.951633 L 21.711819,0.3142849 L 16.427394,0.30685793 L 11.142969,0.30685793 L 5.8585436,0.30685793 L 0.5741186,0.30685793 z " />
    <path
       style="fill:none;fill-rule:evenodd;stroke:#ffffff;stroke-width:0.25688249;stroke-opacity:1"
       sodipodi:nodetypes="cccccc"
       id="path2674"
       d="M 2.2356958,1.8762178 L 2.2356958,20.324012 L 20.209287,20.324012 L 20.077126,1.9301969 L 17.005158,1.8762178 L 2.2356958,1.8762178 z " />
  </g>
  <g
     id="g3173"
     transform="translate(-0.3936097,-0.2201875)">
    <path
       sodipodi:nodetypes="cssssc"
       id="path2198"
       d="M 3.4694881,2.8962933 C 3.4694881,3.0774377 3.4694881,3.5646225 3.4694881,3.8876838 C 3.4694881,4.158063 3.4694881,4.4284422 3.4694881,4.6988214 C 3.4694881,4.9241375 3.4694881,5.1494535 3.4694881,5.3747695 C 3.4694881,5.6000855 3.4694881,5.8254015 3.4694881,6.0507175 C 3.4694881,6.2009282 3.4694881,5.3146852 3.4694881,5.4648959"
       style="fill:none;fill-rule:evenodd;stroke:#ff0000;stroke-width:0.2343951;stroke-linecap:butt;stroke-linejoin:miter;stroke-miterlimit:4;stroke-dasharray:none;stroke-opacity:1" />
    <path
       sodipodi:nodetypes="cssssc"
       id="path3171"
       d="M 3.4540046,3.0224688 C 3.6351496,3.0224688 4.1223346,3.0224688 4.4453956,3.0224688 C 4.7157746,3.0224688 4.9861536,3.0224688 5.2565336,3.0224688 C 5.4818496,3.0224688 5.7071656,3.0224688 5.9324816,3.0224688 C 6.1577976,3.0224688 6.3831136,3.0224688 6.6084296,3.0224688 C 6.7586396,3.0224688 5.8723966,3.0224688 6.0226076,3.0224688"
       style="fill:none;fill-rule:evenodd;stroke:#ff0000;stroke-width:0.2343951;stroke-linecap:butt;stroke-linejoin:miter;stroke-miterlimit:4;stroke-dasharray:none;stroke-opacity:1" />
  </g>
  <g
     id="g3177"
     transform="matrix(0,1,-1,0,22.09327,-0.7778991)">
    <path
       sodipodi:nodetypes="cssssc"
       id="path3179"
       d="M 3.4694881,2.8962933 C 3.4694881,3.0774377 3.4694881,3.5646225 3.4694881,3.8876838 C 3.4694881,4.158063 3.4694881,4.4284422 3.4694881,4.6988214 C 3.4694881,4.9241375 3.4694881,5.1494535 3.4694881,5.3747695 C 3.4694881,5.6000855 3.4694881,5.8254015 3.4694881,6.0507175 C 3.4694881,6.2009282 3.4694881,5.3146852 3.4694881,5.4648959"
       style="fill:none;fill-rule:evenodd;stroke:#ff0000;stroke-width:0.2343951;stroke-linecap:butt;stroke-linejoin:miter;stroke-miterlimit:4;stroke-dasharray:none;stroke-opacity:1" />
    <path
       sodipodi:nodetypes="cssssc"
       id="path3181"
       d="M 3.4540046,3.0224688 C 3.6351496,3.0224688 4.1223346,3.0224688 4.4453956,3.0224688 C 4.7157746,3.0224688 4.9861536,3.0224688 5.2565336,3.0224688 C 5.4818496,3.0224688 5.7071656,3.0224688 5.9324816,3.0224688 C 6.1577976,3.0224688 6.3831136,3.0224688 6.6084296,3.0224688 C 6.7586396,3.0224688 5.8723966,3.0224688 6.0226076,3.0224688"
       style="fill:none;fill-rule:evenodd;stroke:#ff0000;stroke-width:0.2343951;stroke-linecap:butt;stroke-linejoin:miter;stroke-miterlimit:4;stroke-dasharray:none;stroke-opacity:1" />
  </g>
  <g
     id="g3183"
     transform="matrix(0,-1,1,0,0.164102,22.892246)">
    <path
       sodipodi:nodetypes="cssssc"
       id="path3185"
       d="M 3.4694881,2.8962933 C 3.4694881,3.0774377 3.4694881,3.5646225 3.4694881,3.8876838 C 3.4694881,4.158063 3.4694881,4.4284422 3.4694881,4.6988214 C 3.4694881,4.9241375 3.4694881,5.1494535 3.4694881,5.3747695 C 3.4694881,5.6000855 3.4694881,5.8254015 3.4694881,6.0507175 C 3.4694881,6.2009282 3.4694881,5.3146852 3.4694881,5.4648959"
       style="fill:none;fill-rule:evenodd;stroke:#ff0000;stroke-width:0.2343951;stroke-linecap:butt;stroke-linejoin:miter;stroke-miterlimit:4;stroke-dasharray:none;stroke-opacity:1" />
    <path
       sodipodi:nodetypes="cssssc"
       id="path3187"
       d="M 3.4540046,3.0224688 C 3.6351496,3.0224688 4.1223346,3.0224688 4.4453956,3.0224688 C 4.7157746,3.0224688 4.9861536,3.0224688 5.2565336,3.0224688 C 5.4818496,3.0224688 5.7071656,3.0224688 5.9324816,3.0224688 C 6.1577976,3.0224688 6.3831136,3.0224688 6.6084296,3.0224688 C 6.7586396,3.0224688 5.8723966,3.0224688 6.0226076,3.0224688"
       style="fill:none;fill-rule:evenodd;stroke:#ff0000;stroke-width:0.2343951;stroke-linecap:butt;stroke-linejoin:miter;stroke-miterlimit:4;stroke-dasharray:none;stroke-opacity:1" />
  </g>
  <g
     id="g3189"
     transform="matrix(-1,0,0,-1,22.650982,22.334534)">
    <path
       sodipodi:nodetypes="cssssc"
       id="path3191"
       d="M 3.4694881,2.8962933 C 3.4694881,3.0774377 3.4694881,3.5646225 3.4694881,3.8876838 C 3.4694881,4.158063 3.4694881,4.4284422 3.4694881,4.6988214 C 3.4694881,4.9241375 3.4694881,5.1494535 3.4694881,5.3747695 C 3.4694881,5.6000855 3.4694881,5.8254015 3.4694881,6.0507175 C 3.4694881,6.2009282 3.4694881,5.3146852 3.4694881,5.4648959"
       style="fill:none;fill-rule:evenodd;stroke:#ff0000;stroke-width:0.2343951;stroke-linecap:butt;stroke-linejoin:miter;stroke-miterlimit:4;stroke-dasharray:none;stroke-opacity:1" />
    <path
       sodipodi:nodetypes="cssssc"
       id="path3193"
       d="M 3.4540046,3.0224688 C 3.6351496,3.0224688 4.1223346,3.0224688 4.4453956,3.0224688 C 4.7157746,3.0224688 4.9861536,3.0224688 5.2565336,3.0224688 C 5.4818496,3.0224688 5.7071656,3.0224688 5.9324816,3.0224688 C 6.1577976,3.0224688 6.3831136,3.0224688 6.6084296,3.0224688 C 6.7586396,3.0224688 5.8723966,3.0224688 6.0226076,3.0224688"
       style="fill:none;fill-rule:evenodd;stroke:#ff0000;stroke-width:0.2343951;stroke-linecap:butt;stroke-linejoin:miter;stroke-miterlimit:4;stroke-dasharray:none;stroke-opacity:1" />
  </g>
</svg>
