<?xml version="1.0" encoding="UTF-8" standalone="no"?>
<!-- Created with Sodipodi ("http://www.sodipodi.com/") -->
<svg
   xmlns:dc="http://purl.org/dc/elements/1.1/"
   xmlns:cc="http://web.resource.org/cc/"
   xmlns:rdf="http://www.w3.org/1999/02/22-rdf-syntax-ns#"
   xmlns:svg="http://www.w3.org/2000/svg"
   xmlns="http://www.w3.org/2000/svg"
   xmlns:xlink="http://www.w3.org/1999/xlink"
   xmlns:sodipodi="http://sodipodi.sourceforge.net/DTD/sodipodi-0.dtd"
   xmlns:inkscape="http://www.inkscape.org/namespaces/inkscape"
   height="22"
   id="svg1089"
   sodipodi:docbase="C:\ms4w\Apache\htdocs\i3geo\imagens"
   sodipodi:docname="selpoli.svg"
   sodipodi:version="0.32"
   space="preserve"
   width="22"
   inkscape:version="0.45.1"
   inkscape:output_extension="org.inkscape.output.svg.inkscape"
   version="1.0"
   inkscape:export-filename="C:\ms4w\Apache\htdocs\i3geo\imagens\selpoli.png"
   inkscape:export-xdpi="90"
   inkscape:export-ydpi="90">
  <metadata
     id="metadata3">
    <rdf:RDF>
      <cc:Work
         rdf:about="">
        <dc:title>magnifying glass</dc:title>
        <dc:description />
        <dc:subject>
          <rdf:Bag>
            <rdf:li>multiplying</rdf:li>
            <rdf:li>magnifying</rdf:li>
            <rdf:li>eye</rdf:li>
            <rdf:li>tool</rdf:li>
            <rdf:li>loupe</rdf:li>
            <rdf:li>glass</rdf:li>
          </rdf:Bag>
        </dc:subject>
        <dc:publisher>
          <cc:Agent
             rdf:about="http://www.openclipart.org/">
            <dc:title>Open Clip Art Library</dc:title>
          </cc:Agent>
        </dc:publisher>
        <dc:creator>
          <cc:Agent>
            <dc:title>Tom&amp;Atilde;&amp;iexcl;&amp;Aring;&amp;iexcl; Kratochv&amp;Atilde;&amp;shy;la</dc:title>
          </cc:Agent>
        </dc:creator>
        <dc:rights>
          <cc:Agent>
            <dc:title>Tom&amp;Atilde;&amp;iexcl;&amp;Aring;&amp;iexcl; Kratochv&amp;Atilde;&amp;shy;la</dc:title>
          </cc:Agent>
        </dc:rights>
        <dc:date />
        <dc:format>image/svg+xml</dc:format>
        <dc:type
           rdf:resource="http://purl.org/dc/dcmitype/StillImage" />
        <cc:license
           rdf:resource="http://web.resource.org/cc/PublicDomain" />
        <dc:language>en</dc:language>
      </cc:Work>
      <cc:License
         rdf:about="http://web.resource.org/cc/PublicDomain">
        <cc:permits
           rdf:resource="http://web.resource.org/cc/Reproduction" />
        <cc:permits
           rdf:resource="http://web.resource.org/cc/Distribution" />
        <cc:permits
           rdf:resource="http://web.resource.org/cc/DerivativeWorks" />
      </cc:License>
    </rdf:RDF>
  </metadata>
  <defs
     id="defs1091">
    <linearGradient
       id="linearGradient1497"
       x1="741.63899"
       x2="622.33327"
       xlink:href="#linearGradient1492"
       y1="169.44361"
       y2="287.73826"
       gradientTransform="scale(0.9552926,1.0467997)"
       gradientUnits="userSpaceOnUse" />
    <linearGradient
       id="linearGradient1492">
      <stop
         id="stop1493"
         offset="0.0000000"
         style="stop-color:#dadada;stop-opacity:1.0000000;" />
      <stop
         id="stop1496"
         offset="0.34923077"
         style="stop-color:#f1f1f1;stop-opacity:1.0000000;" />
      <stop
         id="stop1494"
         offset="1.0000000"
         style="stop-color:#f0f0f0;stop-opacity:1.0000000;" />
    </linearGradient>
    <linearGradient
       id="linearGradient1495"
       x1="728.96644"
       x2="351.7063"
       xlink:href="#linearGradient1492"
       y1="230.07422"
       y2="689.86002"
       gradientTransform="scale(0.955425,1.0466546)"
       gradientUnits="userSpaceOnUse" />
    <linearGradient
       inkscape:collect="always"
       xlink:href="#linearGradient1507"
       id="linearGradient10311"
       gradientUnits="userSpaceOnUse"
       gradientTransform="scale(0.9446888,1.0585496)"
       x1="201.38964"
       y1="843.20789"
       x2="547.80806"
       y2="383.7653" />
    <linearGradient
       inkscape:collect="always"
       xlink:href="#linearGradient1507"
       id="linearGradient10309"
       gradientUnits="userSpaceOnUse"
       gradientTransform="scale(0.9446888,1.0585496)"
       x1="201.38964"
       y1="843.20789"
       x2="547.80806"
       y2="383.7653" />
    <linearGradient
       inkscape:collect="always"
       xlink:href="#linearGradient1507"
       id="linearGradient10307"
       gradientUnits="userSpaceOnUse"
       gradientTransform="scale(0.9446888,1.0585496)"
       x1="201.38964"
       y1="843.20789"
       x2="547.80806"
       y2="383.7653" />
    <linearGradient
       id="linearGradient1507">
      <stop
         id="stop1508"
         offset="0.0000000"
         style="stop-color:#000000;stop-opacity:0.095505618;" />
      <stop
         id="stop1510"
         offset="1.0000000"
         style="stop-color:#000000;stop-opacity:0.0000000;" />
    </linearGradient>
    <linearGradient
       id="linearGradient1506"
       x1="201.38964"
       x2="547.80806"
       xlink:href="#linearGradient1507"
       y1="843.20789"
       y2="383.7653"
       gradientTransform="scale(0.9446888,1.0585496)"
       gradientUnits="userSpaceOnUse" />
    <linearGradient
       id="linearGradient37404">
      <stop
         id="stop37406"
         offset="0"
         style="stop-color:#ffd23f;stop-opacity:1;" />
      <stop
         id="stop37408"
         offset="1.0000000"
         style="stop-color:#ffffff;stop-opacity:1.0000000;" />
    </linearGradient>
    <linearGradient
       inkscape:collect="always"
       xlink:href="#linearGradient37404"
       id="linearGradient11756"
       x1="0.21578404"
       y1="11.148622"
       x2="21.782246"
       y2="11.148622"
       gradientUnits="userSpaceOnUse" />
    <linearGradient
       inkscape:collect="always"
       xlink:href="#linearGradient1492"
       id="linearGradient2203"
       gradientUnits="userSpaceOnUse"
       gradientTransform="matrix(4.4671717e-2,0,0,4.4992632e-2,-13.360607,-5.5704477)"
       x1="741.63899"
       y1="169.44361"
       x2="622.33327"
       y2="287.73826" />
    <linearGradient
       inkscape:collect="always"
       xlink:href="#linearGradient1492"
       id="linearGradient2207"
       gradientUnits="userSpaceOnUse"
       gradientTransform="matrix(4.4677909e-2,0,0,4.4986395e-2,-13.360607,-5.5704477)"
       x1="728.96644"
       y1="230.07422"
       x2="351.7063"
       y2="689.86002" />
  </defs>
  <sodipodi:namedview
     id="base"
     width="22px"
     height="22px"
     inkscape:zoom="27.093334"
     inkscape:cx="12.114319"
     inkscape:cy="10.310157"
     inkscape:window-width="1152"
     inkscape:window-height="817"
     inkscape:window-x="66"
     inkscape:window-y="66"
     inkscape:current-layer="svg1089" />
  <g
     id="g2214">
    <path
       style="fill:#ffffff;fill-rule:evenodd;stroke-width:0.42649043;stroke-opacity:0.36477984"
       sodipodi:nodetypes="cccccccccccccccc"
       id="path930"
       d="M 0.56544005,0.28046682 L 0.56544005,5.6028543 L 0.56544005,10.925243 L 0.56544005,16.247629 L 0.56544005,21.570017 L 5.8498655,21.570017 L 11.134291,21.570017 L 16.418716,21.570017 L 21.703141,21.570017 L 21.703141,16.247629 L 21.703141,10.925243 L 21.703141,5.6028543 L 16.418716,0.28046682 L 11.134291,0.28046682 L 5.8498655,0.28046682 L 0.56544005,0.28046682 z " />
    <g
       transform="matrix(4.7941608e-2,0,0,4.3109047e-2,-7.9241818,-16.932511)"
       style="fill:url(#linearGradient1506)"
       id="g1552">
      <path
         style="fill:url(#linearGradient10307);fill-opacity:0.75;fill-rule:evenodd;stroke-width:0.95407495pt"
         sodipodi:nodetypes="cccccccccccccccc"
         id="path1505"
         d="M 173.35959,408.8126 L 173.35959,531.0736 L 173.35959,653.3346 L 173.35959,775.5956 L 173.35959,897.8566 L 282.12187,897.8566 L 390.88417,897.8566 L 499.64646,897.8566 L 608.40874,897.8566 L 608.40874,775.5956 L 608.40874,653.3346 L 608.40874,531.0736 L 499.64646,408.8126 L 390.88417,408.8126 L 282.12187,408.8126 L 173.35959,408.8126 z " />
      <path
         style="fill:url(#linearGradient10309);fill-opacity:0.75;fill-rule:evenodd;stroke-width:0.95407495pt"
         id="path1538"
         d="M 170.125,407.1875 C 170.125,571.82292 170.125,736.45833 170.125,901.09375 C 317.30208,901.09375 464.47917,901.09375 611.65625,901.09375 C 611.65625,777.33333 611.65625,653.57292 611.65625,529.8125 C 574.80918,488.38978 537.97604,446.95335 501.09375,405.5625 C 390.77083,405.5625 280.44792,405.5625 170.125,405.5625 C 170.125,405.89583 170.125,406.97917 170.125,407.1875 z " />
      <path
         style="fill:url(#linearGradient10311);fill-opacity:0.75;fill-rule:evenodd;stroke-width:0.95407495pt"
         id="path1543"
         d="M 166.875,403.9375 C 166.875,570.73958 166.875,737.54167 166.875,904.34375 C 316.21875,904.34375 465.5625,904.34375 614.90625,904.34375 C 614.90625,779.08333 614.90625,653.82292 614.90625,528.5625 C 577.45517,486.47298 540.01754,444.37017 502.53125,402.3125 C 390.64583,402.3125 278.76042,402.3125 166.875,402.3125 C 166.875,402.64583 166.875,403.72917 166.875,403.9375 z " />
    </g>
    <path
       style="fill:url(#linearGradient2207);fill-opacity:1;fill-rule:evenodd;stroke:#000000;stroke-width:0.06444584;stroke-opacity:0.36477984"
       sodipodi:nodetypes="cccccccccccccccc"
       id="rect900"
       d="M 0.5741186,0.30685793 L 0.5741186,5.6292454 L 0.5741186,10.951633 L 0.5741186,16.274021 L 0.5741186,21.596408 L 5.8585436,21.596408 L 11.142969,21.596408 L 16.427394,21.596408 L 21.711819,21.596408 L 21.711819,16.274021 L 21.711819,10.951633 L 21.711819,0.3142849 L 16.427394,0.30685793 L 11.142969,0.30685793 L 5.8585436,0.30685793 L 0.5741186,0.30685793 z " />
    <path
       style="fill:none;fill-rule:evenodd;stroke:#ffffff;stroke-width:0.25688249;stroke-opacity:1"
       sodipodi:nodetypes="cccccc"
       id="path2674"
       d="M 2.2356958,1.8762178 L 2.2356958,20.324012 L 20.209287,20.324012 L 20.077126,1.9301969 L 17.005158,1.8762178 L 2.2356958,1.8762178 z " />
  </g>
  <path
     style="opacity:0.74761903;fill:none;fill-opacity:1;fill-rule:evenodd;stroke:#ff0000;stroke-width:0.2;stroke-linecap:butt;stroke-linejoin:miter;stroke-miterlimit:4;stroke-dasharray:none;stroke-opacity:1"
     d="M 4.0231298,12.581201 C 4.0231298,12.476218 4.0231298,12.132904 4.0231298,11.916831 C 4.0231298,11.679467 4.0169492,11.431002 4.0600393,11.215551 C 4.1235969,10.897763 4.2752758,10.585186 4.3922243,10.292815 C 4.5066485,10.006755 4.6749742,9.788609 4.8720471,9.591536 C 5.0989103,9.364673 5.1697448,9.0366829 5.4625983,8.8902562 C 5.5909291,8.8260908 5.7086613,8.7426184 5.8316928,8.6687995 C 6.2164703,8.437933 6.6531666,8.4842523 7.086614,8.4842523 C 7.5418305,8.4842523 7.9970471,8.4842523 8.4522636,8.4842523 C 8.8926803,8.4842523 9.4149841,8.5447431 9.8179132,8.4104334 C 10.232228,8.2723282 10.60463,7.87576 10.925197,7.635335 C 11.072835,7.5246066 11.220473,7.4138783 11.36811,7.3031499 C 11.425502,7.2601065 11.491142,7.229331 11.552658,7.1924216 C 12.267969,6.7632348 12.588765,6.2292519 13.029036,5.6422248 C 13.339368,5.2284476 13.945134,4.8374748 14.431595,4.756398 C 14.579232,4.7317917 14.72687,4.7071854 14.874508,4.6825791 C 15.725268,4.5407858 16.381298,4.9268453 16.941437,5.3469492 C 17.066712,5.4409053 17.162894,5.5684059 17.273622,5.6791342 C 17.776981,6.1824936 17.65006,7.1630482 17.495079,7.7829728 C 17.308512,8.5292385 16.452552,9.33527 15.981791,9.923721 C 15.564729,10.445048 15.243206,11.343744 15.501969,11.99065 C 15.551181,12.113681 15.600394,12.236713 15.649606,12.359744 C 15.952743,13.117587 16.917286,13.922699 17.495079,14.500492 C 17.871257,14.87667 17.901083,15.557946 17.901083,16.050689 C 17.901083,16.64204 17.834744,16.788714 17.568898,17.231791 C 17.19542,17.854254 15.98003,18.228934 15.317421,18.449803 C 14.335371,18.777153 12.819074,18.333427 11.847933,18.117618 C 11.751104,18.096101 11.651083,18.093012 11.552658,18.080709 C 11.298892,18.048988 10.396919,17.515522 10.187008,17.30561 C 9.7984043,16.917007 9.3334833,16.599724 8.9320864,16.198327 C 8.37619,15.64243 8.0338874,14.894124 7.4926179,14.352854 C 7.1387124,13.998949 6.7018322,13.796675 6.3115156,13.503937 C 5.9558663,13.2372 5.4344928,13.140125 5.0565944,12.913386 C 4.8799958,12.807427 4.6705196,12.794168 4.5398621,12.728839 C 4.5208689,12.719342 4.3666715,12.694201 4.3553149,12.691929"
     id="path2197" />
</svg>
