<?xml version="1.0" encoding="UTF-8" standalone="no"?>
<!-- Created with Sodipodi ("http://www.sodipodi.com/") -->
<svg
   xmlns:dc="http://purl.org/dc/elements/1.1/"
   xmlns:cc="http://web.resource.org/cc/"
   xmlns:rdf="http://www.w3.org/1999/02/22-rdf-syntax-ns#"
   xmlns:svg="http://www.w3.org/2000/svg"
   xmlns="http://www.w3.org/2000/svg"
   xmlns:xlink="http://www.w3.org/1999/xlink"
   xmlns:sodipodi="http://sodipodi.sourceforge.net/DTD/sodipodi-0.dtd"
   xmlns:inkscape="http://www.inkscape.org/namespaces/inkscape"
   height="22"
   id="svg1089"
   sodipodi:docbase="C:\ms4w\Apache\htdocs\i3geo\imagens\visual\folha"
   sodipodi:docname="zoomli.svg"
   sodipodi:version="0.32"
   space="preserve"
   width="22"
   inkscape:version="0.45.1"
   inkscape:output_extension="org.inkscape.output.svg.inkscape"
   version="1.0"
   inkscape:export-filename="C:\ms4w\Apache\htdocs\i3geo\imagens\visual\folha\zoomli.png"
   inkscape:export-xdpi="90"
   inkscape:export-ydpi="90">
  <metadata
     id="metadata3">
    <rdf:RDF>
      <cc:Work
         rdf:about="">
        <dc:title>magnifying glass</dc:title>
        <dc:description />
        <dc:subject>
          <rdf:Bag>
            <rdf:li>multiplying</rdf:li>
            <rdf:li>magnifying</rdf:li>
            <rdf:li>eye</rdf:li>
            <rdf:li>tool</rdf:li>
            <rdf:li>loupe</rdf:li>
            <rdf:li>glass</rdf:li>
          </rdf:Bag>
        </dc:subject>
        <dc:publisher>
          <cc:Agent
             rdf:about="http://www.openclipart.org/">
            <dc:title>Open Clip Art Library</dc:title>
          </cc:Agent>
        </dc:publisher>
        <dc:creator>
          <cc:Agent>
            <dc:title>Tom&amp;Atilde;&amp;iexcl;&amp;Aring;&amp;iexcl; Kratochv&amp;Atilde;&amp;shy;la</dc:title>
          </cc:Agent>
        </dc:creator>
        <dc:rights>
          <cc:Agent>
            <dc:title>Tom&amp;Atilde;&amp;iexcl;&amp;Aring;&amp;iexcl; Kratochv&amp;Atilde;&amp;shy;la</dc:title>
          </cc:Agent>
        </dc:rights>
        <dc:date />
        <dc:format>image/svg+xml</dc:format>
        <dc:type
           rdf:resource="http://purl.org/dc/dcmitype/StillImage" />
        <cc:license
           rdf:resource="http://web.resource.org/cc/PublicDomain" />
        <dc:language>en</dc:language>
      </cc:Work>
      <cc:License
         rdf:about="http://web.resource.org/cc/PublicDomain">
        <cc:permits
           rdf:resource="http://web.resource.org/cc/Reproduction" />
        <cc:permits
           rdf:resource="http://web.resource.org/cc/Distribution" />
        <cc:permits
           rdf:resource="http://web.resource.org/cc/DerivativeWorks" />
      </cc:License>
    </rdf:RDF>
  </metadata>
  <defs
     id="defs1091">
    <linearGradient
       id="linearGradient1497"
       x1="741.63899"
       x2="622.33327"
       xlink:href="#linearGradient1492"
       y1="169.44361"
       y2="287.73826"
       gradientTransform="scale(0.9552926,1.0467997)"
       gradientUnits="userSpaceOnUse" />
    <linearGradient
       id="linearGradient1492">
      <stop
         id="stop1493"
         offset="0.0000000"
         style="stop-color:#dadada;stop-opacity:1.0000000;" />
      <stop
         id="stop1496"
         offset="0.34923077"
         style="stop-color:#f1f1f1;stop-opacity:1.0000000;" />
      <stop
         id="stop1494"
         offset="1.0000000"
         style="stop-color:#f0f0f0;stop-opacity:1.0000000;" />
    </linearGradient>
    <linearGradient
       id="linearGradient1495"
       x1="728.96644"
       x2="351.7063"
       xlink:href="#linearGradient1492"
       y1="230.07422"
       y2="689.86002"
       gradientTransform="scale(0.955425,1.0466546)"
       gradientUnits="userSpaceOnUse" />
    <linearGradient
       inkscape:collect="always"
       xlink:href="#linearGradient1507"
       id="linearGradient10311"
       gradientUnits="userSpaceOnUse"
       gradientTransform="scale(0.9446888,1.0585496)"
       x1="201.38964"
       y1="843.20789"
       x2="547.80806"
       y2="383.7653" />
    <linearGradient
       inkscape:collect="always"
       xlink:href="#linearGradient1507"
       id="linearGradient10309"
       gradientUnits="userSpaceOnUse"
       gradientTransform="scale(0.9446888,1.0585496)"
       x1="201.38964"
       y1="843.20789"
       x2="547.80806"
       y2="383.7653" />
    <linearGradient
       inkscape:collect="always"
       xlink:href="#linearGradient1507"
       id="linearGradient10307"
       gradientUnits="userSpaceOnUse"
       gradientTransform="scale(0.9446888,1.0585496)"
       x1="201.38964"
       y1="843.20789"
       x2="547.80806"
       y2="383.7653" />
    <linearGradient
       id="linearGradient1507">
      <stop
         id="stop1508"
         offset="0.0000000"
         style="stop-color:#000000;stop-opacity:0.095505618;" />
      <stop
         id="stop1510"
         offset="1.0000000"
         style="stop-color:#000000;stop-opacity:0.0000000;" />
    </linearGradient>
    <linearGradient
       id="linearGradient1506"
       x1="201.38964"
       x2="547.80806"
       xlink:href="#linearGradient1507"
       y1="843.20789"
       y2="383.7653"
       gradientTransform="scale(0.9446888,1.0585496)"
       gradientUnits="userSpaceOnUse" />
    <linearGradient
       id="linearGradient37404">
      <stop
         id="stop37406"
         offset="0"
         style="stop-color:#ffd23f;stop-opacity:1;" />
      <stop
         id="stop37408"
         offset="1.0000000"
         style="stop-color:#ffffff;stop-opacity:1.0000000;" />
    </linearGradient>
    <linearGradient
       inkscape:collect="always"
       xlink:href="#linearGradient37404"
       id="linearGradient11756"
       x1="0.21578404"
       y1="11.148622"
       x2="21.782246"
       y2="11.148622"
       gradientUnits="userSpaceOnUse" />
  </defs>
  <sodipodi:namedview
     id="base"
     width="22px"
     height="22px"
     inkscape:zoom="13.546667"
     inkscape:cx="17.419779"
     inkscape:cy="9.9455271"
     inkscape:window-width="758"
     inkscape:window-height="579"
     inkscape:window-x="277"
     inkscape:window-y="76"
     inkscape:current-layer="svg1089" />
  <g
     id="g10278"
     transform="matrix(0.157614,0,0,0.1448693,-2.1391191,-0.6364529)">
    <path
       style="fill:#ffffff;fill-rule:evenodd;stroke-width:0.42649043;stroke-opacity:0.36477984"
       sodipodi:nodetypes="cccccccccccccccc"
       id="path930"
       d="M 17.159384,6.3292894 L 17.159384,43.068526 L 17.159384,79.807768 L 17.159384,116.547 L 17.159384,153.28624 L 50.687024,153.28624 L 84.214664,153.28624 L 117.7423,153.28624 L 151.26994,153.28624 L 151.26994,116.547 L 151.26994,79.807768 L 151.26994,43.068526 L 117.7423,6.3292894 L 84.214664,6.3292894 L 50.687024,6.3292894 L 17.159384,6.3292894 z " />
    <g
       transform="matrix(0.304171,0,0,0.297572,-36.70399,-112.488)"
       style="fill:url(#linearGradient1506)"
       id="g1552">
      <path
         style="fill:url(#linearGradient10307);fill-opacity:0.75;fill-rule:evenodd;stroke-width:0.95407495pt"
         sodipodi:nodetypes="cccccccccccccccc"
         id="path1505"
         d="M 173.35959,408.8126 L 173.35959,531.0736 L 173.35959,653.3346 L 173.35959,775.5956 L 173.35959,897.8566 L 282.12187,897.8566 L 390.88417,897.8566 L 499.64646,897.8566 L 608.40874,897.8566 L 608.40874,775.5956 L 608.40874,653.3346 L 608.40874,531.0736 L 499.64646,408.8126 L 390.88417,408.8126 L 282.12187,408.8126 L 173.35959,408.8126 z " />
      <path
         style="fill:url(#linearGradient10309);fill-opacity:0.75;fill-rule:evenodd;stroke-width:0.95407495pt"
         id="path1538"
         d="M 170.125,407.1875 C 170.125,571.82292 170.125,736.45833 170.125,901.09375 C 317.30208,901.09375 464.47917,901.09375 611.65625,901.09375 C 611.65625,777.33333 611.65625,653.57292 611.65625,529.8125 C 574.80918,488.38978 537.97604,446.95335 501.09375,405.5625 C 390.77083,405.5625 280.44792,405.5625 170.125,405.5625 C 170.125,405.89583 170.125,406.97917 170.125,407.1875 z " />
      <path
         style="fill:url(#linearGradient10311);fill-opacity:0.75;fill-rule:evenodd;stroke-width:0.95407495pt"
         id="path1543"
         d="M 166.875,403.9375 C 166.875,570.73958 166.875,737.54167 166.875,904.34375 C 316.21875,904.34375 465.5625,904.34375 614.90625,904.34375 C 614.90625,779.08333 614.90625,653.82292 614.90625,528.5625 C 577.45517,486.47298 540.01754,444.37017 502.53125,402.3125 C 390.64583,402.3125 278.76042,402.3125 166.875,402.3125 C 166.875,402.64583 166.875,403.72917 166.875,403.9375 z " />
    </g>
    <path
       transform="matrix(0.296689,0,0,0.296689,-71.19601,-34.05825)"
       style="fill:url(#linearGradient1495);fill-opacity:1;fill-rule:evenodd;stroke:#000000;stroke-width:1.4375;stroke-opacity:0.36477984"
       sodipodi:nodetypes="cccccccccccccccc"
       id="rect900"
       d="M 297.99034,136.74154 L 297.99034,260.57234 L 297.99034,384.40315 L 297.99034,508.23395 L 297.99034,632.06475 L 410.99634,632.06475 L 524.00235,632.06475 L 637.00835,632.06475 L 750.01435,632.06475 L 750.01435,508.23395 L 750.01435,384.40315 L 750.01435,260.57234 L 637.00835,136.74154 L 524.00235,136.74154 L 410.99634,136.74154 L 297.99034,136.74154 z " />
    <path
       style="fill:none;fill-rule:evenodd;stroke:#ffffff;stroke-width:1.70000005;stroke-opacity:1"
       sodipodi:nodetypes="cccccc"
       id="path2674"
       d="M 27.756512,17.344397 L 27.756512,144.68535 L 141.79201,144.68535 L 142.35856,38.608763 L 121.46305,17.344397 L 27.756512,17.344397 z " />
    <path
       transform="matrix(0.296689,0,0,0.296689,-71.19601,-34.05825)"
       style="fill:url(#linearGradient1497);fill-opacity:1;fill-rule:evenodd;stroke-width:0.95407495pt"
       sodipodi:nodetypes="cccc"
       id="path906"
       d="M 750.01435,260.57234 C 715.9446,250.48602 671.79788,251.91624 638.44792,257.66516 C 644.20618,220.71628 644.92597,174.41021 637.00835,136.74154 L 750.01435,260.57234 z " />
  </g>
  <rect
     style="opacity:1;fill:none;fill-opacity:1;fill-rule:evenodd;stroke:#fb0000;stroke-width:0.58399999;stroke-miterlimit:4;stroke-dasharray:none;stroke-opacity:1"
     id="rect2197"
     width="13.730315"
     height="14.468504"
     x="6.4960628"
     y="6.0551181"
     ry="0.89972925" />
  <g
     id="g2175"
     transform="matrix(0.4236857,0,0,0.3624184,-0.8114047,0.1578083)"
     style="fill:#ffffff;fill-opacity:1;stroke:#251b15;stroke-opacity:1"
     inkscape:export-xdpi="90"
     inkscape:export-ydpi="90">
    <path
       transform="translate(-552.126,-18.58302)"
       style="fill:#ffffff;fill-opacity:1;fill-rule:evenodd;stroke:#251b15;stroke-width:1;stroke-linecap:butt;stroke-linejoin:miter;stroke-dasharray:none;stroke-opacity:1"
       sodipodi:type="arc"
       sodipodi:ry="10.746269"
       sodipodi:rx="11.026123"
       sodipodi:cy="35.148811"
       sodipodi:cx="569.16095"
       id="path913"
       d="M 580.18707 35.148811 A 11.026123 10.746269 0 1 1  558.13483,35.148811 A 11.026123 10.746269 0 1 1  580.18707 35.148811 z" />
    <a
       xlink:href="diagram/diagram.php"
       transform="translate(-533.4794,-6.802868)"
       id="a1514"
       style="fill:#ffffff;fill-opacity:1;stroke:#251b15;stroke-opacity:1">
      <path
         style="fill:#ffffff;fill-opacity:1;fill-rule:evenodd;stroke:#251b15;stroke-width:1;stroke-linecap:butt;stroke-linejoin:miter;stroke-dasharray:none;stroke-opacity:1"
         sodipodi:type="arc"
         sodipodi:ry="10.75"
         sodipodi:rx="11"
         sodipodi:cy="22.700001"
         sodipodi:cx="551"
         id="path914"
         d="M 562 22.700001 A 11 10.75 0 1 1  540,22.700001 A 11 10.75 0 1 1  562 22.700001 z" />
    </a>
    <path
       transform="matrix(0.4751,0.879932,-0.879932,0.4751,-234.2667,-528.9815)"
       style="fill:#ffffff;fill-opacity:1;fill-rule:evenodd;stroke:#251b15;stroke-width:1pt;stroke-linecap:butt;stroke-linejoin:miter;stroke-opacity:1"
       sodipodi:type="arc"
       sodipodi:ry="1.9589615"
       sodipodi:rx="0.33581543"
       sodipodi:cy="38.563004"
       sodipodi:cx="611.64233"
       id="path915"
       d="M 611.97815 38.563004 A 0.33581543 1.9589615 0 1 1  611.30652,38.563004 A 0.33581543 1.9589615 0 1 1  611.97815 38.563004 z" />
    <path
       transform="translate(-552.4144,-19.92701)"
       style="fill:#ffffff;fill-opacity:1;fill-rule:evenodd;stroke:#251b15;stroke-width:1pt;stroke-linecap:butt;stroke-linejoin:miter;stroke-opacity:1"
       sodipodi:type="arc"
       sodipodi:ry="3.0474091"
       sodipodi:rx="2.8495178"
       sodipodi:cy="70.617256"
       sodipodi:cx="585.89685"
       id="path916"
       d="M 588.74637 70.617256 A 2.8495178 3.0474091 0 1 1  583.04733,70.617256 A 2.8495178 3.0474091 0 1 1  588.74637 70.617256 z" />
    <rect
       y="39.707256"
       x="7.9214697"
       width="4.1159353"
       transform="matrix(0.918996,-0.394266,0.394266,0.918996,0,0)"
       style="font-size:12px;fill:#ffffff;fill-opacity:1;fill-rule:evenodd;stroke:#251b15;stroke-width:1;stroke-dasharray:none;stroke-opacity:1"
       id="rect917"
       height="20.579885" />
    <rect
       y="40.166908"
       x="5.4876056"
       width="4.115963"
       transform="matrix(0.890596,-0.454796,0.454796,0.890596,0,0)"
       style="font-size:12px;fill:#ffffff;fill-opacity:1;fill-rule:evenodd;stroke:#251b15;stroke-width:1;stroke-opacity:1"
       id="rect918"
       height="20.58004" />
    <rect
       y="40.401672"
       x="8.1468086"
       width="1.0903012"
       transform="matrix(0.88893,-0.458043,0.456542,0.889702,0,0)"
       style="font-size:12px;fill:#ffffff;fill-opacity:1;fill-rule:evenodd;stroke:#251b15;stroke-width:1;stroke-opacity:1"
       id="rect919"
       height="20.479824" />
    <path
       transform="matrix(0.909104,-0.416568,0.416568,0.909104,-539.5881,237.545)"
       style="fill:#ffffff;fill-opacity:1;fill-rule:evenodd;stroke:#251b15;stroke-width:1pt;stroke-linecap:butt;stroke-linejoin:miter;stroke-opacity:1"
       sodipodi:type="arc"
       sodipodi:ry="0.71817398"
       sodipodi:rx="1.2982178"
       sodipodi:cy="42.396488"
       sodipodi:cx="598.31012"
       id="path920"
       d="M 599.60834 42.396488 A 1.2982178 0.71817398 0 1 1  597.0119,42.396488 A 1.2982178 0.71817398 0 1 1  599.60834 42.396488 z" />
    <path
       transform="translate(-570.7313,-21.18018)"
       style="fill:#ffffff;fill-opacity:1;fill-rule:evenodd;stroke:#251b15;stroke-width:1pt;stroke-linecap:butt;stroke-linejoin:miter;stroke-opacity:1"
       sodipodi:type="arc"
       sodipodi:ry="1.4086914"
       sodipodi:rx="1.4086914"
       sodipodi:cy="50.60009"
       sodipodi:cx="594.22217"
       id="path921"
       d="M 595.63086 50.60009 A 1.4086914 1.4086914 0 1 1  592.81348,50.60009 A 1.4086914 1.4086914 0 1 1  595.63086 50.60009 z" />
    <rect
       y="21.144579"
       x="32.55986"
       width="2.8726759"
       transform="matrix(0.946758,0.321946,-0.321946,0.946758,0,0)"
       style="font-size:12px;fill:#ffffff;fill-opacity:1;fill-rule:evenodd;stroke:#251b15;stroke-width:1;stroke-opacity:1"
       id="rect922"
       height="2.9830883" />
    <rect
       y="30.135418"
       x="23.938915"
       width="1.1600953"
       transform="matrix(0.999889,1.489056e-2,-1.489056e-2,0.999889,0,0)"
       style="font-size:12px;fill:#ffffff;fill-opacity:1;fill-rule:evenodd;stroke:#251b15;stroke-width:1;stroke-opacity:1"
       id="rect923"
       height="3.2593524" />
    <rect
       y="38.983593"
       x="-9.0751486"
       width="1.0034453"
       transform="matrix(0.737304,-0.675561,0.776122,0.630583,0,0)"
       style="font-size:12px;fill:#ffffff;fill-opacity:1;fill-rule:evenodd;stroke:#251b15;stroke-width:1;stroke-opacity:1"
       id="rect924"
       height="2.8441484" />
    <path
       transform="translate(-575.7585,-19.24672)"
       style="fill:#ffffff;fill-opacity:1;fill-rule:evenodd;stroke:#251b15;stroke-width:1pt;stroke-linecap:butt;stroke-linejoin:miter;stroke-opacity:1"
       sodipodi:type="arc"
       sodipodi:ry="0.74577332"
       sodipodi:rx="0.69055176"
       sodipodi:cy="47.009277"
       sodipodi:cx="598.25488"
       id="path925"
       d="M 598.94543 47.009277 A 0.69055176 0.74577332 0 1 1  597.56433,47.009277 A 0.69055176 0.74577332 0 1 1  598.94543 47.009277 z" />
    <path
       transform="matrix(0.702002,-0.127124,0.176115,0.663005,-394.2252,80.61334)"
       style="fill:#ffffff;fill-opacity:1;fill-rule:evenodd;stroke:#251b15;stroke-width:1;stroke-linecap:butt;stroke-linejoin:miter;stroke-dasharray:none;stroke-opacity:1"
       sodipodi:type="arc"
       sodipodi:ry="1.2500191"
       sodipodi:rx="0.66409302"
       sodipodi:cy="35.071239"
       sodipodi:cx="587.07861"
       id="path926"
       d="M 587.74271 35.071239 A 0.66409302 1.2500191 0 1 1  586.41452,35.071239 A 0.66409302 1.2500191 0 1 1  587.74271 35.071239 z" />
    <rect
       y="11.257874"
       x="39.361504"
       width="1.7545424"
       transform="matrix(0.82252,0.568736,-0.636607,0.771188,0,0)"
       style="font-size:12px;fill:#ffffff;fill-opacity:1;fill-rule:evenodd;stroke:#251b15;stroke-width:0.99999797;stroke-opacity:1"
       id="rect927"
       height="0.83515322" />
    <path
       style="font-size:12px;fill:#ffffff;fill-opacity:1;fill-rule:evenodd;stroke:#251b15;stroke-width:1.25;stroke-opacity:1"
       id="path1952"
       d="M 17.52052,9.747133 L 17.52052,21.95713" />
    <path
       style="font-size:12px;fill:#ffffff;fill-opacity:1;fill-rule:evenodd;stroke:#251b15;stroke-width:1.25;stroke-opacity:1"
       id="path1953"
       d="M 12.02053,15.89713 L 23.52052,15.89713" />
  </g>
</svg>
