<?xml version="1.0" encoding="UTF-8" standalone="no"?>
<!-- Created with Sodipodi ("http://www.sodipodi.com/") -->
<svg
   xmlns:dc="http://purl.org/dc/elements/1.1/"
   xmlns:cc="http://web.resource.org/cc/"
   xmlns:rdf="http://www.w3.org/1999/02/22-rdf-syntax-ns#"
   xmlns:svg="http://www.w3.org/2000/svg"
   xmlns="http://www.w3.org/2000/svg"
   xmlns:xlink="http://www.w3.org/1999/xlink"
   xmlns:sodipodi="http://sodipodi.sourceforge.net/DTD/sodipodi-0.dtd"
   xmlns:inkscape="http://www.inkscape.org/namespaces/inkscape"
   height="22"
   id="svg1089"
   sodipodi:docbase="C:\ms4w\Apache\htdocs\i3geo\imagens\visual\folha"
   sodipodi:docname="lentei.svg"
   sodipodi:version="0.32"
   space="preserve"
   width="22"
   inkscape:version="0.45.1"
   inkscape:output_extension="org.inkscape.output.svg.inkscape"
   version="1.0"
   inkscape:export-filename="C:\ms4w\Apache\htdocs\i3geo\imagens\visual\folha\lentei.gif"
   inkscape:export-xdpi="90"
   inkscape:export-ydpi="90">
  <metadata
     id="metadata3">
    <rdf:RDF>
      <cc:Work
         rdf:about="">
        <dc:title>magnifying glass</dc:title>
        <dc:description />
        <dc:subject>
          <rdf:Bag>
            <rdf:li>multiplying</rdf:li>
            <rdf:li>magnifying</rdf:li>
            <rdf:li>eye</rdf:li>
            <rdf:li>tool</rdf:li>
            <rdf:li>loupe</rdf:li>
            <rdf:li>glass</rdf:li>
          </rdf:Bag>
        </dc:subject>
        <dc:publisher>
          <cc:Agent
             rdf:about="http://www.openclipart.org/">
            <dc:title>Open Clip Art Library</dc:title>
          </cc:Agent>
        </dc:publisher>
        <dc:creator>
          <cc:Agent>
            <dc:title>Tom&amp;Atilde;&amp;iexcl;&amp;Aring;&amp;iexcl; Kratochv&amp;Atilde;&amp;shy;la</dc:title>
          </cc:Agent>
        </dc:creator>
        <dc:rights>
          <cc:Agent>
            <dc:title>Tom&amp;Atilde;&amp;iexcl;&amp;Aring;&amp;iexcl; Kratochv&amp;Atilde;&amp;shy;la</dc:title>
          </cc:Agent>
        </dc:rights>
        <dc:date />
        <dc:format>image/svg+xml</dc:format>
        <dc:type
           rdf:resource="http://purl.org/dc/dcmitype/StillImage" />
        <cc:license
           rdf:resource="http://web.resource.org/cc/PublicDomain" />
        <dc:language>en</dc:language>
      </cc:Work>
      <cc:License
         rdf:about="http://web.resource.org/cc/PublicDomain">
        <cc:permits
           rdf:resource="http://web.resource.org/cc/Reproduction" />
        <cc:permits
           rdf:resource="http://web.resource.org/cc/Distribution" />
        <cc:permits
           rdf:resource="http://web.resource.org/cc/DerivativeWorks" />
      </cc:License>
    </rdf:RDF>
  </metadata>
  <defs
     id="defs1091">
    <linearGradient
       id="linearGradient1497"
       x1="741.63899"
       x2="622.33327"
       xlink:href="#linearGradient1492"
       y1="169.44361"
       y2="287.73826"
       gradientTransform="scale(0.9552926,1.0467997)"
       gradientUnits="userSpaceOnUse" />
    <linearGradient
       id="linearGradient1492">
      <stop
         id="stop1493"
         offset="0.0000000"
         style="stop-color:#dadada;stop-opacity:1.0000000;" />
      <stop
         id="stop1496"
         offset="0.34923077"
         style="stop-color:#f1f1f1;stop-opacity:1.0000000;" />
      <stop
         id="stop1494"
         offset="1.0000000"
         style="stop-color:#f0f0f0;stop-opacity:1.0000000;" />
    </linearGradient>
    <linearGradient
       id="linearGradient1495"
       x1="728.96644"
       x2="351.7063"
       xlink:href="#linearGradient1492"
       y1="230.07422"
       y2="689.86002"
       gradientTransform="scale(0.955425,1.0466546)"
       gradientUnits="userSpaceOnUse" />
    <linearGradient
       inkscape:collect="always"
       xlink:href="#linearGradient1507"
       id="linearGradient10311"
       gradientUnits="userSpaceOnUse"
       gradientTransform="scale(0.9446888,1.0585496)"
       x1="201.38964"
       y1="843.20789"
       x2="547.80806"
       y2="383.7653" />
    <linearGradient
       inkscape:collect="always"
       xlink:href="#linearGradient1507"
       id="linearGradient10309"
       gradientUnits="userSpaceOnUse"
       gradientTransform="scale(0.9446888,1.0585496)"
       x1="201.38964"
       y1="843.20789"
       x2="547.80806"
       y2="383.7653" />
    <linearGradient
       inkscape:collect="always"
       xlink:href="#linearGradient1507"
       id="linearGradient10307"
       gradientUnits="userSpaceOnUse"
       gradientTransform="scale(0.9446888,1.0585496)"
       x1="201.38964"
       y1="843.20789"
       x2="547.80806"
       y2="383.7653" />
    <linearGradient
       id="linearGradient1507">
      <stop
         id="stop1508"
         offset="0.0000000"
         style="stop-color:#000000;stop-opacity:0.095505618;" />
      <stop
         id="stop1510"
         offset="1.0000000"
         style="stop-color:#000000;stop-opacity:0.0000000;" />
    </linearGradient>
    <linearGradient
       id="linearGradient1506"
       x1="201.38964"
       x2="547.80806"
       xlink:href="#linearGradient1507"
       y1="843.20789"
       y2="383.7653"
       gradientTransform="scale(0.9446888,1.0585496)"
       gradientUnits="userSpaceOnUse" />
    <linearGradient
       id="linearGradient1207"
       x1="-99.040019"
       x2="-59.206463"
       xlink:href="#linearGradient861"
       y1="116.36879"
       y2="97.825584"
       gradientTransform="scale(0.6955491,1.437713)"
       gradientUnits="userSpaceOnUse" />
    <linearGradient
       id="linearGradient861">
      <stop
         id="stop862"
         offset="0.0000000"
         style="stop-color:#ffffff;stop-opacity:0.0000000;" />
      <stop
         id="stop925"
         offset="0.50000000"
         style="stop-color:#ffffff;stop-opacity:0.15000001;" />
      <stop
         id="stop863"
         offset="1.0000000"
         style="stop-color:#ffffff;stop-opacity:0.0000000;" />
    </linearGradient>
    <linearGradient
       id="linearGradient1205"
       x1="-218.50056"
       x2="-172.93134"
       xlink:href="#linearGradient861"
       y1="117.71063"
       y2="97.402607"
       gradientTransform="scale(0.6971473,1.4344172)"
       gradientUnits="userSpaceOnUse" />
    <linearGradient
       id="linearGradient37404">
      <stop
         id="stop37406"
         offset="0"
         style="stop-color:#ffd83f;stop-opacity:1;" />
      <stop
         id="stop37412"
         offset="0.38"
         style="stop-color:#ffe99f;stop-opacity:1;" />
      <stop
         id="stop37408"
         offset="1.0000000"
         style="stop-color:#ffffff;stop-opacity:1.0000000;" />
    </linearGradient>
    <linearGradient
       inkscape:collect="always"
       xlink:href="#linearGradient37404"
       id="linearGradient11756"
       x1="0.21578404"
       y1="11.148622"
       x2="21.782246"
       y2="11.148622"
       gradientUnits="userSpaceOnUse" />
  </defs>
  <sodipodi:namedview
     id="base"
     width="22px"
     height="22px"
     inkscape:zoom="13.546667"
     inkscape:cx="21.104504"
     inkscape:cy="8.4974104"
     inkscape:window-width="758"
     inkscape:window-height="579"
     inkscape:window-x="277"
     inkscape:window-y="76"
     inkscape:current-layer="svg1089" />
  <g
     id="g10278"
     transform="matrix(0.157614,0,0,0.1448693,-2.0653002,-0.7102718)">
    <path
       style="fill:#ffffff;fill-rule:evenodd;stroke-width:0.42649043;stroke-opacity:0.36477984"
       sodipodi:nodetypes="cccccccccccccccc"
       id="path930"
       d="M 17.159384,6.3292894 L 17.159384,43.068526 L 17.159384,79.807768 L 17.159384,116.547 L 17.159384,153.28624 L 50.687024,153.28624 L 84.214664,153.28624 L 117.7423,153.28624 L 151.26994,153.28624 L 151.26994,116.547 L 151.26994,79.807768 L 151.26994,43.068526 L 117.7423,6.3292894 L 84.214664,6.3292894 L 50.687024,6.3292894 L 17.159384,6.3292894 z " />
    <g
       transform="matrix(0.304171,0,0,0.297572,-36.70399,-112.488)"
       style="fill:url(#linearGradient1506)"
       id="g1552">
      <path
         style="fill:url(#linearGradient10307);fill-opacity:0.75;fill-rule:evenodd;stroke-width:0.95407495pt"
         sodipodi:nodetypes="cccccccccccccccc"
         id="path1505"
         d="M 173.35959,408.8126 L 173.35959,531.0736 L 173.35959,653.3346 L 173.35959,775.5956 L 173.35959,897.8566 L 282.12187,897.8566 L 390.88417,897.8566 L 499.64646,897.8566 L 608.40874,897.8566 L 608.40874,775.5956 L 608.40874,653.3346 L 608.40874,531.0736 L 499.64646,408.8126 L 390.88417,408.8126 L 282.12187,408.8126 L 173.35959,408.8126 z " />
      <path
         style="fill:url(#linearGradient10309);fill-opacity:0.75;fill-rule:evenodd;stroke-width:0.95407495pt"
         id="path1538"
         d="M 170.125,407.1875 C 170.125,571.82292 170.125,736.45833 170.125,901.09375 C 317.30208,901.09375 464.47917,901.09375 611.65625,901.09375 C 611.65625,777.33333 611.65625,653.57292 611.65625,529.8125 C 574.80918,488.38978 537.97604,446.95335 501.09375,405.5625 C 390.77083,405.5625 280.44792,405.5625 170.125,405.5625 C 170.125,405.89583 170.125,406.97917 170.125,407.1875 z " />
      <path
         style="fill:url(#linearGradient10311);fill-opacity:0.75;fill-rule:evenodd;stroke-width:0.95407495pt"
         id="path1543"
         d="M 166.875,403.9375 C 166.875,570.73958 166.875,737.54167 166.875,904.34375 C 316.21875,904.34375 465.5625,904.34375 614.90625,904.34375 C 614.90625,779.08333 614.90625,653.82292 614.90625,528.5625 C 577.45517,486.47298 540.01754,444.37017 502.53125,402.3125 C 390.64583,402.3125 278.76042,402.3125 166.875,402.3125 C 166.875,402.64583 166.875,403.72917 166.875,403.9375 z " />
    </g>
    <path
       transform="matrix(0.296689,0,0,0.296689,-71.19601,-34.05825)"
       style="fill:url(#linearGradient1495);fill-opacity:1;fill-rule:evenodd;stroke:#000000;stroke-width:1.4375;stroke-opacity:0.36477984"
       sodipodi:nodetypes="cccccccccccccccc"
       id="rect900"
       d="M 297.99034,136.74154 L 297.99034,260.57234 L 297.99034,384.40315 L 297.99034,508.23395 L 297.99034,632.06475 L 410.99634,632.06475 L 524.00235,632.06475 L 637.00835,632.06475 L 750.01435,632.06475 L 750.01435,508.23395 L 750.01435,384.40315 L 750.01435,260.57234 L 637.00835,136.74154 L 524.00235,136.74154 L 410.99634,136.74154 L 297.99034,136.74154 z " />
    <path
       style="fill:none;fill-rule:evenodd;stroke:#ffffff;stroke-width:1.70000005;stroke-opacity:1"
       sodipodi:nodetypes="cccccc"
       id="path2674"
       d="M 27.756512,17.344397 L 27.756512,144.68535 L 141.79201,144.68535 L 142.35856,38.608763 L 121.46305,17.344397 L 27.756512,17.344397 z " />
    <path
       transform="matrix(0.296689,0,0,0.296689,-71.19601,-34.05825)"
       style="fill:url(#linearGradient1497);fill-opacity:1;fill-rule:evenodd;stroke-width:0.95407495pt"
       sodipodi:nodetypes="cccc"
       id="path906"
       d="M 750.01435,260.57234 C 715.9446,250.48602 671.79788,251.91624 638.44792,257.66516 C 644.20618,220.71628 644.92597,174.41021 637.00835,136.74154 L 750.01435,260.57234 z " />
  </g>
  <g
     id="g890"
     transform="matrix(8.9742062e-2,-4.6024281e-2,4.671075e-2,9.1080598e-2,-3.3134827,6.4211556)">
    <path
       d="M 178.63447,119.2954 C 178.63447,119.2954 149.60285,71.391818 143.91892,69.970834 C 142.97159,69.970833 141.16049,69.585806 140.68683,71.480451 C 140.68683,76.690727 173.89785,123.55835 177.21348,125.92667 C 180.05545,125.453 179.10813,122.61103 178.63447,119.2954 z "
       id="path888"
       sodipodi:nodetypes="ccccc"
       style="fill:#0c0c0c;fill-rule:evenodd;stroke:#000000;stroke-width:1pt" />
    <path
       d="M 146.19396,71.527947 C 146.19396,71.527947 140.87563,61.005082 133.32475,57.586877 C 124.28372,52.957646 115.99309,54.845391 110.06625,59.001161 C 107.66238,61.69078 101.51188,65.119163 104.49538,69.62082 C 105.72663,71.450093 107.73803,72.179277 110.03931,71.280444 C 112.74111,69.190776 118.22444,54.906803 131.02388,63.55157 C 136.85612,67.012453 137.40015,70.069365 140.34953,72.560593 C 139.89652,73.907434 144.70424,68.528198 146.19396,71.527947 z "
       id="path889"
       sodipodi:nodetypes="cccccccc"
       style="fill-rule:evenodd;stroke:#000000;stroke-width:1pt" />
    <path
       d="M 23.20941,120.17531 C 23.20941,120.17531 52.241023,72.271724 57.92496,70.85074 C 58.872283,70.850739 60.683387,70.465712 61.157048,72.360357 C 61.157048,77.570633 27.946024,124.43826 24.630395,126.80658 C 21.788426,126.33291 22.735749,123.49094 23.20941,120.17531 z "
       id="path869"
       sodipodi:nodetypes="ccccc"
       style="fill:#0c0c0c;fill-rule:evenodd;stroke:#000000;stroke-width:1pt" />
    <path
       d="M 55.64992,72.407853 C 55.64992,72.407853 60.968244,61.884988 68.519123,58.466783 C 77.56016,53.837552 85.850786,55.725297 91.777632,59.881067 C 94.181501,62.570686 100.332,65.999069 97.348496,70.500726 C 96.117247,72.329999 94.105844,73.059183 91.80457,72.16035 C 89.102764,70.070682 83.619439,55.786709 70.820002,64.431476 C 64.987761,67.892359 64.443724,70.949271 61.494352,73.440499 C 61.947362,74.78734 57.139638,69.408104 55.64992,72.407853 z "
       id="path870"
       sodipodi:nodetypes="cccccccc"
       style="fill-rule:evenodd;stroke:#000000;stroke-width:1pt" />
    <g
       id="g1208"
       transform="translate(165.6113,-33.1373)">
      <g
         id="g1194"
         transform="translate(-285,13.75)">
        <path
           d="M 220.15625,134.09375 C 218.18661,134.07463 216.19714,134.29023 214.375,134.9375 C 212.55286,135.58477 210.71531,136.7405 209.875,138.78125 L 212.86772,140.95955 C 212.97957,140.6879 215.0054,139.98941 216.03125,139.625 C 217.0571,139.26059 218.56078,139.07887 220.09375,139.09375 C 221.62672,139.10863 223.20403,139.31626 224.40625,139.65625 C 225.60847,139.99624 226.3847,140.62932 226.28125,140.5 L 230.1875,137.375 C 228.99586,135.88545 227.49503,135.32841 225.78125,134.84375 C 224.06747,134.35909 222.12589,134.11287 220.15625,134.09375 z "
           id="path1193"
           sodipodi:nodetypes="ccccccccccc"
           style="fill:#0c0c0c;fill-opacity:1;fill-rule:evenodd;stroke:#000000;stroke-width:1.25;stroke-linecap:butt;stroke-linejoin:round;stroke-dasharray:none;stroke-opacity:1" />
        <g
           id="g1184"
           style="fill:#040405;fill-opacity:1"
           transform="translate(195.6018,16.32283)">
          <path
             d="M -39.400594,111.6415 C -26.040974,104.40213 -9.9205843,104.88459 4.8994457,106.14959 C 16.253796,106.949 17.246626,114.92925 16.251556,125.29172 C 16.201536,132.37212 13.462146,140.32898 6.2822657,143.0503 C -4.0075343,146.42629 -15.195474,146.20886 -25.870394,145.18021 C -35.240424,144.04829 -42.472334,136.35541 -44.265164,127.9126 C -44.957864,122.81758 -45.901474,115.48637 -39.400594,111.6415 z "
             id="path1182"
             sodipodi:nodetypes="ccccccc"
             style="fill:#000000;fill-opacity:0.8;fill-rule:evenodd;stroke:none;stroke-width:1pt;stroke-linecap:butt;stroke-linejoin:miter;stroke-opacity:1" />
          <path
             d="M -45.443144,122.32679 C -45.443144,117.42415 -50.961044,121.98998 -53.137424,123.57238 C -54.225614,124.5386 -54.778254,128.74086 -53.690064,129.88931 C -52.757874,131.5216 -48.252274,130.16136 -46.267834,130.16136 C -44.252134,128.14566 -45.679334,125.37907 -45.443144,122.32679 z "
             id="path1181"
             sodipodi:nodetypes="ccccc"
             style="fill:#0c0c0c;fill-opacity:1;fill-rule:evenodd;stroke:#000000;stroke-width:1pt;stroke-linecap:butt;stroke-linejoin:miter;stroke-opacity:1" />
          <path
             d="M -7.0371643,103.73776 C -18.664624,103.39048 -30.681274,104.4906 -41.287164,110.23776 C -41.308142,110.24788 -41.328978,110.2583 -41.349664,110.26901 C -45.244984,112.57285 -47.119944,116.22325 -47.693414,119.67526 C -48.266884,123.12727 -47.759664,126.4943 -47.412164,129.05026 C -47.40341,129.10266 -47.392988,129.15477 -47.380914,129.20651 C -45.368434,138.68372 -37.406574,147.18121 -26.849664,148.45651 C -26.828832,148.45677 -26.807997,148.45677 -26.787164,148.45651 C -15.979724,149.49793 -4.4609443,149.75975 6.3690857,146.20651 C 6.4110139,146.19716 6.4526944,146.18674 6.4940857,146.17526 C 10.740586,144.56575 13.691236,141.35449 15.494086,137.70651 C 17.263226,134.12673 17.972346,130.12411 18.025336,126.33151 L 18.056586,126.33151 C 18.063876,126.2556 18.049456,126.18852 18.056586,126.11276 C 18.549086,120.8785 18.674876,115.99872 16.806586,111.89401 C 14.911256,107.72989 10.653786,104.89679 4.4003357,104.45651 C 0.67047573,104.13814 -3.1613443,103.85352 -7.0371643,103.73776 z M -7.1309143,108.73776 C -3.4020143,108.84174 0.31392573,109.11113 3.9940857,109.42526 C 4.0149182,109.42552 4.0357532,109.42552 4.0565857,109.42526 C 9.1574857,109.78439 11.053176,111.34003 12.244086,113.95651 C 13.434996,116.57299 13.571976,120.78981 13.087836,125.83151 C 13.0742,125.90393 13.063774,125.97691 13.056586,126.05026 C 13.033806,129.27469 12.399656,132.70688 11.025336,135.48776 C 9.6551057,138.26037 7.6631857,140.37327 4.7440857,141.48776 C 4.7353757,141.49108 4.7215557,141.48445 4.7128357,141.48776 C -5.0124543,144.6548 -15.809784,144.50039 -26.318414,143.48776 C -34.487234,142.50095 -40.887254,135.60015 -42.474664,128.20651 C -42.477454,128.19353 -42.503154,128.18824 -42.505914,128.17526 C -42.842164,125.68161 -43.153014,122.90936 -42.755914,120.51901 C -42.353844,118.09873 -41.418134,116.17625 -38.880914,114.64401 C -29.447364,109.53212 -18.317614,108.42581 -7.1309143,108.73776 z "
             id="path1183"
             style="fill:#0c0c0c;fill-opacity:1;fill-rule:evenodd;stroke:#000000;stroke-width:1.25;stroke-linecap:butt;stroke-linejoin:round;stroke-dasharray:none;stroke-opacity:1" />
        </g>
        <g
           id="g1188"
           style="fill:#040405;fill-opacity:1"
           transform="matrix(-1,0,0,1,244.5703,14.69236)">
          <path
             d="M -39.400594,111.6415 C -26.040974,104.40213 -9.9205843,104.88459 4.8994457,106.14959 C 16.253796,106.949 17.246626,114.92925 16.251556,125.29172 C 16.201536,132.37212 13.462146,140.32898 6.2822657,143.0503 C -4.0075343,146.42629 -15.195474,146.20886 -25.870394,145.18021 C -35.240424,144.04829 -42.472334,136.35541 -44.265164,127.9126 C -44.957864,122.81758 -45.901474,115.48637 -39.400594,111.6415 z "
             id="path1189"
             sodipodi:nodetypes="ccccccc"
             style="fill:#000000;fill-opacity:0.8;fill-rule:evenodd;stroke:none;stroke-width:1pt;stroke-linecap:butt;stroke-linejoin:miter;stroke-opacity:1" />
          <path
             d="M -45.443144,122.32679 C -45.443144,117.42415 -50.961044,121.98998 -53.137424,123.57238 C -54.225614,124.5386 -54.778254,128.74086 -53.690064,129.88931 C -52.757874,131.5216 -48.252274,130.16136 -46.267834,130.16136 C -44.252134,128.14566 -45.679334,125.37907 -45.443144,122.32679 z "
             id="path1191"
             sodipodi:nodetypes="ccccc"
             style="fill:#0c0c0c;fill-opacity:1;fill-rule:evenodd;stroke:#000000;stroke-width:1pt;stroke-linecap:butt;stroke-linejoin:miter;stroke-opacity:1" />
          <path
             d="M -7.0371643,103.73776 C -18.664624,103.39048 -30.681274,104.4906 -41.287164,110.23776 C -41.308142,110.24788 -41.328978,110.2583 -41.349664,110.26901 C -45.244984,112.57285 -47.119944,116.22325 -47.693414,119.67526 C -48.266884,123.12727 -47.759664,126.4943 -47.412164,129.05026 C -47.40341,129.10266 -47.392988,129.15477 -47.380914,129.20651 C -45.368434,138.68372 -37.406574,147.18121 -26.849664,148.45651 C -26.828832,148.45677 -26.807997,148.45677 -26.787164,148.45651 C -15.979724,149.49793 -4.4609443,149.75975 6.3690857,146.20651 C 6.4110139,146.19716 6.4526944,146.18674 6.4940857,146.17526 C 10.740586,144.56575 13.691236,141.35449 15.494086,137.70651 C 17.263226,134.12673 17.972346,130.12411 18.025336,126.33151 L 18.056586,126.33151 C 18.063876,126.2556 18.049456,126.18852 18.056586,126.11276 C 18.549086,120.8785 18.674876,115.99872 16.806586,111.89401 C 14.911256,107.72989 10.653786,104.89679 4.4003357,104.45651 C 0.67047573,104.13814 -3.1613443,103.85352 -7.0371643,103.73776 z M -7.1309143,108.73776 C -3.4020143,108.84174 0.31392573,109.11113 3.9940857,109.42526 C 4.0149182,109.42552 4.0357532,109.42552 4.0565857,109.42526 C 9.1574857,109.78439 11.053176,111.34003 12.244086,113.95651 C 13.434996,116.57299 13.571976,120.78981 13.087836,125.83151 C 13.0742,125.90393 13.063774,125.97691 13.056586,126.05026 C 13.033806,129.27469 12.399656,132.70688 11.025336,135.48776 C 9.6551057,138.26037 7.6631857,140.37327 4.7440857,141.48776 C 4.7353757,141.49108 4.7215557,141.48445 4.7128357,141.48776 C -5.0124543,144.6548 -15.809784,144.50039 -26.318414,143.48776 C -34.487234,142.50095 -40.887254,135.60015 -42.474664,128.20651 C -42.477454,128.19353 -42.503154,128.18824 -42.505914,128.17526 C -42.842164,125.68161 -43.153014,122.90936 -42.755914,120.51901 C -42.353844,118.09873 -41.418134,116.17625 -38.880914,114.64401 C -29.447364,109.53212 -18.317614,108.42581 -7.1309143,108.73776 z "
             id="path1190"
             style="fill:#0c0c0c;fill-opacity:1;fill-rule:evenodd;stroke:#000000;stroke-width:1.25;stroke-linecap:butt;stroke-linejoin:round;stroke-dasharray:none;stroke-opacity:1" />
        </g>
      </g>
      <path
         d="M -118.41536,142.08428 C -120.07317,142.55794 -125.7571,143.74209 -129.5464,146.82089 C -132.86203,150.37335 -131.44105,161.03074 -127.1781,165.29369 C -125.04661,168.84615 -121.49416,172.16178 -116.99437,172.39861 C -114.8629,171.45129 -123.3888,150.13652 -118.41536,142.08428 z "
         id="path1204"
         sodipodi:nodetypes="ccccc"
         style="fill:url(#linearGradient1205);fill-opacity:1;fill-rule:evenodd;stroke:none;stroke-width:1pt;stroke-linecap:butt;stroke-linejoin:miter;stroke-opacity:1" />
      <path
         d="M -51.155434,141.37378 C -53.28691,145.39991 -54.234234,159.84658 -49.260788,165.53052 C -44.524174,170.74079 -41.445375,169.79348 -38.603406,170.26713 C -34.814115,168.13566 -43.34002,142.55794 -38.129745,139.24231 C -42.155867,137.82132 -49.734449,139.24231 -51.155434,141.37378 z "
         id="path1206"
         sodipodi:nodetypes="ccccc"
         style="fill:url(#linearGradient1207);fill-opacity:1;fill-rule:evenodd;stroke:none;stroke-width:1pt;stroke-linecap:butt;stroke-linejoin:miter;stroke-opacity:1" />
    </g>
  </g>
</svg>
