<?xml version="1.0" encoding="UTF-8" standalone="no"?>
<!-- Created with Sodipodi ("http://www.sodipodi.com/") -->
<svg
   xmlns:dc="http://purl.org/dc/elements/1.1/"
   xmlns:cc="http://web.resource.org/cc/"
   xmlns:rdf="http://www.w3.org/1999/02/22-rdf-syntax-ns#"
   xmlns:svg="http://www.w3.org/2000/svg"
   xmlns="http://www.w3.org/2000/svg"
   xmlns:xlink="http://www.w3.org/1999/xlink"
   xmlns:sodipodi="http://sodipodi.sourceforge.net/DTD/sodipodi-0.dtd"
   xmlns:inkscape="http://www.inkscape.org/namespaces/inkscape"
   height="22"
   id="svg1089"
   sodipodi:docbase="C:\ms4w\Apache\htdocs\i3geo\imagens\visual\azulclaro"
   sodipodi:docname="area.svg"
   sodipodi:version="0.32"
   space="preserve"
   width="22"
   inkscape:version="0.45.1"
   inkscape:output_extension="org.inkscape.output.svg.inkscape"
   version="1.0"
   inkscape:export-filename="C:\ms4w\Apache\htdocs\i3geo\imagens\visual\azulclaro\area.png"
   inkscape:export-xdpi="90"
   inkscape:export-ydpi="90">
  <metadata
     id="metadata3">
    <rdf:RDF>
      <cc:Work
         rdf:about="">
        <dc:title>magnifying glass</dc:title>
        <dc:description />
        <dc:subject>
          <rdf:Bag>
            <rdf:li>multiplying</rdf:li>
            <rdf:li>magnifying</rdf:li>
            <rdf:li>eye</rdf:li>
            <rdf:li>tool</rdf:li>
            <rdf:li>loupe</rdf:li>
            <rdf:li>glass</rdf:li>
          </rdf:Bag>
        </dc:subject>
        <dc:publisher>
          <cc:Agent
             rdf:about="http://www.openclipart.org/">
            <dc:title>Open Clip Art Library</dc:title>
          </cc:Agent>
        </dc:publisher>
        <dc:creator>
          <cc:Agent>
            <dc:title>Tom&amp;Atilde;&amp;iexcl;&amp;Aring;&amp;iexcl; Kratochv&amp;Atilde;&amp;shy;la</dc:title>
          </cc:Agent>
        </dc:creator>
        <dc:rights>
          <cc:Agent>
            <dc:title>Tom&amp;Atilde;&amp;iexcl;&amp;Aring;&amp;iexcl; Kratochv&amp;Atilde;&amp;shy;la</dc:title>
          </cc:Agent>
        </dc:rights>
        <dc:date />
        <dc:format>image/svg+xml</dc:format>
        <dc:type
           rdf:resource="http://purl.org/dc/dcmitype/StillImage" />
        <cc:license
           rdf:resource="http://web.resource.org/cc/PublicDomain" />
        <dc:language>en</dc:language>
      </cc:Work>
      <cc:License
         rdf:about="http://web.resource.org/cc/PublicDomain">
        <cc:permits
           rdf:resource="http://web.resource.org/cc/Reproduction" />
        <cc:permits
           rdf:resource="http://web.resource.org/cc/Distribution" />
        <cc:permits
           rdf:resource="http://web.resource.org/cc/DerivativeWorks" />
      </cc:License>
    </rdf:RDF>
  </metadata>
  <defs
     id="defs1091">
    <linearGradient
       id="linearGradient9837">
      <stop
         id="stop9838"
         offset="0.0000000"
         style="stop-color:#f8f5da;stop-opacity:1.0000000;" />
      <stop
         id="stop9839"
         offset="1.0000000"
         style="stop-color:#ffffff;stop-opacity:1.0000000;" />
    </linearGradient>
    <linearGradient
       gradientTransform="matrix(0.233253,0,0,0.2386644,-56.968709,25.262576)"
       gradientUnits="userSpaceOnUse"
       id="linearGradient11084"
       inkscape:collect="always"
       x1="111.99757"
       x2="-29.110085"
       xlink:href="#linearGradient9837"
       y1="125.16961"
       y2="-21.865551" />
    <linearGradient
       id="linearGradient4810">
      <stop
         id="stop4811"
         offset="0.0000000"
         style="stop-color:#ffffff;stop-opacity:0.0000000;" />
      <stop
         id="stop4812"
         offset="1.0000000"
         style="stop-color:#ffffff;stop-opacity:0.68041235;" />
    </linearGradient>
    <radialGradient
       cx="124.36100"
       cy="1082.2069"
       fx="125.14262"
       fy="1084.0195"
       gradientTransform="scale(2.175919,0.459576)"
       gradientUnits="userSpaceOnUse"
       id="radialGradient5444"
       inkscape:collect="always"
       r="54.577564"
       xlink:href="#linearGradient4810" />
    <linearGradient
       id="linearGradient2931">
      <stop
         id="stop2932"
         offset="0.0000000"
         style="stop-color:#ffffff;stop-opacity:1.0000000;" />
      <stop
         id="stop2933"
         offset="1.0000000"
         style="stop-color:#ffffff;stop-opacity:0.0000000;" />
    </linearGradient>
    <linearGradient
       gradientTransform="scale(1.806421,0.553581)"
       gradientUnits="userSpaceOnUse"
       id="linearGradient5443"
       inkscape:collect="always"
       x1="145.63139"
       x2="145.63139"
       xlink:href="#linearGradient2931"
       y1="712.78033"
       y2="772.31848" />
    <linearGradient
       id="linearGradient37404">
      <stop
         id="stop37406"
         offset="0.0000000"
         style="stop-color:#3f86ff;stop-opacity:1.0000000;" />
      <stop
         id="stop37412"
         offset="0.38000000"
         style="stop-color:#9fe1ff;stop-opacity:1.0000000;" />
      <stop
         id="stop37408"
         offset="1.0000000"
         style="stop-color:#ffffff;stop-opacity:1.0000000;" />
    </linearGradient>
    <linearGradient
       inkscape:collect="always"
       xlink:href="#linearGradient2931"
       id="linearGradient10906"
       gradientUnits="userSpaceOnUse"
       gradientTransform="scale(1.806421,0.553581)"
       x1="145.63139"
       y1="712.78033"
       x2="145.63139"
       y2="772.31848" />
    <radialGradient
       inkscape:collect="always"
       xlink:href="#linearGradient4810"
       id="radialGradient10908"
       gradientUnits="userSpaceOnUse"
       gradientTransform="scale(2.175919,0.459576)"
       cx="124.36100"
       cy="1082.2069"
       fx="125.14262"
       fy="1084.0195"
       r="54.577564" />
  </defs>
  <sodipodi:namedview
     id="base"
     width="22px"
     height="22px"
     inkscape:zoom="6.7733334"
     inkscape:cx="13.307423"
     inkscape:cy="1.365498"
     inkscape:window-width="758"
     inkscape:window-height="579"
     inkscape:window-x="145"
     inkscape:window-y="173"
     inkscape:current-layer="svg1089" />
  <rect
     height="21.425793"
     id="rect36642"
     rx="1.5514623"
     ry="1.8960879"
     style="fill:none;fill-opacity:1.0;fill-rule:nonzero;stroke:#007cdb;stroke-width:0.389;stroke-linecap:round;stroke-linejoin:round;stroke-miterlimit:4;stroke-opacity:1;stroke-dasharray:none"
     width="21.177462"
     x="0.41028404"
     y="0.43572599" />
  <path
     style="opacity:0.74761903;fill:#007cdb;fill-opacity:1;fill-rule:evenodd;stroke:#ff0000;stroke-width:0.2;stroke-linecap:butt;stroke-linejoin:miter;stroke-miterlimit:4;stroke-dasharray:none;stroke-opacity:1"
     d="M 3.6910982,11.898836 C 3.6910982,11.793853 3.6910982,11.450539 3.6910982,11.234466 C 3.6910982,10.997102 3.6849172,10.748637 3.7280072,10.533186 C 3.7915652,10.215398 3.9432442,9.9028212 4.0601922,9.6104502 C 4.1746172,9.3243902 4.3429422,9.1062442 4.5400152,8.9091712 C 4.7668782,8.6823084 4.8377132,8.3543183 5.1305662,8.2078916 C 5.2588972,8.1437262 5.3766292,8.0602538 5.4996612,7.9864349 C 5.8844382,7.7555684 6.3211352,7.8018877 6.7545822,7.8018877 C 7.2097992,7.8018877 7.6650152,7.8018877 8.1202322,7.8018877 C 8.5606482,7.8018877 9.0829519,7.8623785 9.4858809,7.7280688 C 9.9001959,7.5899636 10.272598,7.1933954 10.593165,6.9529704 C 10.740803,6.842242 10.888441,6.7315137 11.036078,6.6207853 C 11.09347,6.5777419 11.15911,6.5469664 11.220626,6.510057 C 11.935937,6.0808702 12.256733,5.5468873 12.697004,4.9598602 C 13.007336,4.546083 13.613102,4.1551102 14.099563,4.0740334 C 14.2472,4.0494271 14.394838,4.0248208 14.542476,4.0002145 C 15.393236,3.8584207 16.049266,4.2444807 16.609405,4.6645846 C 16.73468,4.7585407 16.830862,4.8860413 16.94159,4.9967696 C 17.444949,5.500129 17.318028,6.4806836 17.163047,7.1006082 C 16.97648,7.8468739 16.12052,8.6529054 15.649759,9.2413562 C 15.232697,9.7626832 14.911174,10.661379 15.169937,11.308285 C 15.219149,11.431316 15.268362,11.554348 15.317574,11.677379 C 15.620711,12.435222 16.585254,13.240334 17.163047,13.818127 C 17.539225,14.194305 17.569051,14.875581 17.569051,15.368324 C 17.569051,15.959675 17.502712,16.106349 17.236866,16.549426 C 16.863388,17.171889 15.647998,17.546569 14.985389,17.767438 C 14.003339,18.094788 12.487042,17.651062 11.515901,17.435253 C 11.419072,17.413736 11.319051,17.410647 11.220626,17.398344 C 10.96686,17.366623 10.064887,16.833157 9.8549759,16.623245 C 9.4663719,16.234642 9.0014509,15.917359 8.6000542,15.515962 C 8.0441582,14.960065 7.7018552,14.211759 7.1605862,13.670489 C 6.8066802,13.316584 6.3698002,13.11431 5.9794842,12.821572 C 5.6238342,12.554835 5.1024612,12.45776 4.7245622,12.231021 C 4.5479642,12.125062 4.3384882,12.111803 4.2078302,12.046474 C 4.1888372,12.036977 4.0346402,12.011836 4.0232832,12.009564"
     id="path2197" />
</svg>
