<?xml version="1.0" encoding="UTF-8" standalone="no"?>
<!-- Created with Sodipodi ("http://www.sodipodi.com/") -->
<svg
   xmlns:dc="http://purl.org/dc/elements/1.1/"
   xmlns:cc="http://web.resource.org/cc/"
   xmlns:rdf="http://www.w3.org/1999/02/22-rdf-syntax-ns#"
   xmlns:svg="http://www.w3.org/2000/svg"
   xmlns="http://www.w3.org/2000/svg"
   xmlns:xlink="http://www.w3.org/1999/xlink"
   xmlns:sodipodi="http://sodipodi.sourceforge.net/DTD/sodipodi-0.dtd"
   xmlns:inkscape="http://www.inkscape.org/namespaces/inkscape"
   height="22"
   id="svg1089"
   sodipodi:docbase="C:\ms4w\Apache\htdocs\i3geo\imagens\visual\default"
   sodipodi:docname="inseretxt.svg"
   sodipodi:version="0.32"
   space="preserve"
   width="22"
   inkscape:version="0.45.1"
   inkscape:output_extension="org.inkscape.output.svg.inkscape"
   version="1.0"
   inkscape:export-filename="C:\ms4w\Apache\htdocs\i3geo\imagens\visual\default\inseretxt.gif"
   inkscape:export-xdpi="90"
   inkscape:export-ydpi="90">
  <metadata
     id="metadata3">
    <rdf:RDF>
      <cc:Work
         rdf:about="">
        <dc:title>magnifying glass</dc:title>
        <dc:description />
        <dc:subject>
          <rdf:Bag>
            <rdf:li>multiplying</rdf:li>
            <rdf:li>magnifying</rdf:li>
            <rdf:li>eye</rdf:li>
            <rdf:li>tool</rdf:li>
            <rdf:li>loupe</rdf:li>
            <rdf:li>glass</rdf:li>
          </rdf:Bag>
        </dc:subject>
        <dc:publisher>
          <cc:Agent
             rdf:about="http://www.openclipart.org/">
            <dc:title>Open Clip Art Library</dc:title>
          </cc:Agent>
        </dc:publisher>
        <dc:creator>
          <cc:Agent>
            <dc:title>Tom&amp;Atilde;&amp;iexcl;&amp;Aring;&amp;iexcl; Kratochv&amp;Atilde;&amp;shy;la</dc:title>
          </cc:Agent>
        </dc:creator>
        <dc:rights>
          <cc:Agent>
            <dc:title>Tom&amp;Atilde;&amp;iexcl;&amp;Aring;&amp;iexcl; Kratochv&amp;Atilde;&amp;shy;la</dc:title>
          </cc:Agent>
        </dc:rights>
        <dc:date />
        <dc:format>image/svg+xml</dc:format>
        <dc:type
           rdf:resource="http://purl.org/dc/dcmitype/StillImage" />
        <cc:license
           rdf:resource="http://web.resource.org/cc/PublicDomain" />
        <dc:language>en</dc:language>
      </cc:Work>
      <cc:License
         rdf:about="http://web.resource.org/cc/PublicDomain">
        <cc:permits
           rdf:resource="http://web.resource.org/cc/Reproduction" />
        <cc:permits
           rdf:resource="http://web.resource.org/cc/Distribution" />
        <cc:permits
           rdf:resource="http://web.resource.org/cc/DerivativeWorks" />
      </cc:License>
    </rdf:RDF>
  </metadata>
  <defs
     id="defs1091">
    <linearGradient
       id="linearGradient4810">
      <stop
         id="stop4811"
         offset="0.0000000"
         style="stop-color:#ffffff;stop-opacity:0.0000000;" />
      <stop
         id="stop4812"
         offset="1.0000000"
         style="stop-color:#ffffff;stop-opacity:0.68041235;" />
    </linearGradient>
    <linearGradient
       id="linearGradient2931">
      <stop
         id="stop2932"
         offset="0.0000000"
         style="stop-color:#ffffff;stop-opacity:1.0000000;" />
      <stop
         id="stop2933"
         offset="1.0000000"
         style="stop-color:#ffffff;stop-opacity:0.0000000;" />
    </linearGradient>
    <linearGradient
       id="linearGradient9837">
      <stop
         id="stop9838"
         offset="0.0000000"
         style="stop-color:#f8f5da;stop-opacity:1.0000000;" />
      <stop
         id="stop9839"
         offset="1.0000000"
         style="stop-color:#ffffff;stop-opacity:1.0000000;" />
    </linearGradient>
    <linearGradient
       id="linearGradient37404">
      <stop
         id="stop37406"
         offset="0.0000000"
         style="stop-color:#3f86ff;stop-opacity:1.0000000;" />
      <stop
         id="stop37412"
         offset="0.38000000"
         style="stop-color:#9fe1ff;stop-opacity:1.0000000;" />
      <stop
         id="stop37408"
         offset="1.0000000"
         style="stop-color:#ffffff;stop-opacity:1.0000000;" />
    </linearGradient>
    <linearGradient
       inkscape:collect="always"
       xlink:href="#linearGradient2931"
       id="linearGradient40872"
       gradientUnits="userSpaceOnUse"
       gradientTransform="scale(1.806421,0.553581)"
       x1="145.63139"
       y1="712.78033"
       x2="145.63139"
       y2="772.31848" />
    <radialGradient
       inkscape:collect="always"
       xlink:href="#linearGradient4810"
       id="radialGradient40874"
       gradientUnits="userSpaceOnUse"
       gradientTransform="scale(2.175919,0.459576)"
       cx="124.36100"
       cy="1082.2069"
       fx="125.14262"
       fy="1084.0195"
       r="54.577564" />
  </defs>
  <sodipodi:namedview
     id="base"
     width="22px"
     height="22px"
     inkscape:zoom="9.5789401"
     inkscape:cx="23.971495"
     inkscape:cy="7.8592334"
     inkscape:window-width="758"
     inkscape:window-height="579"
     inkscape:window-x="277"
     inkscape:window-y="76"
     inkscape:current-layer="svg1089" />
  <rect
     height="21.425793"
     id="rect36642"
     rx="1.5514623"
     ry="1.8960879"
     style="fill:none;fill-opacity:1.0;fill-rule:nonzero;stroke:#007cdb;stroke-width:0.389;stroke-linecap:round;stroke-linejoin:round;stroke-miterlimit:4;stroke-opacity:1;stroke-dasharray:none"
     width="21.177462"
     x="0.41028404"
     y="0.43572599" />
  <path
     d="M 2.9275283,3.9203329 L 17.867446,3.6798027 C 18.197003,8.6507613 16.878775,13.501454 18.856117,18.592678 L 4.1359041,18.592678 C 2.0853271,13.701896 3.3303201,8.8111147 2.9275283,3.9203329 z "
     id="rect9215"
     sodipodi:nodetypes="ccccc"
     style="fill:none;fill-opacity:1;stroke:#000000;stroke-width:0.53;stroke-linecap:round;stroke-linejoin:bevel;stroke-miterlimit:4;stroke-opacity:1;stroke-dasharray:none" />
  <g
     id="g8582"
     transform="matrix(0.1633251,0,0,0.1782942,-0.7490766,0.6328767)">
    <path
       d="M 263.75,501.11218 L 263.26117,626.72459 C 271.36068,631.29161 281.27089,629.13164 284.75252,623.02151 L 282.5,502.36218 L 263.75,501.11218 z "
       id="path1684"
       sodipodi:nodetypes="ccccc"
       style="fill:#9e9d9b;fill-opacity:1;fill-rule:evenodd;stroke:none;stroke-width:4.89278936;stroke-linecap:butt;stroke-linejoin:miter;stroke-miterlimit:4;stroke-opacity:1"
       transform="matrix(0.228884,-0.113495,0.113495,0.228884,-68.50043,-44.07814)" />
    <path
       d="M 265.37352,538.01031 L 265.7583,627.58301 L 273.77475,630.62011 L 270.68998,537.71983 L 265.37352,538.01031 z "
       id="path4813"
       sodipodi:nodetypes="ccccc"
       style="fill:#ffffff;fill-opacity:1;fill-rule:evenodd;stroke:none;stroke-width:1pt;stroke-linecap:butt;stroke-linejoin:miter;stroke-opacity:1"
       transform="matrix(0.228884,-0.113495,0.113495,0.228884,-68.50043,-44.07814)" />
    <path
       d="M 47.853127,40.988541 C 56.075476,56.812966 54.497479,53.979028 62.722794,69.801236 C 65.614559,70.858668 67.807508,68.960539 68.214838,66.085789 C 60.150963,50.544829 62.377631,54.378767 54.317596,38.835824 C 52.452933,39.609814 49.713423,40.204129 47.853127,40.988541 z M 49.593395,41.622707 C 50.683882,41.168118 51.77437,40.713528 52.864857,40.258938 C 60.765236,55.502991 58.760514,50.4846 66.634314,65.739971 C 66.871792,67.986508 65.553877,68.885605 63.629154,68.852678 C 55.69286,53.551472 57.52969,56.923913 49.593395,41.622707 z "
       id="path6692"
       sodipodi:nodetypes="cccccccccc"
       style="fill:#000000;fill-opacity:1;fill-rule:evenodd;stroke:none;stroke-width:4.89278936;stroke-linecap:butt;stroke-linejoin:miter;stroke-miterlimit:4;stroke-opacity:1" />
    <path
       d="M 266.25,361.26166 C 215.88,361.26166 175,378.34505 175,399.39423 C 175,403.53049 176.74525,407.46554 179.6875,411.18066 C 181.43767,420.67385 183.55201,434.3984 183.3125,446.85194 C 164.43916,456.32637 152.90625,468.84725 152.90625,482.59255 C 152.90625,512.12465 205.92967,536.08211 271.25,536.08214 C 336.57032,536.08214 389.59376,512.12466 389.59375,482.59255 C 389.59375,467.81002 376.14852,454.57147 354.625,444.94531 C 351.71542,434.2813 350.02631,422.82075 351.875,412.2553 C 355.39117,408.23677 357.5,403.93193 357.5,399.39423 C 357.5,398.81798 357.34188,398.26562 357.28125,397.69559 C 357.36116,397.57026 357.41834,397.43882 357.5,397.31427 C 357.44366,397.13929 357.27081,396.99722 357.1875,396.82895 C 354.00151,376.98464 314.53966,361.26166 266.25,361.26166 z "
       id="path1061"
       style="fill:#0000ff;fill-opacity:1;stroke:none;stroke-width:4.89278936;stroke-linecap:round;stroke-linejoin:bevel;stroke-miterlimit:4;stroke-opacity:1"
       transform="matrix(0.228884,-0.113495,0.113495,0.228884,-68.50043,-44.07814)" />
    <path
       d="M 336.25 417.36218 A 77.5 23.75 0 1 1  181.25,417.36218 A 77.5 23.75 0 1 1  336.25 417.36218 z"
       id="path2309"
       sodipodi:cx="258.75"
       sodipodi:cy="417.36218"
       sodipodi:rx="77.5"
       sodipodi:ry="23.75"
       sodipodi:type="arc"
       style="fill:url(#linearGradient40872);fill-opacity:1;stroke:none;stroke-width:2.05213642;stroke-linecap:round;stroke-linejoin:bevel;stroke-miterlimit:4;stroke-opacity:1"
       transform="matrix(0.256132,-0.127006,0.153507,0.309576,-92.66068,-79.75977)" />
    <path
       d="M 348.54157,411.25942 C 326.15065,427.59874 289.69574,431.77062 257.71875,430.84375 C 241.73026,430.38032 226.5582,428.15413 214.25,424.59375 C 201.9418,421.03337 190.72405,418.18039 186.29912,412.92579 L 184.375,413.9375 C 189.95007,420.5579 200.09726,425.57601 212.90625,429.28125 C 225.71524,432.98649 241.23849,435.27593 257.59375,435.75 C 290.30426,436.69813 326.32842,430.50443 350.1875,413.09375 L 348.54157,411.25942 z "
       id="path2935"
       sodipodi:nodetypes="ccccccccc"
       style="fill:#000000;fill-opacity:1;fill-rule:evenodd;stroke:none;stroke-width:4.89278936;stroke-linecap:butt;stroke-linejoin:miter;stroke-miterlimit:4;stroke-opacity:1"
       transform="matrix(0.228884,-0.113495,0.113495,0.228884,-68.50043,-44.07814)" />
    <path
       d="M 351.45088,447.13671 C 332.11482,464.05577 298.58377,475.22314 267.15625,475.53125 C 235.72873,475.83936 204.38333,466.48027 186.34772,449.64703 L 185.16457,450.48423 C 204.62896,468.65099 234.89627,480.75439 267.21875,480.4375 C 299.54123,480.12061 331.8924,467.07926 352.55634,448.99832 L 351.45088,447.13671 z "
       id="path3557"
       sodipodi:nodetypes="ccccccc"
       style="fill:#000000;fill-opacity:1;fill-rule:evenodd;stroke:none;stroke-width:4.89278936;stroke-linecap:butt;stroke-linejoin:miter;stroke-miterlimit:4;stroke-opacity:1"
       transform="matrix(0.228884,-0.113495,0.113495,0.228884,-68.50043,-44.07814)" />
    <path
       d="M 157.5,487.36218 C 204.01668,522.54648 331.42487,527.56909 386.25,482.36218 C 378.33176,545.59131 185.36558,554.84125 157.5,487.36218 z "
       id="path4179"
       sodipodi:nodetypes="ccc"
       style="fill:url(#radialGradient40874);fill-opacity:1;fill-rule:evenodd;stroke:none;stroke-width:1pt;stroke-linecap:butt;stroke-linejoin:miter;stroke-opacity:1"
       transform="matrix(0.228884,-0.113495,0.113495,0.228884,-68.50043,-44.07814)" />
    <path
       d="M 33.31823,7.925271 C 27.215884,11.044142 21.20592,15.038942 17.459858,20.916861 C 15.909772,23.341527 14.73512,28.45236 19.100117,29.562094 C 21.103833,30.646438 20.541915,32.411847 21.795175,34.234322 C 22.93948,35.958635 24.866038,37.092702 22.791698,38.750178 C 20.825671,41.93431 19.04413,47.092568 21.46568,50.387341 C 24.305049,54.044199 29.350987,54.417249 33.674482,54.296096 C 43.510136,53.782469 52.915078,50.093273 61.188863,44.917575 C 67.01792,41.080696 72.737539,36.400227 75.792011,29.971363 C 77.375191,26.756307 77.463894,22.323064 74.512347,19.846313 C 71.528442,17.299724 67.393066,16.903866 63.619015,16.987519 C 61.976677,14.783236 58.7598,12.489943 59.104992,9.5691842 C 59.411426,7.4278307 58.985334,5.3889748 57.202566,4.3823833 C 53.135243,2.2487783 48.275091,3.062337 43.984172,3.9816103 C 40.290194,4.8714406 36.720836,6.2420975 33.31823,7.925271 z M 33.875065,9.048233 C 39.75458,6.2254347 46.216107,3.9323746 52.827216,4.3959927 C 55.250918,4.5884597 58.492905,5.714923 58.598104,8.5748892 C 58.028039,10.364457 58.765097,12.06418 59.652578,13.610363 C 60.617852,15.220044 61.833115,16.576598 63.261167,17.77754 C 65.134419,17.993188 66.958374,18.117125 68.836337,18.602079 C 71.983508,19.092749 75.452803,21.186266 75.630017,24.692122 C 75.778639,29.281869 72.721638,33.694705 69.762569,36.904845 C 62.726075,44.07204 53.6165,48.844901 44.055597,51.752455 C 38.282749,53.350356 31.978353,54.163016 26.137532,52.246241 C 23.306342,51.377078 21.003388,48.628354 21.396869,45.56628 C 21.612112,42.644524 23.270903,40.083437 24.838068,37.736859 C 24.837824,36.153761 23.44324,34.843731 22.784323,33.444992 C 21.811946,31.989412 21.065589,30.284732 19.8868,28.996132 C 17.485785,28.162991 16.655344,25.40881 17.688898,23.282068 C 19.887216,18.2858 24.409437,14.813081 28.851983,11.877822 C 30.473423,10.844502 32.152697,9.9025167 33.875065,9.048233 z "
       id="path6693"
       sodipodi:nodetypes="cccccccccccccccccccccccccccccccc"
       style="fill:#000000;fill-opacity:1;stroke:none;stroke-width:4.89278936;stroke-linecap:round;stroke-linejoin:bevel;stroke-miterlimit:4;stroke-opacity:1" />
  </g>
  <text
     xml:space="preserve"
     style="font-size:4px;font-style:normal;font-weight:normal;fill:#000000;fill-opacity:1;stroke:none;stroke-width:1px;stroke-linecap:butt;stroke-linejoin:miter;stroke-opacity:1;font-family:Bitstream Vera Sans"
     x="3.7582445"
     y="16.780216"
     id="text40876"><tspan
       sodipodi:role="line"
       id="tspan40878"
       x="3.7582445"
       y="16.780216">txtxtxt</tspan></text>
</svg>
